# Blender 3.4.1
# www.blender.org
o rock_07_Mesh.006
v -0.143387 -0.119683 0.121821
v -0.187771 -0.152305 0.047648
v -0.189998 -0.168860 0.032715
v 0.092293 -0.347770 0.027527
v 0.053386 -0.330962 0.050563
v 0.041285 -0.354813 0.021990
v 0.260948 0.081218 -0.038454
v 0.295392 0.053412 -0.032238
v 0.296422 0.048705 -0.045666
v -0.077223 0.013425 0.216705
v -0.139410 0.033314 0.196082
v -0.093696 -0.014439 0.184306
v -0.059726 0.241043 0.106619
v -0.068308 0.226325 0.092289
v 0.006665 0.204014 0.102499
v -0.288841 0.068653 0.106845
v -0.306546 0.068532 0.076593
v -0.294652 0.034250 0.081356
v -0.070936 0.375985 -0.063843
v -0.052164 0.379380 -0.021908
v -0.017512 0.395256 -0.081052
v 0.144409 -0.208821 0.099729
v 0.146168 -0.284294 0.040258
v 0.185305 -0.225582 0.035068
v 0.153582 -0.161814 0.093839
v 0.068616 -0.001951 0.190574
v -0.016255 0.001197 0.218942
v 0.039743 -0.040529 0.227900
v -0.148783 0.172367 0.095026
v -0.212591 0.185706 0.123819
v -0.159163 0.165850 0.142390
v -0.282622 0.147312 0.007917
v -0.290569 0.134473 0.059056
v -0.286671 0.160096 0.041010
v 0.153303 -0.123399 0.123573
v 0.126094 -0.119239 0.212338
v 0.113583 -0.161618 0.195581
v -0.017783 -0.224369 0.135280
v -0.007876 -0.283537 0.117899
v 0.037610 -0.267442 0.139000
v 0.102076 0.023594 0.161059
v 0.158156 -0.018422 0.167282
v 0.139266 0.023885 0.128156
v 0.085651 0.130085 0.088661
v 0.136761 0.108818 0.079074
v 0.119575 0.146201 0.055852
v -0.018112 0.385850 0.009817
v -0.022086 0.394563 -0.040037
v 0.013569 0.235522 0.112374
v 0.025529 0.263876 0.041017
v -0.016635 0.286736 0.097372
v 0.030250 0.337326 -0.053250
v 0.009431 0.378357 -0.054352
v 0.010934 0.373593 -0.036067
v -0.084151 0.346290 0.023746
v -0.044161 0.349553 0.042355
v -0.008338 0.317679 0.052960
v 0.030395 0.289846 -0.004620
v 0.013017 0.325496 0.007653
v -0.268407 0.219846 0.002645
v -0.062206 -0.197840 0.133194
v -0.141512 -0.197371 0.062020
v -0.109528 -0.233590 0.071058
v -0.318272 0.075940 0.057005
v -0.297942 0.044957 0.036057
v -0.290780 0.018943 0.065936
v -0.183090 -0.116777 -0.033582
v -0.184455 -0.162395 -0.003751
v -0.188594 -0.146856 0.005951
v -0.194661 0.265069 -0.034937
v -0.214105 0.260015 0.006861
v -0.188698 0.258950 0.008621
v -0.239086 0.234639 0.078019
v -0.174634 0.186203 0.087668
v -0.178564 0.224941 0.064702
v 0.264774 -0.101148 0.048357
v 0.220064 -0.067105 0.059297
v 0.228643 -0.106254 0.046411
v 0.154351 0.066462 0.088778
v 0.076176 0.115909 0.105471
v 0.209722 0.106525 -0.003289
v 0.225567 0.066499 0.011351
v 0.242697 0.103448 -0.043615
v 0.098141 0.236993 -0.015961
v 0.067093 0.197698 0.029662
v 0.091499 0.202938 0.010096
v 0.089861 0.146448 0.053485
v -0.018614 0.051654 0.177556
v 0.032461 0.070416 0.147475
v -0.014323 0.086744 0.143214
v -0.141261 0.254446 0.063912
v -0.122228 0.275247 0.096371
v -0.138181 0.295248 0.057089
v -0.142195 0.283688 0.045457
v -0.138934 0.282681 -0.005120
v -0.153615 0.264465 0.023135
v -0.037527 -0.146326 0.174222
v -0.101913 -0.112747 0.155908
v -0.097757 -0.150301 0.130682
v -0.208186 -0.058010 0.011999
v -0.186983 -0.064812 -0.040472
v -0.186862 -0.079598 0.029056
v 0.146691 -0.102158 0.173938
v 0.055658 -0.061742 0.234419
v 0.132188 -0.059519 0.199198
v 0.119206 -0.114059 0.225274
v 0.108326 -0.100335 0.233496
v 0.049260 -0.127198 0.237786
v 0.044110 -0.091799 0.227284
v -0.042256 -0.093678 0.202127
v -0.014287 0.184409 0.085371
v 0.062080 0.179421 0.046203
v 0.075276 0.156150 0.046082
v 0.087566 0.177652 0.038172
v 0.209199 -0.149854 0.000191
v 0.263098 -0.138897 -0.000519
v 0.273797 -0.152002 0.049167
v 0.199500 -0.239144 -0.009391
v 0.188271 -0.258270 0.011911
v 0.169834 -0.299574 0.005018
v 0.291063 -0.026822 -0.010409
v 0.301506 -0.054027 0.040005
v 0.302095 -0.050500 -0.020345
v 0.275421 -0.023677 0.046016
v 0.250837 0.006075 0.039048
v 0.253663 -0.007500 0.065099
v 0.115529 0.235424 -0.038955
v 0.117694 0.228267 -0.009129
v 0.157682 0.204656 -0.057421
v -0.158361 0.266563 -0.027471
v 0.180338 -0.069795 0.115130
v 0.167224 -0.042596 0.077340
v 0.184290 -0.036437 0.135453
v 0.193403 -0.117769 0.038679
v 0.175130 -0.126320 0.046366
v 0.196797 -0.150911 0.024889
v -0.217150 0.046550 0.161497
v -0.259812 0.031261 0.106371
v -0.166402 0.097765 0.196682
v -0.082070 0.115698 0.148144
v -0.121188 0.154054 0.139646
v -0.128573 0.325620 -0.026590
v -0.124472 0.331394 -0.059071
v -0.134838 0.301888 -0.030530
v -0.263702 0.140405 0.188724
v -0.242122 0.179349 0.161473
v -0.273870 0.193909 0.149764
v -0.231494 0.124164 0.201837
v -0.207656 0.114958 0.204706
v -0.177080 0.149571 0.170096
v -0.032564 -0.179246 0.164104
v 0.060820 -0.170945 0.223395
v 0.246565 0.046878 0.008858
v 0.277302 -0.006518 0.004006
v -0.160218 -0.091264 0.134105
v -0.177079 -0.062084 0.126227
v -0.201103 -0.104745 0.082465
v -0.026269 -0.062379 0.197553
v -0.187434 -0.117152 0.017893
v 0.299128 -0.067372 -0.019652
v 0.307802 -0.092245 0.015966
v 0.275556 -0.127884 -0.004300
v 0.115964 -0.275311 0.093295
v 0.087327 -0.283166 0.127481
v 0.104004 -0.324227 0.043367
v 0.069897 -0.356117 -0.014268
v 0.088151 -0.352736 0.010301
v 0.036040 -0.363749 0.011757
v 0.103700 -0.343363 -0.016312
v 0.172338 -0.301421 -0.005949
v -0.060403 -0.384962 -0.002325
v -0.057737 -0.233474 0.117994
v -0.077328 -0.286853 0.074133
v -0.040354 0.308746 0.091925
v -0.110199 0.314020 0.062079
v -0.063793 0.291312 0.124191
v -0.056495 0.259613 0.120830
v -0.009975 0.238278 0.115029
v -0.028972 0.269520 0.130301
v -0.115565 0.164591 0.122150
v -0.014293 0.135949 0.086090
v -0.066932 0.159447 0.093086
v 0.018960 0.166461 0.067366
v 0.287734 -0.129949 0.020338
v 0.295271 -0.055465 0.052326
v -0.224377 -0.043942 -0.013749
v 0.020229 0.186212 0.081215
v 0.030249 0.198232 0.072844
v 0.020748 0.215488 0.078673
v -0.288568 0.121250 0.007826
v -0.315783 0.082297 0.045856
v -0.298322 0.112985 0.058030
v -0.113625 0.177082 0.091289
v -0.113726 0.200489 0.072639
v 0.210233 -0.154124 -0.015655
v -0.227841 0.205069 0.106596
v -0.267287 0.240713 0.067509
v -0.277696 0.207048 0.062546
v -0.157645 -0.258225 0.023013
v -0.193505 -0.277473 -0.000548
v -0.130738 -0.297799 0.021231
v -0.079343 -0.343373 0.010496
v -0.033322 -0.361039 0.023122
v -0.101731 -0.333286 0.010995
v -0.131193 -0.359057 0.003694
v -0.019071 -0.319637 0.084175
v -0.063203 -0.328082 0.036013
v 0.028492 -0.309801 0.095696
v -0.001055 -0.329606 0.086553
v -0.000905 -0.356230 0.056738
v 0.149299 0.035697 0.098269
v 0.180559 0.018258 0.052784
v 0.197794 0.062535 0.048814
v 0.170524 -0.009375 0.106523
v -0.124678 -0.045731 0.156852
v -0.095793 -0.082346 0.174810
v -0.136887 -0.005169 0.177332
v -0.172573 0.021013 0.185455
v -0.192181 -0.012071 0.136191
v -0.266807 0.004947 0.015077
v -0.263700 -0.016243 0.046605
v 0.142062 -0.150774 0.120697
v 0.108080 -0.212489 0.165288
v 0.127488 -0.215220 0.125056
v 0.073711 -0.219063 0.198877
v -0.003671 -0.210015 0.155814
v 0.056463 -0.248805 0.158736
v 0.088145 -0.143127 0.240367
v 0.095326 -0.168447 0.218959
v -0.271230 0.095937 0.153564
v -0.285734 0.136377 0.171565
v -0.286376 0.108311 0.145152
v 0.183769 0.104163 0.042144
v 0.216514 0.027966 0.046131
v -0.121345 0.247897 0.079410
v 0.087041 -0.258605 0.150053
v -0.183072 0.089395 0.206588
v -0.221679 0.106637 0.206987
v -0.207174 0.085566 0.204522
v -0.290774 0.169414 0.159541
v -0.199171 -0.147475 0.035820
v -0.201468 -0.108438 0.062635
v -0.237103 -0.059428 0.062064
v -0.003793 0.384662 -0.001383
v 0.012489 0.355393 -0.002602
v -0.303663 0.154691 0.164948
v -0.303130 0.161433 0.153920
v -0.283853 0.195501 0.117273
v -0.284091 0.139323 0.103111
v -0.292476 0.103956 0.082240
v -0.287870 0.105306 0.126612
v 0.305508 -0.069139 0.015296
v 0.279237 -0.109829 0.047867
v 0.300021 -0.086526 0.034265
v -0.256864 0.244965 -0.010497
v -0.250586 0.251856 0.012611
v -0.234605 0.259322 -0.018279
v -0.018944 0.161189 0.078023
v 0.011778 0.145248 0.066335
v 0.054495 0.129145 0.103966
v 0.058682 0.087353 0.113948
v -0.097274 -0.376451 -0.007010
v 0.026253 0.089226 0.129088
v -0.022194 0.108685 0.124242
v -0.090389 0.146386 0.131922
v 0.084352 -0.224602 0.192850
v 0.067191 -0.273069 0.138718
v 0.027802 0.323674 -0.023169
v 0.034788 0.318494 -0.055115
v 0.133613 0.214580 -0.002285
v 0.181369 0.125642 0.019207
v 0.115859 0.164101 0.037572
v 0.099862 0.061266 0.110948
v 0.192563 -0.193962 0.037785
v 0.196776 -0.174509 -0.012650
v 0.187975 -0.164644 0.021438
v 0.168434 -0.148689 0.075221
v 0.264400 -0.029288 0.057835
v 0.228653 0.004498 0.058028
v 0.189764 -0.003242 0.060646
v 0.199214 -0.071749 0.057523
v 0.182127 -0.054966 0.063572
v 0.166175 -0.069320 0.068176
v 0.238334 -0.016792 0.067717
v 0.203633 -0.026123 0.066138
v 0.242985 0.027942 0.026550
v 0.293099 0.028637 -0.023779
v 0.301360 0.023043 -0.034901
v 0.126289 0.190272 0.004340
v 0.178414 0.153881 -0.002556
v 0.205246 0.145233 -0.040118
v 0.183111 0.170215 -0.019043
v 0.205860 0.132592 -0.022156
v 0.236153 0.121112 -0.043603
v -0.019433 -0.020750 0.229768
v 0.082608 -0.079060 0.231522
v -0.233198 -0.058917 0.074013
v -0.240654 -0.019502 0.097442
v -0.272540 -0.009624 0.071246
v -0.088681 0.363403 -0.010415
v -0.129032 0.349645 -0.019920
v -0.053227 0.171826 0.088630
v -0.263021 0.228391 0.090308
v -0.022631 -0.372691 0.013388
v 0.039716 -0.318995 0.074571
v 0.004024 -0.366331 0.036590
v 0.171292 -0.027789 0.160343
v 0.172283 -0.010736 0.136109
v 0.141659 -0.088934 0.194277
v 0.037029 0.290931 -0.050556
v 0.047609 0.253435 -0.034179
v 0.074206 0.242853 -0.018036
v 0.070344 0.243036 -0.036812
v -0.193802 -0.179995 0.019444
v -0.186279 -0.209495 -0.007119
v -0.188201 -0.208553 0.012657
v -0.167405 -0.233080 0.024341
v -0.220617 0.175106 0.162159
v 0.202574 -0.208230 -0.011602
v -0.135326 0.225543 0.061698
v -0.170619 0.260401 0.047380
v 0.040034 0.259240 -0.003387
v 0.035684 0.210925 0.054457
v 0.039920 0.228997 0.022928
v -0.218855 -0.240041 -0.016488
v -0.219983 -0.241110 -0.034682
v -0.153438 -0.027824 0.145783
v -0.189794 -0.042154 0.125511
v -0.254479 -0.032607 -0.001598
v -0.177669 -0.087785 -0.041092
v 0.000359 0.113211 0.107564
v 0.030563 0.135235 0.065951
v -0.031905 0.125867 0.106327
v 0.167982 -0.010654 0.080969
v -0.028487 0.282376 0.128594
v 0.052494 0.165422 0.055867
v 0.157226 0.005200 0.132056
v 0.162863 0.009796 0.103516
v 0.174035 0.008447 0.076819
v 0.074432 -0.139380 0.241634
v 0.208140 0.149038 -0.060001
v 0.139349 -0.318047 0.016658
v 0.173989 -0.055476 0.159004
v 0.173512 -0.094241 0.103408
v 0.160312 -0.128072 0.100513
v 0.178911 -0.103628 0.069662
v 0.187375 -0.091985 0.052698
v 0.153904 0.203092 -0.026641
v 0.051756 0.241625 -0.009126
v 0.064219 0.231728 -0.003887
v -0.166885 0.063354 0.212778
v -0.133221 0.053492 0.213315
v -0.104262 0.086513 0.181668
v 0.258766 -0.154972 0.058830
v 0.013410 -0.056082 0.221946
v -0.280706 0.191202 0.093072
v -0.228862 0.258284 0.061381
v -0.206967 0.251964 0.059104
v -0.249720 0.253990 0.065572
v -0.286214 0.131178 0.087156
v -0.058977 0.199077 0.083659
v 0.289782 -0.008007 -0.025809
v -0.111381 0.289067 0.096457
v 0.067823 0.039607 0.161663
v 0.094050 0.045276 0.138872
v -0.174152 -0.187255 0.034696
v -0.231579 -0.044948 0.031444
v -0.249006 -0.038966 0.032458
v -0.181450 0.056710 0.202594
v -0.204970 0.008211 0.142370
v -0.091343 -0.057921 0.170931
v -0.253146 0.200169 0.128947
v 0.214735 -0.157868 0.024652
v 0.231080 -0.159451 0.039520
v -0.291390 0.098738 0.104738
v -0.224413 -0.267552 -0.026617
v -0.260684 -0.031502 0.050869
v -0.159915 0.268162 -0.056439
v -0.136039 0.276689 -0.058037
v -0.127622 0.296126 -0.059400
v -0.116972 -0.029957 0.168718
v -0.057422 -0.011665 0.214259
v -0.017642 -0.045408 0.211092
v 0.014816 -0.042518 0.228818
v 0.059070 0.018458 0.171486
v 0.072160 -0.183621 0.220722
v -0.001132 0.390996 -0.053272
v -0.075722 -0.044032 0.174013
v -0.057568 0.047618 0.196319
v -0.055259 0.016966 0.216218
v -0.108249 0.042098 0.218412
v 0.176133 -0.032040 0.068233
v 0.090373 0.247762 -0.023430
v 0.084644 -0.196261 0.214732
v 0.092955 -0.205460 0.198443
v -0.128234 0.329987 0.020865
v -0.139174 0.304508 0.026491
v -0.126206 -0.163328 0.100285
v -0.106677 0.058752 0.207797
v -0.178415 -0.102444 0.012364
v -0.082155 0.070528 0.177257
v -0.044329 0.086163 0.158218
v -0.169276 0.239691 0.051895
v -0.212888 0.259643 0.041477
v -0.145780 0.269522 0.056576
v 0.212926 0.042540 0.044434
v -0.112209 0.031935 0.216371
v 0.156256 -0.058591 0.187751
v 0.089468 0.249490 -0.040353
v 0.250791 -0.120197 0.044263
v 0.216970 -0.132018 0.035134
v -0.125598 0.344867 0.001085
v -0.117312 0.357686 -0.016791
v -0.028762 0.336321 0.057017
v -0.017624 0.326553 0.054627
v 0.197924 -0.210067 0.017979
v -0.124676 0.350152 -0.057313
v -0.045631 -0.107552 0.195546
v -0.060613 -0.312582 0.058649
v 0.020321 0.104662 0.104867
v -0.065936 0.276355 0.126519
v -0.190527 -0.227180 -0.005853
v -0.199574 -0.228011 -0.019556
v -0.117249 0.359837 -0.059996
v 0.045688 0.129796 0.099802
v 0.071476 0.141455 0.056973
v 0.049338 0.147197 0.055897
v 0.003582 -0.129481 0.211274
v 0.283071 0.011332 -0.011026
v -0.072681 0.375041 -0.022786
v -0.101228 0.214745 0.073038
v 0.220759 0.123595 -0.030461
vn -0.5237 -0.5565 0.6450
vn -0.7000 -0.4487 0.5556
vn -0.8575 -0.3420 0.3844
vn 0.3372 -0.8566 0.3906
vn 0.1100 -0.8209 0.5604
vn 0.2686 -0.7961 0.5422
vn 0.5389 0.6459 0.5407
vn 0.7949 0.5288 0.2974
vn 0.8859 0.4548 -0.0915
vn -0.2544 -0.2793 0.9259
vn -0.2596 -0.5341 0.8046
vn -0.3744 -0.5135 0.7721
vn -0.3024 -0.5385 0.7865
vn -0.3277 -0.4693 0.8200
vn 0.3320 -0.4395 0.8347
vn -0.7833 -0.2970 0.5461
vn -0.8793 -0.0470 0.4739
vn -0.7789 -0.4163 0.4691
vn -0.3081 0.9508 0.0339
vn -0.3228 0.9359 0.1408
vn -0.1826 0.9827 0.0311
vn 0.8216 -0.2447 0.5149
vn 0.6581 -0.4909 0.5709
vn 0.7930 -0.2886 0.5366
vn 0.8494 -0.1754 0.4977
vn 0.2814 0.5860 0.7599
vn 0.2011 0.5143 0.8337
vn 0.1949 0.4214 0.8857
vn 0.1224 0.8483 0.5152
vn 0.3294 0.8588 0.3923
vn 0.2599 0.8650 0.4293
vn -0.9751 0.1713 -0.1411
vn -0.9752 0.2196 0.0280
vn -0.9848 0.1467 -0.0933
vn 0.8702 -0.3743 0.3204
vn 0.8404 -0.3036 0.4489
vn 0.8420 -0.3625 0.3995
vn -0.3744 -0.4613 0.8044
vn -0.3176 -0.4739 0.8213
vn -0.2121 -0.5787 0.7875
vn 0.3463 0.6419 0.6841
vn 0.5273 0.5077 0.6813
vn 0.5629 0.6880 0.4581
vn 0.2212 0.7880 0.5746
vn 0.4786 0.4947 0.7254
vn 0.3140 0.7187 0.6204
vn 0.1003 0.8537 0.5110
vn -0.1280 0.9890 0.0736
vn 0.6965 -0.0015 0.7175
vn 0.8701 0.3724 0.3229
vn 0.8239 0.4274 0.3722
vn 0.9349 0.3121 0.1688
vn 0.8218 0.5634 0.0855
vn 0.8417 0.5249 0.1263
vn -0.3031 0.8009 0.5163
vn -0.2199 0.7334 0.6433
vn 0.7645 0.4263 0.4836
vn 0.9144 0.2896 0.2829
vn 0.8753 0.2147 0.4334
vn -0.9462 0.3038 -0.1112
vn -0.5045 -0.4328 0.7471
vn -0.6306 -0.3759 0.6790
vn -0.6112 -0.3545 0.7076
vn -0.9942 -0.0092 0.1074
vn -0.8573 -0.4627 -0.2258
vn -0.8453 -0.5272 0.0871
vn -0.9848 0.1700 -0.0348
vn -0.9468 -0.0240 -0.3209
vn -0.9733 -0.0062 -0.2296
vn -0.0590 0.9925 0.1072
vn -0.0271 0.9985 0.0466
vn -0.0612 0.9966 0.0556
vn 0.2930 0.5756 0.7635
vn 0.2698 0.7029 0.6581
vn 0.1939 0.5242 0.8292
vn -0.0085 -0.0700 0.9975
vn 0.0333 -0.2277 0.9732
vn -0.0714 -0.3200 0.9447
vn 0.5348 0.2589 0.8043
vn 0.2757 0.3813 0.8824
vn 0.7166 0.4776 0.5082
vn 0.6588 0.5236 0.5403
vn 0.6524 0.4668 0.5971
vn 0.3102 0.7350 0.6029
vn 0.4777 0.5903 0.6506
vn 0.3547 0.5526 0.7542
vn -0.0362 0.7388 0.6730
vn 0.2691 0.6288 0.7296
vn 0.2740 0.6768 0.6833
vn 0.2544 0.6756 0.6920
vn -0.6484 -0.0620 0.7588
vn -0.6347 0.0218 0.7724
vn -0.8228 0.4334 0.3677
vn -0.9517 0.3014 0.0587
vn -0.8997 0.4335 -0.0522
vn -0.4969 0.8673 -0.0286
vn -0.4920 -0.4200 0.7626
vn -0.4758 -0.4726 0.7418
vn -0.5234 -0.4621 0.7159
vn -0.5916 -0.7910 -0.1558
vn -0.8043 -0.5845 -0.1066
vn -0.8164 -0.4452 -0.3677
vn 0.8681 -0.3645 0.3370
vn 0.0747 0.1569 0.9848
vn 0.4492 0.3259 0.8319
vn 0.7145 -0.1298 0.6875
vn 0.4068 0.1857 0.8944
vn -0.2958 -0.0749 0.9523
vn -0.2461 0.0806 0.9659
vn -0.4064 0.0101 0.9136
vn 0.0237 -0.4216 0.9065
vn 0.5236 0.3286 0.7861
vn 0.1897 0.4130 0.8907
vn 0.2777 0.5338 0.7987
vn 0.4685 -0.8824 0.0429
vn 0.3755 -0.8849 -0.2754
vn 0.6465 -0.6874 0.3309
vn 0.9478 -0.2321 0.2188
vn 0.8420 -0.3767 0.3861
vn 0.7150 -0.5658 0.4105
vn 0.8987 0.3902 0.2002
vn 0.9193 0.2532 0.3013
vn 0.9829 0.1839 0.0001
vn 0.7044 0.5351 0.4663
vn 0.6257 0.6419 0.4433
vn 0.4352 0.4336 0.7890
vn 0.5409 0.8218 0.1789
vn 0.2052 0.6867 0.6973
vn 0.6849 0.7187 0.1199
vn -0.3249 0.9451 0.0336
vn 0.9841 -0.1744 -0.0334
vn 0.9691 -0.0105 0.2465
vn 0.9881 0.1206 0.0959
vn 0.2932 -0.4078 0.8647
vn 0.7961 -0.2886 0.5319
vn 0.0359 -0.3570 0.9334
vn -0.5920 -0.5161 0.6190
vn -0.5936 -0.4192 0.6870
vn 0.2994 0.5190 0.8006
vn 0.3347 0.5453 0.7685
vn 0.3251 0.6629 0.6745
vn -0.9837 0.1666 -0.0671
vn -0.9860 0.0807 -0.1460
vn -0.9823 0.0912 -0.1636
vn -0.3510 0.2038 0.9139
vn 0.1327 0.7371 0.6626
vn -0.3016 0.7759 0.5541
vn -0.1006 0.3777 0.9205
vn 0.1634 0.4008 0.9015
vn 0.3063 0.6037 0.7360
vn -0.4785 -0.4418 0.7589
vn -0.3433 -0.4270 0.8366
vn 0.5515 0.5483 0.6287
vn 0.8263 0.4163 0.3794
vn -0.5774 -0.3439 0.7405
vn -0.5845 -0.2351 0.7765
vn -0.7440 -0.4880 0.4565
vn -0.4273 -0.0528 0.9025
vn -0.9273 0.2856 -0.2419
vn 0.9382 -0.2064 -0.2777
vn 0.9688 -0.2476 0.0089
vn 0.6828 -0.6092 -0.4033
vn 0.7256 -0.4971 0.4758
vn 0.3694 -0.7048 0.6056
vn 0.6115 -0.6171 0.4952
vn 0.2524 -0.9663 -0.0510
vn 0.3349 -0.9377 0.0923
vn 0.2595 -0.9368 0.2345
vn 0.4683 -0.8828 -0.0373
vn 0.7500 -0.6166 0.2392
vn -0.2116 -0.5702 0.7938
vn -0.4754 -0.3881 0.7896
vn -0.5297 -0.5019 0.6838
vn 0.0637 0.8399 0.5391
vn -0.3574 0.7795 0.5145
vn -0.1897 0.5796 0.7925
vn -0.2800 -0.4823 0.8301
vn -0.0493 -0.4206 0.9059
vn 0.1030 -0.1351 0.9855
vn 0.2410 0.8703 0.4296
vn 0.3407 0.5895 0.7324
vn 0.2715 0.5408 0.7962
vn 0.2751 -0.3701 0.8873
vn 0.8149 -0.5628 -0.1382
vn 0.6125 0.1058 0.7834
vn -0.4947 -0.8631 -0.1011
vn 0.5570 -0.3541 0.7513
vn 0.7565 0.1738 0.6304
vn 0.8996 0.1247 0.4186
vn -0.9402 0.3265 -0.0974
vn -0.9625 0.2395 -0.1274
vn -0.9135 0.3929 0.1056
vn 0.0820 0.7639 0.6401
vn -0.0653 0.4074 0.9109
vn 0.5945 -0.7658 0.2452
vn 0.4012 0.7319 0.5507
vn -0.7915 0.5777 0.1994
vn -0.9593 0.2817 0.0205
vn -0.4973 -0.3011 0.8136
vn -0.5596 -0.0748 0.8254
vn -0.4737 -0.4950 0.7284
vn -0.2628 -0.5396 0.7998
vn -0.3679 -0.6697 0.6451
vn -0.2564 -0.3863 0.8860
vn -0.0965 -0.2262 0.9693
vn -0.4423 -0.6172 0.6507
vn -0.4357 -0.6723 0.5985
vn 0.2663 -0.7631 0.5888
vn -0.1115 -0.7079 0.6975
vn -0.0241 -0.8081 0.5886
vn 0.6775 0.3812 0.6290
vn 0.5722 0.2039 0.7943
vn 0.6545 0.2255 0.7217
vn 0.9421 0.3265 -0.0762
vn -0.4912 -0.1689 0.8545
vn -0.4554 -0.0854 0.8862
vn -0.2807 -0.5433 0.7912
vn -0.3927 -0.5472 0.7392
vn -0.4809 -0.4849 0.7305
vn -0.8957 -0.4060 -0.1811
vn -0.9188 -0.3477 -0.1870
vn 0.8644 -0.2997 0.4037
vn 0.8251 -0.3860 0.4125
vn 0.8291 -0.3089 0.4661
vn -0.1012 -0.6263 0.7730
vn -0.4348 -0.5768 0.6916
vn -0.2953 -0.6335 0.7152
vn 0.2998 -0.2606 0.9177
vn 0.6181 -0.4123 0.6693
vn -0.6616 -0.5116 0.5482
vn -0.6243 -0.3978 0.6723
vn -0.7844 -0.5443 0.2974
vn 0.6515 0.4904 0.5788
vn 0.3437 0.3345 0.8775
vn -0.5050 -0.4018 0.7639
vn 0.5013 -0.6310 0.5920
vn 0.1012 0.2757 0.9559
vn -0.3087 -0.1353 0.9415
vn -0.3827 -0.3577 0.8518
vn -0.4867 0.6348 0.6001
vn -0.9745 -0.2178 0.0535
vn -0.9371 -0.3189 -0.1419
vn -0.7483 -0.6605 -0.0607
vn 0.5804 0.7358 0.3490
vn 0.8617 0.3437 0.3732
vn -0.8626 0.1186 0.4918
vn -0.9578 0.2865 0.0233
vn -0.8988 0.4384 -0.0002
vn -0.9938 0.0720 -0.0842
vn -0.9321 0.2751 0.2357
vn -0.9719 -0.1816 0.1499
vn 0.9956 0.0851 0.0403
vn 0.3787 -0.0201 0.9253
vn 0.8598 -0.1868 0.4753
vn -0.7262 0.6814 -0.0914
vn -0.5161 0.8563 -0.0216
vn -0.2604 0.9654 0.0146
vn 0.3484 0.0059 0.9373
vn 0.3342 0.2970 0.8945
vn -0.0081 0.7281 0.6854
vn 0.2661 0.4810 0.8354
vn -0.0774 -0.4332 0.8979
vn 0.2646 0.7682 0.5830
vn 0.3275 0.7177 0.6145
vn 0.3999 0.6880 0.6056
vn 0.3800 -0.6295 0.6777
vn -0.0335 -0.7263 0.6865
vn 0.9342 0.2365 0.2672
vn 0.9710 0.1701 0.1678
vn 0.4511 0.6003 0.6604
vn 0.6301 0.5617 0.5362
vn 0.3498 0.6352 0.6886
vn 0.3981 0.5718 0.7174
vn 0.9095 0.0009 0.4157
vn 0.9569 -0.1598 0.2424
vn 0.8843 -0.1673 0.4360
vn 0.9087 -0.0116 0.4172
vn 0.4121 0.0339 0.9105
vn 0.1622 0.5608 0.8119
vn 0.3342 0.2794 0.9001
vn 0.0828 -0.2175 0.9725
vn 0.3295 -0.1496 0.9322
vn 0.8908 -0.0138 0.4542
vn 0.0738 0.0527 0.9959
vn -0.0005 0.0132 0.9999
vn 0.6231 0.4592 0.6332
vn 0.7715 0.0637 0.6330
vn 0.8524 0.0158 0.5227
vn 0.3420 0.4132 0.8440
vn 0.6405 0.4752 0.6033
vn 0.7199 0.6123 0.3268
vn 0.7561 0.5235 0.3928
vn 0.6758 0.5535 0.4867
vn 0.6593 0.4267 0.6190
vn -0.1578 -0.0935 0.9830
vn 0.1740 0.2802 0.9440
vn -0.7259 -0.5126 0.4586
vn -0.6075 -0.4323 0.6664
vn -0.8182 -0.4716 0.3289
vn -0.3416 0.8796 0.3310
vn -0.8978 0.4309 0.0907
vn 0.0927 0.1752 0.9802
vn -0.4795 0.7265 0.4923
vn -0.0187 -0.8882 0.4591
vn 0.2702 -0.8070 0.5251
vn 0.1694 -0.9125 0.3724
vn 0.7723 0.3309 0.5422
vn 0.7894 0.5790 0.2043
vn 0.8146 -0.1256 0.5662
vn 0.9699 0.1921 0.1494
vn 0.7377 0.6490 0.1860
vn 0.0236 0.9153 0.4021
vn 0.0775 0.9970 0.0044
vn -0.9735 -0.1311 0.1874
vn -0.9945 0.1042 0.0122
vn -0.9032 -0.2323 0.3610
vn -0.6602 -0.2260 0.7163
vn 0.1786 0.7882 0.5890
vn 0.9874 0.0467 0.1513
vn -0.2552 0.1261 0.9586
vn -0.2330 0.7434 0.6269
vn 0.8920 0.3595 0.2741
vn 0.7832 0.4013 0.4749
vn 0.7810 0.4689 0.4125
vn -0.8113 0.2678 0.5196
vn -0.8830 0.2520 0.3959
vn -0.4411 -0.4150 0.7958
vn -0.5198 -0.3443 0.7818
vn -0.6596 -0.7453 -0.0978
vn -0.9870 -0.1564 -0.0376
vn 0.2483 0.6895 0.6804
vn -0.0095 0.7106 0.7036
vn 0.3878 0.7169 0.5793
vn 0.9315 -0.0487 0.3605
vn 0.3524 0.4837 0.8012
vn 0.4371 0.0616 0.8973
vn 0.6852 0.6640 0.2993
vn 0.8682 0.4179 0.2675
vn 0.8463 0.2174 0.4864
vn -0.0747 -0.1578 0.9846
vn 0.7128 0.6745 0.1922
vn 0.5690 -0.7107 0.4137
vn 0.8987 -0.1773 0.4010
vn 0.9641 -0.2352 0.1232
vn 0.9039 -0.2774 0.3256
vn 0.9310 -0.0986 0.3516
vn 0.5324 -0.1849 0.8260
vn 0.6708 0.7223 0.1681
vn 0.5497 0.7065 0.4458
vn 0.2887 0.7120 0.6401
vn -0.1349 -0.1585 0.9781
vn -0.1299 -0.0458 0.9905
vn 0.3876 0.5832 0.7139
vn 0.0382 -0.5641 0.8249
vn -0.3993 -0.3259 0.8569
vn -0.9710 0.2358 -0.0404
vn 0.0584 0.8830 0.4658
vn 0.2043 0.6870 0.6973
vn -0.3059 0.8860 0.3485
vn -0.9787 0.1680 0.1183
vn -0.1757 -0.1073 0.9786
vn 0.8965 0.1254 0.4250
vn -0.4776 0.5129 0.7133
vn 0.2818 0.5532 0.7840
vn 0.4105 0.7325 0.5431
vn -0.6538 -0.3659 0.6623
vn -0.4558 -0.8431 -0.2854
vn -0.5119 -0.8416 -0.1722
vn -0.4662 -0.4745 0.7467
vn -0.5788 -0.4967 0.6467
vn -0.3137 0.0930 0.9450
vn 0.2890 0.8104 0.5096
vn 0.0146 -0.9998 -0.0115
vn -0.2215 -0.8878 0.4035
vn -0.9762 0.1095 0.1871
vn -0.5459 0.3268 0.7715
vn -0.8531 -0.5204 -0.0361
vn -0.2222 0.9728 0.0656
vn -0.7256 0.6855 -0.0605
vn -0.9635 0.1867 -0.1918
vn -0.3715 -0.4233 0.8263
vn -0.4656 -0.5157 0.7192
vn -0.4304 -0.4897 0.7583
vn -0.1839 -0.2117 0.9599
vn 0.2344 0.5771 0.7823
vn -0.0969 -0.4467 0.8894
vn 0.4462 0.8899 0.0946
vn -0.3749 -0.1921 0.9069
vn 0.2483 0.6273 0.7382
vn 0.1070 0.4129 0.9045
vn 0.0250 0.2144 0.9764
vn 0.5149 -0.0509 0.8558
vn 0.1721 0.9130 0.3700
vn 0.3363 -0.4783 0.8113
vn 0.6822 -0.4649 0.5643
vn -0.7073 0.6062 0.3636
vn -0.9644 0.2624 0.0318
vn -0.5784 -0.4870 0.6544
vn 0.2659 0.5723 0.7757
vn -0.9757 0.1253 -0.1799
vn 0.3174 0.6349 0.7044
vn 0.2703 0.6302 0.7278
vn 0.0652 0.3938 0.9169
vn 0.0099 0.9917 0.1280
vn -0.7019 0.4100 0.5825
vn 0.5932 0.2929 0.7499
vn -0.3392 -0.4630 0.8189
vn 0.6590 0.0959 0.7460
vn 0.0953 0.9908 0.0961
vn -0.3120 0.0480 0.9489
vn -0.2517 -0.2074 0.9453
vn -0.7186 0.6263 0.3024
vn -0.3958 0.8914 0.2206
vn 0.3302 0.6578 0.6770
vn 0.5834 0.5493 0.5982
vn 0.9574 -0.0745 0.2789
vn -0.9381 0.3302 -0.1048
vn -0.4618 -0.3878 0.7977
vn -0.4569 -0.6870 0.5650
vn 0.1732 0.5071 0.8443
vn -0.3892 -0.1675 0.9058
vn -0.8689 0.0776 0.4889
vn -0.6086 0.1180 0.7846
vn -0.5321 0.8465 0.0148
vn -0.1886 0.8155 0.5472
vn 0.0992 0.7669 0.6340
vn 0.2121 0.3980 0.8926
vn -0.4633 -0.4152 0.7829
vn 0.8106 0.0706 0.5813
vn -0.2846 0.9226 0.2603
vn -0.3084 -0.1247 0.9430
vn 0.6583 0.4298 0.6180
vt 0.465420 0.947960
vt 0.455360 0.961940
vt 0.450470 0.963560
vt 0.407140 0.891440
vt 0.412080 0.900850
vt 0.404750 0.903420
vt 0.507310 0.825060
vt 0.498840 0.819520
vt 0.499310 0.816530
vt 0.497720 0.921930
vt 0.502440 0.935430
vt 0.490230 0.930040
vt 0.558270 0.902830
vt 0.554870 0.905580
vt 0.549750 0.887230
vt 0.517420 0.968630
vt 0.519080 0.974860
vt 0.509990 0.973600
vt 0.601060 0.900970
vt 0.593470 0.896080
vt 0.604710 0.885960
vt 0.438610 0.873310
vt 0.419160 0.875600
vt 0.430100 0.862030
vt 0.448210 0.866910
vt 0.491560 0.890420
vt 0.493680 0.909670
vt 0.483070 0.900820
vt 0.545790 0.924610
vt 0.543730 0.939690
vt 0.537230 0.929280
vt 0.547730 0.978290
vt 0.537890 0.973220
vt 0.545400 0.971490
vt 0.457980 0.868190
vt 0.464370 0.885280
vt 0.455180 0.886410
vt 0.440090 0.920130
vt 0.427170 0.916580
vt 0.431590 0.905860
vt 0.495770 0.880030
vt 0.483380 0.873030
vt 0.494930 0.868710
vt 0.524120 0.871580
vt 0.516430 0.860740
vt 0.526950 0.861490
vt 0.588560 0.888690
vt 0.596370 0.887500
vt 0.556370 0.886270
vt 0.562840 0.874850
vt 0.567620 0.890090
vt 0.582960 0.869720
vt 0.594340 0.877460
vt 0.590510 0.878740
vt 0.583330 0.903930
vt 0.581320 0.895270
vt 0.574120 0.887440
vt 0.569290 0.871430
vt 0.576710 0.880290
vt 0.563270 0.963690
vt 0.446240 0.930540
vt 0.444030 0.951010
vt 0.435730 0.943080
vt 0.521790 0.979180
vt 0.511090 0.982710
vt 0.505580 0.975900
vt 0.456130 0.982090
vt 0.448850 0.971500
vt 0.453120 0.970960
vt 0.579670 0.944150
vt 0.570570 0.944950
vt 0.572260 0.939020
vt 0.555300 0.946610
vt 0.548940 0.930120
vt 0.558090 0.931990
vt 0.462410 0.836280
vt 0.470280 0.845390
vt 0.460970 0.844050
vt 0.505490 0.859030
vt 0.520490 0.875390
vt 0.513850 0.838790
vt 0.503480 0.837420
vt 0.513420 0.827890
vt 0.550200 0.854970
vt 0.544360 0.867970
vt 0.543340 0.861030
vt 0.530600 0.867810
vt 0.507010 0.904750
vt 0.510580 0.890780
vt 0.517100 0.899630
vt 0.565710 0.923480
vt 0.568720 0.914550
vt 0.573880 0.917620
vt 0.573410 0.922780
vt 0.581140 0.928730
vt 0.574580 0.930550
vt 0.459150 0.923200
vt 0.467090 0.937340
vt 0.457200 0.938610
vt 0.474700 0.979300
vt 0.466920 0.988560
vt 0.468820 0.975420
vt 0.465470 0.876340
vt 0.478370 0.898910
vt 0.476100 0.881880
vt 0.466010 0.887700
vt 0.468950 0.890090
vt 0.465480 0.901940
vt 0.472670 0.902600
vt 0.472020 0.921140
vt 0.544620 0.892710
vt 0.540570 0.871610
vt 0.534320 0.870080
vt 0.537700 0.865570
vt 0.441620 0.843380
vt 0.446620 0.829660
vt 0.452900 0.834200
vt 0.422400 0.855960
vt 0.421100 0.862720
vt 0.412350 0.869790
vt 0.479540 0.820510
vt 0.471510 0.827280
vt 0.473030 0.816810
vt 0.478970 0.831550
vt 0.487260 0.834690
vt 0.482530 0.836680
vt 0.550250 0.848230
vt 0.546100 0.852460
vt 0.541650 0.838700
vt 0.582390 0.936830
vt 0.470800 0.863100
vt 0.477490 0.855480
vt 0.478670 0.865800
vt 0.457000 0.851510
vt 0.454410 0.855250
vt 0.447340 0.849760
vt 0.507910 0.952960
vt 0.506700 0.965650
vt 0.518720 0.934920
vt 0.524990 0.913920
vt 0.534350 0.921200
vt 0.585370 0.918850
vt 0.591550 0.921250
vt 0.585550 0.926210
vt 0.529100 0.951680
vt 0.538060 0.946840
vt 0.541140 0.952910
vt 0.524830 0.946660
vt 0.522380 0.942740
vt 0.531410 0.934450
vt 0.451680 0.922420
vt 0.456380 0.900230
vt 0.498090 0.832970
vt 0.484490 0.825610
vt 0.473250 0.950300
vt 0.480260 0.953590
vt 0.469420 0.962820
vt 0.478940 0.917620
vt 0.460290 0.972590
vt 0.467830 0.816260
vt 0.463150 0.824220
vt 0.450520 0.824780
vt 0.425730 0.884620
vt 0.427900 0.893720
vt 0.412670 0.888050
vt 0.398040 0.895290
vt 0.403630 0.891880
vt 0.401780 0.904620
vt 0.400340 0.885890
vt 0.410320 0.868350
vt 0.398200 0.928550
vt 0.437650 0.929590
vt 0.424210 0.933420
vt 0.572710 0.895710
vt 0.576140 0.910040
vt 0.569380 0.900940
vt 0.562580 0.900940
vt 0.557200 0.891230
vt 0.564240 0.894530
vt 0.538630 0.918980
vt 0.533390 0.893670
vt 0.539460 0.906010
vt 0.539770 0.883930
vt 0.454610 0.828490
vt 0.471440 0.829570
vt 0.477990 0.985400
vt 0.544960 0.883490
vt 0.547100 0.879850
vt 0.551390 0.881200
vt 0.541830 0.982600
vt 0.524070 0.981140
vt 0.532180 0.975820
vt 0.545410 0.916860
vt 0.551690 0.916710
vt 0.438430 0.842080
vt 0.548060 0.943330
vt 0.556020 0.953590
vt 0.551740 0.960420
vt 0.427620 0.954410
vt 0.420289 0.962020
vt 0.418840 0.946470
vt 0.407850 0.933800
vt 0.404990 0.922080
vt 0.410490 0.938880
vt 0.404080 0.945315
vt 0.418060 0.918750
vt 0.412750 0.929930
vt 0.420220 0.907360
vt 0.416300 0.914390
vt 0.408960 0.914310
vt 0.498440 0.861850
vt 0.492670 0.850580
vt 0.502770 0.846590
vt 0.485780 0.860780
vt 0.483150 0.940220
vt 0.474500 0.933790
vt 0.493450 0.938760
vt 0.501270 0.943670
vt 0.492790 0.953590
vt 0.496530 0.984460
vt 0.493760 0.976930
vt 0.451940 0.870920
vt 0.443330 0.886960
vt 0.439280 0.879320
vt 0.445830 0.897520
vt 0.444490 0.916200
vt 0.436720 0.901580
vt 0.461830 0.894820
vt 0.455890 0.892560
vt 0.521480 0.959570
vt 0.529320 0.956520
vt 0.525110 0.961470
vt 0.513100 0.848470
vt 0.493900 0.842260
vt 0.562770 0.917570
vt 0.434110 0.893740
vt 0.516680 0.939320
vt 0.521170 0.945950
vt 0.516600 0.944600
vt 0.536320 0.956000
vt 0.456010 0.965370
vt 0.467110 0.965760
vt 0.482240 0.970350
vt 0.588770 0.885280
vt 0.583480 0.880740
vt 0.533140 0.957930
vt 0.535000 0.958380
vt 0.544210 0.957310
vt 0.534800 0.967010
vt 0.527840 0.971730
vt 0.525210 0.964590
vt 0.468130 0.823370
vt 0.460710 0.833020
vt 0.464660 0.827480
vt 0.569370 0.957970
vt 0.566500 0.953670
vt 0.573470 0.951660
vt 0.539200 0.893870
vt 0.535370 0.886360
vt 0.524350 0.879230
vt 0.515177 0.881343
vt 0.399620 0.937510
vt 0.516230 0.889820
vt 0.523890 0.899060
vt 0.532790 0.914340
vt 0.444370 0.895200
vt 0.430650 0.898580
vt 0.577400 0.874120
vt 0.577460 0.867600
vt 0.541720 0.851260
vt 0.519100 0.846210
vt 0.531790 0.860320
vt 0.507233 0.872713
vt 0.437000 0.857710
vt 0.436310 0.847240
vt 0.443130 0.851870
vt 0.449980 0.861500
vt 0.477820 0.834760
vt 0.487070 0.840780
vt 0.487100 0.849860
vt 0.469240 0.849580
vt 0.474100 0.852270
vt 0.470770 0.855380
vt 0.481370 0.839920
vt 0.480720 0.847420
vt 0.493440 0.835030
vt 0.493230 0.820430
vt 0.492550 0.817200
vt 0.537290 0.854430
vt 0.526230 0.844230
vt 0.524450 0.834780
vt 0.530080 0.841100
vt 0.520750 0.837040
vt 0.517480 0.829240
vt 0.488880 0.911770
vt 0.474000 0.894360
vt 0.482630 0.968200
vt 0.493500 0.965690
vt 0.497630 0.973310
vt 0.590020 0.904630
vt 0.588030 0.914020
vt 0.542080 0.902540
vt 0.551900 0.952180
vt 0.401380 0.919330
vt 0.416480 0.904350
vt 0.404660 0.913000
vt 0.480810 0.870730
vt 0.484680 0.866500
vt 0.469490 0.880080
vt 0.570480 0.862860
vt 0.561570 0.859810
vt 0.554430 0.858710
vt 0.557850 0.856240
vt 0.446570 0.965180
vt 0.437090 0.967510
vt 0.439070 0.963620
vt 0.433790 0.957430
vt 0.537240 0.942610
vt 0.428800 0.851230
vt 0.558130 0.921930
vt 0.567600 0.931420
vt 0.561840 0.866480
vt 0.549690 0.875880
vt 0.554090 0.870330
vt 0.425800 0.970060
vt 0.425080 0.973630
vt 0.487550 0.946290
vt 0.485550 0.955350
vt 0.485990 0.984460
vt 0.461590 0.986600
vt 0.525330 0.892460
vt 0.532800 0.882380
vt 0.529850 0.899220
vt 0.485520 0.855820
vt 0.566740 0.894050
vt 0.538110 0.875290
vt 0.489450 0.867100
vt 0.490960 0.860910
vt 0.490300 0.854820
vt 0.462840 0.897290
vt 0.526600 0.831100
vt 0.410250 0.878300
vt 0.474940 0.870450
vt 0.464520 0.862230
vt 0.456030 0.864460
vt 0.461410 0.856830
vt 0.464000 0.852540
vt 0.539240 0.844540
vt 0.557020 0.863700
vt 0.552970 0.862860
vt 0.510730 0.937720
vt 0.507730 0.931350
vt 0.516510 0.921680
vt 0.452940 0.837380
vt 0.480360 0.907640
vt 0.546070 0.960490
vt 0.561170 0.945290
vt 0.562040 0.940050
vt 0.558920 0.949660
vt 0.534400 0.969850
vt 0.548420 0.903830
vt 0.484930 0.818940
vt 0.570900 0.911390
vt 0.501400 0.886020
vt 0.502220 0.877980
vt 0.445550 0.959860
vt 0.481720 0.976920
vt 0.486050 0.977260
vt 0.509500 0.941880
vt 0.498360 0.954440
vt 0.480030 0.932590
vt 0.544580 0.948860
vt 0.446530 0.845060
vt 0.449050 0.842190
vt 0.524840 0.968250
vt 0.419340 0.970910
vt 0.490330 0.975150
vt 0.587170 0.940590
vt 0.590790 0.936910
vt 0.593210 0.933110
vt 0.486870 0.936890
vt 0.491580 0.919830
vt 0.482810 0.914170
vt 0.483380 0.906120
vt 0.497430 0.889670
vt 0.453860 0.897780
vt 0.597040 0.881600
vt 0.482880 0.928810
vt 0.506100 0.914430
vt 0.498100 0.916950
vt 0.504670 0.926610
vt 0.480030 0.853060
vt 0.553290 0.854910
vt 0.451060 0.895380
vt 0.447920 0.892960
vt 0.580310 0.913410
vt 0.577430 0.919510
vt 0.453570 0.945960
vt 0.508610 0.925150
vt 0.462790 0.975660
vt 0.513470 0.917020
vt 0.516710 0.907300
vt 0.562270 0.930220
vt 0.564980 0.942430
vt 0.569890 0.924520
vt 0.497510 0.842990
vt 0.502800 0.928050
vt 0.475070 0.876840
vt 0.555740 0.852360
vt 0.458730 0.839500
vt 0.453980 0.846490
vt 0.584740 0.912790
vt 0.588920 0.911020
vt 0.577670 0.892430
vt 0.575660 0.890020
vt 0.431550 0.856580
vt 0.594400 0.916670
vt 0.468920 0.922610
vt 0.417670 0.929190
vt 0.522460 0.888240
vt 0.566590 0.901810
vt 0.432760 0.965880
vt 0.430740 0.969720
vt 0.596830 0.913840
vt 0.525700 0.880850
vt 0.531460 0.872290
vt 0.534000 0.877020
vt 0.464400 0.912410
vt 0.489100 0.823210
vt 0.593060 0.900700
vt 0.554010 0.913830
vt 0.518160 0.833630
s 1
f 1/1/1 2/2/2 3/3/3
f 4/4/4 5/5/5 6/6/6
f 7/7/7 8/8/8 9/9/9
f 10/10/10 11/11/11 12/12/12
f 13/13/13 14/14/14 15/15/15
f 16/16/16 17/17/17 18/18/18
f 19/19/19 20/20/20 21/21/21
f 22/22/22 23/23/23 24/24/24
f 25/25/25 22/22/22 24/24/24
f 26/26/26 27/27/27 28/28/28
f 29/29/29 30/30/30 31/31/31
f 32/32/32 33/33/33 34/34/34
f 35/35/35 36/36/36 37/37/37
f 38/38/38 39/39/39 40/40/40
f 41/41/41 42/42/42 43/43/43
f 44/44/44 45/45/45 46/46/46
f 47/47/47 48/48/48 20/20/20
f 49/49/49 50/50/50 51/51/51
f 52/52/52 53/53/53 54/54/54
f 47/47/47 55/55/55 56/56/56
f 57/57/57 58/58/58 59/59/59
f 60/60/60 32/32/32 34/34/34
f 61/61/61 62/62/62 63/63/63
f 64/64/64 65/65/65 66/66/66
f 67/67/67 68/68/68 69/69/69
f 70/70/70 71/71/71 72/72/72
f 73/73/73 74/74/74 75/75/75
f 76/76/76 77/77/77 78/78/78
f 79/79/79 45/45/45 80/80/80
f 81/81/81 82/82/82 83/83/83
f 84/84/84 85/85/85 86/86/86
f 44/44/44 46/46/46 87/87/87
f 88/88/88 89/89/89 90/90/90
f 91/91/91 92/92/92 93/93/93
f 94/94/94 95/95/95 96/96/96
f 97/97/97 98/98/98 99/99/99
f 100/100/100 101/101/101 102/102/102
f 103/103/103 36/36/36 35/35/35
f 104/104/104 105/105/105 26/26/26
f 106/106/106 105/105/105 107/107/107
f 108/108/108 109/109/109 110/110/110
f 15/15/15 14/14/14 111/111/111
f 112/112/112 113/113/113 114/114/114
f 115/115/115 116/116/116 117/117/117
f 118/118/118 119/119/119 120/120/120
f 121/121/121 122/122/122 123/123/123
f 124/124/124 125/125/125 126/126/126
f 127/127/127 128/128/128 129/129/129
f 70/70/70 72/72/72 130/130/130
f 131/131/131 132/132/132 133/133/133
f 134/134/134 135/135/135 136/136/136
f 137/137/137 16/16/16 138/138/138
f 139/139/139 140/140/140 141/141/141
f 142/142/142 143/143/143 144/144/144
f 145/145/145 146/146/146 147/147/147
f 148/148/148 149/149/149 150/150/150
f 97/97/97 99/99/99 151/151/151
f 97/97/97 151/151/151 152/152/152
f 8/8/8 7/7/7 153/153/153
f 125/125/125 124/124/124 154/154/154
f 155/155/155 156/156/156 157/157/157
f 110/110/110 109/109/109 158/158/158
f 67/67/67 69/69/69 159/159/159
f 155/155/155 157/157/157 2/2/2
f 160/160/160 161/161/161 162/162/162
f 163/163/163 164/164/164 165/165/165
f 166/166/166 167/167/167 168/168/168
f 167/167/167 169/169/169 170/170/170
f 168/168/168 171/171/171 166/166/166
f 39/39/39 172/172/172 173/173/173
f 174/174/174 175/175/175 176/176/176
f 177/177/177 178/178/178 179/179/179
f 180/180/180 181/181/181 182/182/182
f 15/15/15 111/111/111 183/183/183
f 184/184/184 162/162/162 161/161/161
f 76/76/76 185/185/185 77/77/77
f 101/101/101 100/100/100 186/186/186
f 187/187/187 188/188/188 15/15/15
f 49/49/49 189/189/189 50/50/50
f 190/190/190 191/191/191 192/192/192
f 29/29/29 180/180/180 193/193/193
f 29/29/29 193/193/193 194/194/194
f 115/115/115 195/195/195 116/116/116
f 196/196/196 74/74/74 73/73/73
f 197/197/197 60/60/60 198/198/198
f 199/199/199 200/200/200 201/201/201
f 202/202/202 171/171/171 203/203/203
f 204/204/204 200/200/200 205/205/205
f 203/203/203 206/206/206 207/207/207
f 208/208/208 209/209/209 210/210/210
f 211/211/211 212/212/212 213/213/213
f 132/132/132 214/214/214 133/133/133
f 215/215/215 156/156/156 216/216/216
f 217/217/217 218/218/218 219/219/219
f 66/66/66 220/220/220 221/221/221
f 138/138/138 16/16/16 18/18/18
f 222/222/222 223/223/223 224/224/224
f 225/225/225 226/226/226 227/227/227
f 106/106/106 228/228/228 229/229/229
f 106/106/106 107/107/107 228/228/228
f 230/230/230 231/231/231 232/232/232
f 233/233/233 82/82/82 81/81/81
f 234/234/234 213/213/213 212/212/212
f 74/74/74 194/194/194 75/75/75
f 92/92/92 91/91/91 235/235/235
f 224/224/224 236/236/236 163/163/163
f 223/223/223 236/236/236 224/224/224
f 11/11/11 218/218/218 217/217/217
f 237/237/237 238/238/238 239/239/239
f 145/145/145 147/147/147 240/240/240
f 238/238/238 230/230/230 239/239/239
f 159/159/159 241/241/241 242/242/242
f 243/243/243 102/102/102 242/242/242
f 53/53/53 244/244/244 54/54/54
f 57/57/57 245/245/245 244/244/244
f 231/231/231 246/246/246 232/232/232
f 247/247/247 248/248/248 249/249/249
f 250/250/250 192/192/192 64/64/64
f 249/249/249 251/251/251 246/246/246
f 252/252/252 123/123/123 122/122/122
f 185/185/185 253/253/253 254/254/254
f 255/255/255 256/256/256 257/257/257
f 258/258/258 259/259/259 183/183/183
f 80/80/80 260/260/260 261/261/261
f 202/202/202 262/262/262 171/171/171
f 90/90/90 263/263/263 264/264/264
f 140/140/140 264/264/264 265/265/265
f 266/266/266 227/227/227 267/267/267
f 164/164/164 5/5/5 4/4/4
f 84/84/84 128/128/128 127/127/127
f 268/268/268 58/58/58 269/269/269
f 270/270/270 84/84/84 86/86/86
f 233/233/233 271/271/271 272/272/272
f 90/90/90 89/89/89 263/263/263
f 89/89/89 273/273/273 261/261/261
f 79/79/79 80/80/80 261/261/261
f 274/274/274 275/275/275 276/276/276
f 276/276/276 277/277/277 274/274/274
f 185/185/185 278/278/278 77/77/77
f 279/279/279 234/234/234 280/280/280
f 281/281/281 282/282/282 283/283/283
f 284/284/284 285/285/285 77/77/77
f 286/286/286 287/287/287 8/8/8
f 288/288/288 8/8/8 287/287/287
f 270/270/270 289/289/289 290/290/290
f 290/290/290 291/291/291 292/292/292
f 293/293/293 294/294/294 291/291/291
f 295/295/295 28/28/28 27/27/27
f 296/296/296 109/109/109 108/108/108
f 156/156/156 297/297/297 157/157/157
f 298/298/298 299/299/299 297/297/297
f 47/47/47 300/300/300 55/55/55
f 301/301/301 143/143/143 142/142/142
f 193/193/193 302/302/302 194/194/194
f 181/181/181 302/302/302 182/182/182
f 248/248/248 240/240/240 147/147/147
f 248/248/248 147/147/147 303/303/303
f 304/304/304 171/171/171 168/168/168
f 305/305/305 306/306/306 6/6/6
f 307/307/307 133/133/133 308/308/308
f 309/309/309 105/105/105 106/106/106
f 310/310/310 269/269/269 58/58/58
f 311/311/311 312/312/312 313/313/313
f 314/314/314 315/315/315 316/316/316
f 62/62/62 317/317/317 63/63/63
f 139/139/139 141/141/141 150/150/150
f 318/318/318 31/31/31 30/30/30
f 275/275/275 274/274/274 319/319/319
f 98/98/98 155/155/155 1/1/1
f 156/156/156 155/155/155 216/216/216
f 72/72/72 96/96/96 130/130/130
f 320/320/320 91/91/91 321/321/321
f 322/322/322 310/310/310 58/58/58
f 50/50/50 323/323/323 324/324/324
f 325/325/325 326/326/326 200/200/200
f 223/223/223 266/266/266 236/236/236
f 36/36/36 229/229/229 37/37/37
f 327/327/327 219/219/219 328/328/328
f 138/138/138 18/18/18 298/298/298
f 221/221/221 220/220/220 329/329/329
f 296/296/296 105/105/105 104/104/104
f 296/296/296 104/104/104 109/109/109
f 102/102/102 101/101/101 330/330/330
f 331/331/331 332/332/332 259/259/259
f 180/180/180 333/333/333 181/181/181
f 132/132/132 334/334/334 214/214/214
f 285/285/285 282/282/282 281/281/281
f 335/335/335 174/174/174 176/176/176
f 58/58/58 57/57/57 51/51/51
f 188/188/188 336/336/336 112/112/112
f 323/323/323 85/85/85 324/324/324
f 42/42/42 337/337/337 43/43/43
f 211/211/211 338/338/338 339/339/339
f 340/340/340 108/108/108 152/152/152
f 296/296/296 108/108/108 340/340/340
f 15/15/15 189/189/189 49/49/49
f 49/49/49 179/179/179 178/178/178
f 341/341/341 129/129/129 292/292/292
f 119/119/119 23/23/23 120/120/120
f 23/23/23 342/342/342 120/120/120
f 118/118/118 120/120/120 170/170/170
f 342/342/342 170/170/170 120/120/120
f 192/192/192 191/191/191 64/64/64
f 64/64/64 191/191/191 65/65/65
f 343/343/343 35/35/35 344/344/344
f 135/135/135 277/277/277 276/276/276
f 344/344/344 345/345/345 346/346/346
f 283/283/283 346/346/346 347/347/347
f 213/213/213 82/82/82 233/233/233
f 213/213/213 233/233/233 79/79/79
f 270/270/270 290/290/290 292/292/292
f 292/292/292 129/129/129 348/348/348
f 336/336/336 259/259/259 332/332/332
f 112/112/112 336/336/336 113/113/113
f 311/311/311 349/349/349 312/312/312
f 324/324/324 85/85/85 350/350/350
f 237/237/237 351/351/351 352/352/352
f 139/139/139 353/353/353 140/140/140
f 290/290/290 289/289/289 272/272/272
f 272/272/272 114/114/114 87/87/87
f 117/117/117 254/254/254 253/253/253
f 117/117/117 253/253/253 354/354/354
f 355/355/355 109/109/109 104/104/104
f 355/355/355 158/158/158 109/109/109
f 248/248/248 356/356/356 249/249/249
f 303/303/303 356/356/356 248/248/248
f 256/256/256 357/357/357 257/257/257
f 75/75/75 358/358/358 73/73/73
f 303/303/303 197/197/197 198/198/198
f 303/303/303 357/357/357 359/359/359
f 360/360/360 192/192/192 250/250/250
f 33/33/33 360/360/360 356/356/356
f 320/320/320 75/75/75 194/194/194
f 361/361/361 194/194/194 302/302/302
f 121/121/121 123/123/123 362/362/362
f 135/135/135 276/276/276 136/136/136
f 276/276/276 275/275/275 115/115/115
f 13/13/13 92/92/92 235/235/235
f 176/176/176 175/175/175 363/363/363
f 111/111/111 361/361/361 302/302/302
f 258/258/258 183/183/183 111/111/111
f 257/257/257 71/71/71 70/70/70
f 267/267/267 40/40/40 208/208/208
f 208/208/208 40/40/40 209/209/209
f 364/364/364 365/365/365 89/89/89
f 88/88/88 364/364/364 89/89/89
f 366/366/366 314/314/314 316/316/316
f 1/1/1 155/155/155 2/2/2
f 2/2/2 241/241/241 3/3/3
f 329/329/329 367/367/367 368/368/368
f 243/243/243 367/367/367 102/102/102
f 245/245/245 52/52/52 54/54/54
f 244/244/244 245/245/245 54/54/54
f 218/218/218 369/369/369 370/370/370
f 11/11/11 351/351/351 218/218/218
f 371/371/371 215/215/215 216/216/216
f 148/148/148 150/150/150 318/318/318
f 318/318/318 150/150/150 31/31/31
f 372/372/372 196/196/196 73/73/73
f 146/146/146 30/30/30 372/372/372
f 276/276/276 115/115/115 373/373/373
f 115/115/115 117/117/117 374/374/374
f 249/249/249 375/375/375 251/251/251
f 137/137/137 230/230/230 16/16/16
f 326/326/326 376/376/376 200/200/200
f 368/368/368 367/367/367 243/243/243
f 299/299/299 377/377/377 297/297/297
f 378/378/378 130/130/130 379/379/379
f 130/130/130 96/96/96 95/95/95
f 130/130/130 95/95/95 379/379/379
f 144/144/144 143/143/143 380/380/380
f 366/366/366 316/316/316 317/317/317
f 381/381/381 215/215/215 371/371/371
f 382/382/382 12/12/12 383/383/383
f 384/384/384 295/295/295 383/383/383
f 345/345/345 25/25/25 277/277/277
f 41/41/41 43/43/43 365/365/365
f 135/135/135 345/345/345 277/277/277
f 82/82/82 7/7/7 83/83/83
f 364/364/364 41/41/41 365/365/365
f 26/26/26 385/385/385 88/88/88
f 115/115/115 275/275/275 195/195/195
f 152/152/152 151/151/151 225/225/225
f 386/386/386 229/229/229 228/228/228
f 181/181/181 331/331/331 259/259/259
f 181/181/181 259/259/259 258/258/258
f 63/63/63 199/199/199 201/201/201
f 207/207/207 202/202/202 203/203/203
f 201/201/201 204/204/204 207/207/207
f 201/201/201 200/200/200 204/204/204
f 205/205/205 262/262/262 202/202/202
f 387/387/387 48/48/48 244/244/244
f 48/48/48 21/21/21 20/20/20
f 217/217/217 219/219/219 327/327/327
f 383/383/383 12/12/12 388/388/388
f 387/387/387 21/21/21 48/48/48
f 26/26/26 389/389/389 27/27/27
f 390/390/390 391/391/391 10/10/10
f 390/390/390 10/10/10 295/295/295
f 382/382/382 10/10/10 12/12/12
f 280/280/280 234/234/234 212/212/212
f 334/334/334 392/392/392 280/280/280
f 112/112/112 323/323/323 188/188/188
f 303/303/303 372/372/372 73/73/73
f 303/303/303 73/73/73 357/357/357
f 172/172/172 63/63/63 173/173/173
f 63/63/63 201/201/201 173/173/173
f 381/381/381 327/327/327 215/215/215
f 327/327/327 156/156/156 215/215/215
f 189/189/189 188/188/188 323/323/323
f 342/342/342 167/167/167 170/170/170
f 164/164/164 4/4/4 165/165/165
f 131/131/131 283/283/283 132/132/132
f 283/283/283 344/344/344 346/346/346
f 211/211/211 339/339/339 212/212/212
f 280/280/280 212/212/212 339/339/339
f 252/252/252 122/122/122 254/254/254
f 254/254/254 184/184/184 161/161/161
f 84/84/84 350/350/350 85/85/85
f 313/313/313 312/312/312 393/393/393
f 386/386/386 394/394/394 229/229/229
f 229/229/229 395/395/395 37/37/37
f 251/251/251 375/375/375 16/16/16
f 17/17/17 16/16/16 375/375/375
f 246/246/246 251/251/251 232/232/232
f 230/230/230 251/251/251 16/16/16
f 363/363/363 396/396/396 93/93/93
f 397/397/397 95/95/95 94/94/94
f 369/369/369 137/137/137 370/370/370
f 369/369/369 230/230/230 137/137/137
f 362/362/362 288/288/288 287/287/287
f 61/61/61 398/398/398 62/62/62
f 398/398/398 3/3/3 366/366/366
f 116/116/116 184/184/184 117/117/117
f 184/184/184 254/254/254 117/117/117
f 211/211/211 213/213/213 79/79/79
f 79/79/79 273/273/273 211/211/211
f 391/391/391 390/390/390 389/389/389
f 399/399/399 237/237/237 352/352/352
f 363/363/363 175/175/175 396/396/396
f 174/174/174 55/55/55 175/175/175
f 77/77/77 285/285/285 281/281/281
f 78/78/78 77/77/77 134/134/134
f 39/39/39 173/173/173 206/206/206
f 40/40/40 39/39/39 209/209/209
f 240/240/240 247/247/247 246/246/246
f 330/330/330 400/400/400 102/102/102
f 242/242/242 102/102/102 400/400/400
f 219/219/219 298/298/298 328/328/328
f 328/328/328 298/298/298 297/297/297
f 139/139/139 399/399/399 353/353/353
f 391/391/391 389/389/389 399/399/399
f 399/399/399 389/389/389 401/401/401
f 402/402/402 401/401/401 389/389/389
f 249/249/249 246/246/246 247/247/247
f 320/320/320 321/321/321 403/403/403
f 358/358/358 403/403/403 321/321/321
f 50/50/50 324/324/324 58/58/58
f 50/50/50 58/58/58 51/51/51
f 72/72/72 404/404/404 321/321/321
f 72/72/72 321/321/321 405/405/405
f 157/157/157 242/242/242 2/2/2
f 297/297/297 242/242/242 157/157/157
f 286/286/286 8/8/8 153/153/153
f 213/213/213 406/406/406 153/153/153
f 286/286/286 234/234/234 279/279/279
f 153/153/153 406/406/406 286/286/286
f 151/151/151 99/99/99 61/61/61
f 226/226/226 38/38/38 40/40/40
f 227/227/227 226/226/226 40/40/40
f 267/267/267 227/227/227 40/40/40
f 273/273/273 43/43/43 211/211/211
f 43/43/43 338/338/338 211/211/211
f 133/133/133 307/307/307 343/343/343
f 133/133/133 343/343/343 131/131/131
f 407/407/407 11/11/11 10/10/10
f 352/352/352 391/391/391 399/399/399
f 408/408/408 343/343/343 307/307/307
f 343/343/343 103/103/103 35/35/35
f 309/309/309 36/36/36 103/103/103
f 408/408/408 103/103/103 343/343/343
f 267/267/267 208/208/208 305/305/305
f 208/208/208 210/210/210 305/305/305
f 310/310/310 322/322/322 311/311/311
f 37/37/37 223/223/223 222/222/222
f 223/223/223 37/37/37 395/395/395
f 133/133/133 214/214/214 308/308/308
f 43/43/43 337/337/337 338/338/338
f 313/313/313 393/393/393 409/409/409
f 197/197/197 255/255/255 60/60/60
f 291/291/291 294/294/294 341/341/341
f 291/291/291 341/341/341 292/292/292
f 117/117/117 354/354/354 374/374/374
f 354/354/354 410/410/410 411/411/411
f 134/134/134 136/136/136 411/411/411
f 411/411/411 374/374/374 354/354/354
f 18/18/18 64/64/64 66/66/66
f 298/298/298 18/18/18 66/66/66
f 14/14/14 361/361/361 111/111/111
f 91/91/91 320/320/320 235/235/235
f 12/12/12 11/11/11 381/381/381
f 12/12/12 381/381/381 388/388/388
f 175/175/175 55/55/55 412/412/412
f 55/55/55 413/413/413 412/412/412
f 414/414/414 415/415/415 244/244/244
f 174/174/174 56/56/56 55/55/55
f 140/140/140 90/90/90 264/264/264
f 401/401/401 402/402/402 140/140/140
f 25/25/25 24/24/24 274/274/274
f 118/118/118 416/416/416 119/119/119
f 415/415/415 414/414/414 174/174/174
f 415/415/415 174/174/174 335/335/335
f 114/114/114 272/272/272 289/289/289
f 270/270/270 86/86/86 289/289/289
f 244/244/244 48/48/48 47/47/47
f 244/244/244 47/47/47 414/414/414
f 335/335/335 49/49/49 51/51/51
f 51/51/51 57/57/57 335/335/335
f 301/301/301 417/417/417 143/143/143
f 167/167/167 166/166/166 169/169/169
f 381/381/381 371/371/371 388/388/388
f 388/388/388 371/371/371 216/216/216
f 418/418/418 98/98/98 97/97/97
f 158/158/158 216/216/216 110/110/110
f 45/45/45 233/233/233 46/46/46
f 45/45/45 79/79/79 233/233/233
f 66/66/66 65/65/65 220/220/220
f 231/231/231 145/145/145 246/246/246
f 238/238/238 231/231/231 230/230/230
f 238/238/238 145/145/145 231/231/231
f 145/145/145 148/148/148 318/318/318
f 26/26/26 42/42/42 41/41/41
f 26/26/26 41/41/41 385/385/385
f 154/154/154 122/122/122 121/121/121
f 154/154/154 121/121/121 362/362/362
f 94/94/94 96/96/96 405/405/405
f 72/72/72 405/405/405 96/96/96
f 319/319/319 416/416/416 118/118/118
f 206/206/206 419/419/419 207/207/207
f 419/419/419 201/201/201 207/207/207
f 207/207/207 204/204/204 202/202/202
f 205/205/205 202/202/202 204/204/204
f 185/185/185 76/76/76 253/253/253
f 354/354/354 253/253/253 76/76/76
f 278/278/278 284/284/284 77/77/77
f 279/279/279 126/126/126 125/125/125
f 43/43/43 273/273/273 365/365/365
f 216/216/216 155/155/155 98/98/98
f 418/418/418 216/216/216 98/98/98
f 85/85/85 114/114/114 86/86/86
f 114/114/114 289/289/289 86/86/86
f 29/29/29 31/31/31 180/180/180
f 150/150/150 141/141/141 31/31/31
f 330/330/330 67/67/67 400/400/400
f 264/264/264 263/263/263 420/420/420
f 333/333/333 331/331/331 181/181/181
f 245/245/245 57/57/57 59/59/59
f 245/245/245 268/268/268 52/52/52
f 31/31/31 141/141/141 180/180/180
f 265/265/265 333/333/333 180/180/180
f 266/266/266 225/225/225 227/227/227
f 394/394/394 386/386/386 225/225/225
f 366/366/366 3/3/3 314/314/314
f 242/242/242 241/241/241 2/2/2
f 30/30/30 29/29/29 74/74/74
f 74/74/74 29/29/29 194/194/194
f 288/288/288 9/9/9 8/8/8
f 134/134/134 77/77/77 347/347/347
f 134/134/134 347/347/347 346/346/346
f 180/180/180 182/182/182 193/193/193
f 193/193/193 182/182/182 302/302/302
f 23/23/23 119/119/119 24/24/24
f 24/24/24 119/119/119 416/416/416
f 222/222/222 22/22/22 25/25/25
f 344/344/344 35/35/35 345/345/345
f 346/346/346 345/345/345 135/135/135
f 346/346/346 135/135/135 134/134/134
f 209/209/209 203/203/203 210/210/210
f 304/304/304 203/203/203 171/171/171
f 210/210/210 203/203/203 304/304/304
f 210/210/210 306/306/306 305/305/305
f 329/329/329 368/368/368 377/377/377
f 377/377/377 368/368/368 243/243/243
f 296/296/296 107/107/107 105/105/105
f 107/107/107 296/296/296 228/228/228
f 329/329/329 186/186/186 367/367/367
f 352/352/352 351/351/351 11/11/11
f 352/352/352 11/11/11 407/407/407
f 147/147/147 372/372/372 303/303/303
f 372/372/372 147/147/147 146/146/146
f 421/421/421 177/177/177 179/179/179
f 363/363/363 177/177/177 421/421/421
f 92/92/92 363/363/363 93/93/93
f 363/363/363 92/92/92 177/177/177
f 422/422/422 200/200/200 317/317/317
f 200/200/200 422/422/422 423/423/423
f 317/317/317 200/200/200 199/199/199
f 63/63/63 317/317/317 199/199/199
f 393/393/393 127/127/127 409/409/409
f 399/399/399 401/401/401 353/353/353
f 401/401/401 140/140/140 353/353/353
f 88/88/88 402/402/402 389/389/389
f 389/389/389 26/26/26 88/88/88
f 224/224/224 163/163/163 22/22/22
f 222/222/222 224/224/224 22/22/22
f 385/385/385 41/41/41 364/364/364
f 88/88/88 385/385/385 364/364/364
f 297/297/297 243/243/243 242/242/242
f 297/297/297 377/377/377 243/243/243
f 116/116/116 162/162/162 184/184/184
f 60/60/60 34/34/34 198/198/198
f 33/33/33 356/356/356 34/34/34
f 266/266/266 267/267/267 236/236/236
f 164/164/164 267/267/267 305/305/305
f 400/400/400 67/67/67 159/159/159
f 242/242/242 400/400/400 159/159/159
f 188/188/188 187/187/187 336/336/336
f 336/336/336 183/183/183 259/259/259
f 185/185/185 124/124/124 278/278/278
f 122/122/122 154/154/154 124/124/124
f 105/105/105 408/408/408 307/307/307
f 105/105/105 42/42/42 26/26/26
f 55/55/55 300/300/300 413/413/413
f 424/424/424 413/413/413 300/300/300
f 331/331/331 425/425/425 332/332/332
f 425/425/425 44/44/44 426/426/426
f 411/411/411 136/136/136 374/374/374
f 115/115/115 374/374/374 373/373/373
f 426/426/426 336/336/336 427/427/427
f 425/425/425 426/426/426 427/427/427
f 264/264/264 331/331/331 333/333/333
f 265/265/265 264/264/264 333/333/333
f 322/322/322 58/58/58 324/324/324
f 324/324/324 350/350/350 349/349/349
f 322/322/322 349/349/349 311/311/311
f 322/322/322 324/324/324 349/349/349
f 151/151/151 61/61/61 38/38/38
f 38/38/38 172/172/172 39/39/39
f 343/343/343 344/344/344 131/131/131
f 283/283/283 131/131/131 344/344/344
f 237/237/237 239/239/239 351/351/351
f 239/239/239 230/230/230 369/369/369
f 105/105/105 309/309/309 408/408/408
f 408/408/408 309/309/309 103/103/103
f 73/73/73 358/358/358 357/357/357
f 358/358/358 321/321/321 404/404/404
f 71/71/71 257/257/257 357/357/357
f 404/404/404 357/357/357 358/358/358
f 132/132/132 283/283/283 282/282/282
f 334/334/334 132/132/132 392/392/392
f 280/280/280 285/285/285 284/284/284
f 285/285/285 280/280/280 392/392/392
f 290/290/290 293/293/293 291/291/291
f 272/272/272 271/271/271 290/290/290
f 81/81/81 290/290/290 271/271/271
f 233/233/233 81/81/81 271/271/271
f 383/383/383 388/388/388 158/158/158
f 158/158/158 388/388/388 216/216/216
f 42/42/42 307/307/307 308/308/308
f 105/105/105 307/307/307 42/42/42
f 185/185/185 254/254/254 122/122/122
f 185/185/185 122/122/122 124/124/124
f 240/240/240 248/248/248 247/247/247
f 145/145/145 240/240/240 246/246/246
f 110/110/110 428/428/428 108/108/108
f 108/108/108 428/428/428 152/152/152
f 163/163/163 165/165/165 23/23/23
f 22/22/22 163/163/163 23/23/23
f 189/189/189 15/15/15 188/188/188
f 50/50/50 189/189/189 323/323/323
f 236/236/236 164/164/164 163/163/163
f 236/236/236 267/267/267 164/164/164
f 328/328/328 297/297/297 156/156/156
f 327/327/327 328/328/328 156/156/156
f 256/256/256 255/255/255 197/197/197
f 303/303/303 359/359/359 197/197/197
f 424/424/424 417/417/417 301/301/301
f 49/49/49 178/178/178 15/15/15
f 178/178/178 13/13/13 15/15/15
f 178/178/178 177/177/177 13/13/13
f 92/92/92 13/13/13 177/177/177
f 110/110/110 418/418/418 428/428/428
f 216/216/216 418/418/418 110/110/110
f 165/165/165 342/342/342 23/23/23
f 165/165/165 4/4/4 342/342/342
f 230/230/230 232/232/232 251/251/251
f 402/402/402 90/90/90 140/140/140
f 402/402/402 88/88/88 90/90/90
f 142/142/142 144/144/144 397/397/397
f 396/396/396 397/397/397 93/93/93
f 396/396/396 412/412/412 397/397/397
f 175/175/175 412/412/412 396/396/396
f 69/69/69 314/314/314 3/3/3
f 69/69/69 68/68/68 314/314/314
f 44/44/44 260/260/260 80/80/80
f 80/80/80 45/45/45 44/44/44
f 425/425/425 331/331/331 420/420/420
f 264/264/264 420/420/420 331/331/331
f 260/260/260 425/425/425 420/420/420
f 44/44/44 425/425/425 260/260/260
f 33/33/33 32/32/32 190/190/190
f 427/427/427 336/336/336 332/332/332
f 427/427/427 332/332/332 425/425/425
f 173/173/173 419/419/419 206/206/206
f 173/173/173 201/201/201 419/419/419
f 302/302/302 258/258/258 111/111/111
f 181/181/181 258/258/258 302/302/302
f 314/314/314 68/68/68 315/315/315
f 303/303/303 198/198/198 356/356/356
f 356/356/356 198/198/198 34/34/34
f 17/17/17 64/64/64 18/18/18
f 17/17/17 250/250/250 64/64/64
f 17/17/17 375/375/375 250/250/250
f 249/249/249 250/250/250 375/375/375
f 429/429/429 154/154/154 362/362/362
f 154/154/154 429/429/429 286/286/286
f 283/283/283 347/347/347 281/281/281
f 77/77/77 281/281/281 347/347/347
f 89/89/89 365/365/365 273/273/273
f 28/28/28 104/104/104 26/26/26
f 28/28/28 295/295/295 384/384/384
f 28/28/28 384/384/384 104/104/104
f 384/384/384 355/355/355 104/104/104
f 183/183/183 336/336/336 187/187/187
f 15/15/15 183/183/183 187/187/187
f 226/226/226 151/151/151 38/38/38
f 225/225/225 151/151/151 226/226/226
f 372/372/372 30/30/30 196/196/196
f 30/30/30 74/74/74 196/196/196
f 52/52/52 268/268/268 269/269/269
f 44/44/44 87/87/87 426/426/426
f 114/114/114 113/113/113 87/87/87
f 79/79/79 261/261/261 273/273/273
f 213/213/213 153/153/153 82/82/82
f 82/82/82 153/153/153 7/7/7
f 209/209/209 206/206/206 203/203/203
f 39/39/39 206/206/206 209/209/209
f 338/338/338 334/334/334 339/339/339
f 339/339/339 334/334/334 280/280/280
f 337/337/337 214/214/214 338/338/338
f 338/338/338 214/214/214 334/334/334
f 159/159/159 69/69/69 241/241/241
f 69/69/69 3/3/3 241/241/241
f 279/279/279 280/280/280 284/284/284
f 126/126/126 279/279/279 284/284/284
f 154/154/154 286/286/286 125/125/125
f 279/279/279 125/125/125 286/286/286
f 61/61/61 63/63/63 172/172/172
f 38/38/38 61/61/61 172/172/172
f 393/393/393 350/350/350 84/84/84
f 393/393/393 84/84/84 127/127/127
f 286/286/286 429/429/429 287/287/287
f 362/362/362 287/287/287 429/429/429
f 252/252/252 254/254/254 161/161/161
f 160/160/160 252/252/252 161/161/161
f 123/123/123 252/252/252 160/160/160
f 412/412/412 142/142/142 397/397/397
f 142/142/142 412/412/412 301/301/301
f 95/95/95 380/380/380 379/379/379
f 397/397/397 144/144/144 95/95/95
f 144/144/144 380/380/380 95/95/95
f 167/167/167 4/4/4 6/6/6
f 4/4/4 167/167/167 342/342/342
f 317/317/317 316/316/316 422/422/422
f 422/422/422 316/316/316 315/315/315
f 218/218/218 370/370/370 219/219/219
f 219/219/219 370/370/370 298/298/298
f 395/395/395 266/266/266 223/223/223
f 225/225/225 266/266/266 395/395/395
f 229/229/229 394/394/394 395/395/395
f 225/225/225 395/395/395 394/394/394
f 428/428/428 418/418/418 97/97/97
f 428/428/428 97/97/97 152/152/152
f 35/35/35 25/25/25 345/345/345
f 277/277/277 25/25/25 274/274/274
f 35/35/35 222/222/222 25/25/25
f 35/35/35 37/37/37 222/222/222
f 114/114/114 85/85/85 112/112/112
f 112/112/112 85/85/85 323/323/323
f 300/300/300 430/430/430 424/424/424
f 20/20/20 300/300/300 47/47/47
f 430/430/430 19/19/19 424/424/424
f 20/20/20 430/430/430 300/300/300
f 20/20/20 19/19/19 430/430/430
f 179/179/179 176/176/176 421/421/421
f 176/176/176 363/363/363 421/421/421
f 217/217/217 381/381/381 11/11/11
f 381/381/381 217/217/217 327/327/327
f 306/306/306 168/168/168 6/6/6
f 6/6/6 168/168/168 167/167/167
f 42/42/42 308/308/308 337/337/337
f 337/337/337 308/308/308 214/214/214
f 146/146/146 318/318/318 30/30/30
f 145/145/145 318/318/318 146/146/146
f 373/373/373 374/374/374 136/136/136
f 373/373/373 136/136/136 276/276/276
f 384/384/384 383/383/383 355/355/355
f 355/355/355 383/383/383 158/158/158
f 164/164/164 305/305/305 5/5/5
f 91/91/91 405/405/405 321/321/321
f 405/405/405 91/91/91 93/93/93
f 210/210/210 304/304/304 306/306/306
f 306/306/306 304/304/304 168/168/168
f 46/46/46 233/233/233 272/272/272
f 272/272/272 87/87/87 46/46/46
f 245/245/245 59/59/59 268/268/268
f 59/59/59 58/58/58 268/268/268
f 99/99/99 398/398/398 61/61/61
f 98/98/98 1/1/1 99/99/99
f 315/315/315 423/423/423 422/422/422
f 315/315/315 326/326/326 423/423/423
f 200/200/200 423/423/423 325/325/325
f 325/325/325 423/423/423 326/326/326
f 320/320/320 403/403/403 75/75/75
f 403/403/403 358/358/358 75/75/75
f 416/416/416 319/319/319 274/274/274
f 274/274/274 24/24/24 416/416/416
f 126/126/126 284/284/284 278/278/278
f 124/124/124 126/126/126 278/278/278
f 351/351/351 369/369/369 218/218/218
f 239/239/239 369/369/369 351/351/351
f 235/235/235 320/320/320 431/431/431
f 431/431/431 320/320/320 194/194/194
f 367/367/367 100/100/100 102/102/102
f 186/186/186 100/100/100 367/367/367
f 13/13/13 235/235/235 14/14/14
f 14/14/14 235/235/235 431/431/431
f 14/14/14 431/431/431 361/361/361
f 361/361/361 431/431/431 194/194/194
f 366/366/366 317/317/317 62/62/62
f 398/398/398 366/366/366 62/62/62
f 335/335/335 179/179/179 49/49/49
f 179/179/179 335/335/335 176/176/176
f 57/57/57 244/244/244 415/415/415
f 57/57/57 415/415/415 335/335/335
f 53/53/53 387/387/387 244/244/244
f 249/249/249 360/360/360 250/250/250
f 356/356/356 360/360/360 249/249/249
f 360/360/360 33/33/33 192/192/192
f 33/33/33 190/190/190 192/192/192
f 174/174/174 414/414/414 56/56/56
f 47/47/47 56/56/56 414/414/414
f 393/393/393 312/312/312 350/350/350
f 349/349/349 350/350/350 312/312/312
f 138/138/138 298/298/298 370/370/370
f 137/137/137 138/138/138 370/370/370
f 106/106/106 229/229/229 36/36/36
f 36/36/36 309/309/309 106/106/106
f 237/237/237 149/149/149 238/238/238
f 149/149/149 139/139/139 150/150/150
f 399/399/399 139/139/139 237/237/237
f 237/237/237 139/139/139 149/149/149
f 391/391/391 407/407/407 10/10/10
f 352/352/352 407/407/407 391/391/391
f 149/149/149 148/148/148 238/238/238
f 238/238/238 148/148/148 145/145/145
f 270/270/270 292/292/292 348/348/348
f 129/129/129 128/128/128 348/348/348
f 270/270/270 348/348/348 128/128/128
f 128/128/128 84/84/84 270/270/270
f 141/141/141 140/140/140 265/265/265
f 141/141/141 265/265/265 180/180/180
f 93/93/93 397/397/397 94/94/94
f 405/405/405 93/93/93 94/94/94
f 27/27/27 390/390/390 295/295/295
f 390/390/390 27/27/27 389/389/389
f 282/282/282 285/285/285 392/392/392
f 282/282/282 392/392/392 132/132/132
f 378/378/378 70/70/70 130/130/130
f 406/406/406 213/213/213 234/234/234
f 234/234/234 286/286/286 406/406/406
f 10/10/10 382/382/382 295/295/295
f 295/295/295 382/382/382 383/383/383
f 81/81/81 293/293/293 290/290/290
f 81/81/81 432/432/432 293/293/293
f 81/81/81 83/83/83 432/432/432
f 293/293/293 432/432/432 294/294/294
f 294/294/294 432/432/432 83/83/83
f 298/298/298 66/66/66 299/299/299
f 66/66/66 221/221/221 299/299/299
f 329/329/329 377/377/377 221/221/221
f 299/299/299 221/221/221 377/377/377
f 71/71/71 357/357/357 404/404/404
f 72/72/72 71/71/71 404/404/404
f 256/256/256 359/359/359 357/357/357
f 359/359/359 256/256/256 197/197/197
f 305/305/305 6/6/6 5/5/5
f 426/426/426 113/113/113 336/336/336
f 426/426/426 87/87/87 113/113/113
f 398/398/398 1/1/1 3/3/3
f 1/1/1 398/398/398 99/99/99
f 410/410/410 78/78/78 411/411/411
f 78/78/78 134/134/134 411/411/411
f 386/386/386 152/152/152 225/225/225
f 228/228/228 152/152/152 386/386/386
f 76/76/76 78/78/78 410/410/410
f 354/354/354 76/76/76 410/410/410
f 228/228/228 340/340/340 152/152/152
f 228/228/228 296/296/296 340/340/340
f 412/412/412 413/413/413 301/301/301
f 413/413/413 424/424/424 301/301/301
f 260/260/260 420/420/420 261/261/261
f 263/263/263 261/261/261 420/420/420
f 263/263/263 89/89/89 261/261/261
