# Blender 3.4.1
# www.blender.org
o rock_08_Mesh.009
v 0.123430 -0.009717 0.151023
v 0.176069 0.014479 0.154825
v 0.113599 0.036257 0.178063
v 0.135117 0.281571 0.066101
v 0.128700 0.238285 0.132812
v 0.198182 0.304147 0.032047
v -0.065225 0.030308 0.153181
v -0.092769 0.057473 0.089826
v -0.091080 -0.008134 0.120554
v 0.179134 0.253080 0.130379
v 0.194453 0.280229 0.080665
v 0.050897 0.124763 0.206687
v 0.077958 0.073607 0.197461
v 0.121665 0.104199 0.208174
v 0.264913 0.231238 0.057813
v 0.263954 0.308754 0.011182
v 0.270597 0.266369 0.090579
v -0.170486 0.087551 0.048350
v -0.200166 0.105007 0.040531
v -0.210638 0.073643 0.046612
v 0.183459 -0.102222 -0.030853
v 0.193813 -0.078273 -0.026369
v 0.194837 -0.092504 0.024845
v -0.101882 -0.319365 -0.016991
v -0.086655 -0.311498 -0.048504
v -0.064441 -0.319836 -0.035105
v 0.088123 -0.065730 0.108408
v 0.058407 -0.039587 0.056110
v 0.060029 -0.083450 0.078092
v -0.229878 -0.083550 0.002664
v -0.203944 -0.113874 0.015473
v -0.200987 -0.082650 0.021324
v -0.058458 0.239879 -0.033629
v -0.056194 0.239298 0.046335
v -0.042434 0.249216 -0.029987
v 0.006584 -0.293714 0.010482
v 0.006172 -0.248105 0.041087
v 0.037767 -0.252514 0.084532
v -0.050502 -0.178682 0.137649
v -0.018083 -0.130070 0.135787
v -0.059260 -0.113785 0.093249
v 0.052686 -0.296871 -0.048497
v 0.090978 -0.261301 -0.047740
v 0.088408 -0.270222 -0.037082
v 0.268319 0.154790 0.079981
v 0.284297 0.200414 0.136216
v 0.277634 0.129292 0.140229
v 0.141047 -0.003371 0.141297
v 0.085167 -0.028033 0.138995
v 0.081154 -0.027126 0.125188
v 0.185997 0.061118 0.012930
v 0.230884 0.077482 -0.000713
v 0.243633 0.078240 0.039130
v -0.123211 0.020086 0.072165
v -0.099259 -0.035391 0.109611
v -0.047974 -0.024892 0.077982
v -0.021659 -0.042882 0.097756
v 0.110316 -0.133905 0.069492
v 0.065633 -0.128020 0.046524
v 0.085463 -0.160919 0.055540
v 0.032540 -0.254888 -0.009181
v 0.065647 -0.255459 -0.026045
v 0.057697 -0.237164 -0.001566
v -0.028332 -0.173026 0.144706
v -0.015710 -0.274379 0.125854
v -0.108135 -0.315625 0.002345
v -0.035291 -0.314679 0.044621
v -0.136652 -0.267732 0.080971
v -0.118689 -0.284185 0.078102
v -0.106204 -0.263321 0.100421
v -0.084204 -0.201355 0.120248
v -0.102032 -0.133968 0.054709
v -0.106359 -0.189096 0.087688
v -0.254173 -0.122262 -0.029452
v -0.173381 -0.081566 0.011458
v -0.169660 -0.113520 0.018727
v -0.140265 -0.112895 0.008849
v -0.076450 -0.007082 0.056920
v 0.018338 -0.138750 0.099500
v -0.002790 -0.105813 0.100738
v 0.014966 -0.100818 0.128228
v 0.019626 -0.146738 0.108363
v 0.011537 -0.115001 0.139642
v 0.002455 -0.187083 0.141729
v 0.082740 -0.087344 0.093659
v 0.057235 -0.107694 0.048891
v 0.096315 -0.114146 0.074228
v 0.176261 -0.137523 0.002707
v 0.197714 -0.110923 0.014174
v -0.101826 -0.093560 0.044462
v -0.083857 -0.057936 0.049991
v -0.116380 -0.051037 0.063392
v 0.025444 -0.167950 0.063775
v 0.062415 -0.151315 0.047764
v 0.029307 -0.153475 0.058867
v 0.247084 0.298020 0.055972
v 0.261200 0.285093 0.091833
v 0.181040 0.306357 -0.008602
v 0.138965 0.281878 -0.038386
v 0.134348 0.299094 -0.005476
v -0.027446 0.228978 0.105115
v -0.004199 0.251458 0.080756
v -0.060119 0.145511 0.102902
v -0.037760 0.143620 0.150397
v -0.055243 0.182548 0.089052
v -0.039343 0.207176 0.133246
v -0.048516 0.219519 0.099170
v 0.004634 0.130076 0.194860
v 0.075683 0.155703 0.194778
v 0.003053 0.186145 0.187289
v 0.205527 -0.115971 0.082123
v 0.154852 -0.116917 0.097445
v 0.198342 -0.130862 0.060164
v 0.113234 -0.054613 0.105588
v 0.145940 -0.033922 0.106044
v 0.126732 -0.031937 0.084096
v 0.032931 -0.033366 0.088333
v 0.047071 -0.017430 0.069874
v 0.032877 -0.038195 0.125164
v 0.047289 -0.016736 0.062919
v 0.082994 -0.055633 0.100264
v 0.107861 0.002702 0.096367
v 0.140245 0.022331 0.065741
v 0.169806 0.029273 0.106615
v 0.060956 -0.045125 0.052205
v -0.256031 -0.311149 -0.049576
v -0.233097 -0.293033 -0.055272
v -0.199109 -0.277173 -0.028135
v -0.140616 -0.253647 0.005577
v -0.131250 -0.300296 0.042067
v -0.142305 -0.270618 0.053514
v -0.105612 -0.287131 -0.049935
v -0.122651 -0.308857 -0.018307
v -0.137749 -0.267080 -0.008485
v -0.072901 -0.052783 0.126458
v 0.011814 -0.043166 0.095817
v -0.003802 -0.054175 0.122269
v -0.059940 -0.021834 0.145111
v -0.005390 -0.047768 0.129822
v -0.052487 0.015664 0.165379
v 0.001499 -0.315849 -0.055155
v 0.006108 -0.268452 -0.008391
v 0.247082 0.242292 -0.069863
v 0.254423 0.277906 -0.077584
v 0.262938 0.258395 -0.044272
v 0.195811 0.063852 -0.008411
v 0.238124 0.063357 -0.034958
v 0.058407 -0.039587 0.056110
v 0.068476 -0.028228 0.058777
v 0.080327 -0.008645 0.087383
v 0.098733 -0.032338 0.062427
v 0.083877 -0.054032 0.071111
v 0.113571 -0.022031 0.035624
v 0.144867 -0.030731 0.073708
v 0.139054 -0.029624 0.027346
v 0.281807 0.215537 0.093335
v 0.275274 0.247593 0.113197
v 0.086362 0.192254 0.193808
v 0.133470 0.157278 0.213413
v 0.151255 0.185427 0.210097
v -0.109441 -0.272099 -0.052336
v -0.274917 -0.218547 0.007246
v -0.181800 -0.209209 -0.003582
v -0.228624 -0.198770 0.001300
v -0.281891 -0.232336 0.012426
v -0.272013 -0.296711 -0.030706
v -0.232851 -0.240778 0.018688
v -0.274311 -0.283552 -0.060006
v -0.283092 -0.238083 -0.021136
v -0.283300 -0.203234 -0.050981
v -0.279197 -0.296002 -0.039993
v -0.263177 -0.300783 -0.059414
v 0.112395 -0.159200 0.068606
v 0.111684 -0.201580 0.045312
v 0.164010 -0.221249 0.032731
v 0.183638 -0.195460 0.027350
v 0.169753 -0.189832 -0.037905
v 0.149157 -0.170797 -0.023526
v 0.175976 -0.058771 0.026089
v 0.176892 -0.047536 0.057878
v 0.142678 -0.082179 0.119321
v 0.177987 -0.097802 0.094522
v 0.153236 -0.065304 0.125221
v -0.133988 -0.091294 0.012191
v -0.102030 -0.024131 0.111351
v -0.116322 -0.009710 0.079072
v -0.240599 0.095281 0.030744
v -0.213204 0.118934 0.026161
v -0.244695 0.112478 -0.016075
v -0.200271 0.064605 0.048793
v -0.193704 0.039627 0.019339
v -0.174241 0.042971 0.026460
v -0.271735 0.018856 -0.013304
v -0.271041 0.063747 -0.029472
v -0.277988 0.039633 -0.041034
v -0.264863 0.086815 0.018683
v -0.263579 0.040940 0.006370
v -0.162806 -0.024995 0.042072
v -0.168755 -0.050576 0.033267
v -0.164989 -0.057880 0.061916
v -0.201230 -0.024844 0.011878
v -0.174324 -0.045673 0.012682
v -0.175544 -0.013329 0.025351
v 0.268336 0.106223 -0.051559
v 0.269705 0.099857 -0.020606
v 0.269387 0.082851 -0.043652
v 0.287388 0.150515 -0.044507
v 0.276096 0.175613 -0.007483
v 0.283986 0.133330 -0.021991
v 0.289965 0.118934 0.032538
v 0.273226 0.121178 0.084770
v 0.286926 0.092386 0.083639
v 0.280278 0.172996 -0.046629
v 0.259008 0.205292 -0.029802
v 0.103798 0.030806 -0.027007
v 0.074497 0.008793 -0.030677
v 0.071678 0.011994 -0.032896
v -0.138617 -0.198556 0.061094
v -0.149511 -0.233611 0.059502
v -0.153426 -0.226978 0.087345
v -0.174586 -0.184699 -0.004487
v -0.088594 -0.222659 0.122191
v -0.135768 -0.211531 0.090188
v -0.155172 -0.249144 0.083970
v -0.084565 -0.251121 0.122276
v 0.107349 0.020283 0.003819
v 0.092977 0.007249 0.053047
v 0.090373 0.010588 0.017503
v 0.101574 -0.001632 -0.017225
v 0.124018 -0.003087 -0.031108
v -0.040381 -0.109513 0.030862
v -0.044846 -0.098298 0.092146
v -0.032340 -0.124536 0.049837
v 0.022910 -0.064844 0.021958
v -0.004870 -0.067202 0.025330
v -0.007428 -0.079078 0.046647
v 0.007952 -0.039992 0.073919
v -0.011740 -0.032602 0.056159
v 0.020589 -0.052661 0.036670
v -0.039284 -0.012956 0.052004
v -0.042935 -0.028503 0.038876
v 0.022451 -0.036186 0.027931
v 0.036348 -0.170507 0.063181
v 0.061624 -0.175968 0.055358
v 0.043584 -0.205579 0.039111
v -0.141417 -0.092455 0.065483
v -0.159723 -0.035561 0.060083
v -0.140983 -0.008761 0.049376
v 0.120890 -0.014062 -0.004493
v 0.157735 -0.013761 -0.022977
v -0.192692 0.145584 -0.030749
v -0.217606 0.130078 -0.019959
v -0.180942 0.142783 0.038704
v -0.045762 0.052273 0.166825
v -0.067987 0.099817 0.098218
v -0.113847 0.151297 0.012158
v -0.120449 0.182780 -0.044397
v -0.141707 0.164709 -0.039181
v -0.001709 0.041545 0.176431
v 0.035650 0.001174 0.160419
v 0.023850 0.080702 0.195636
v -0.041550 0.108937 0.148857
v 0.168025 -0.195014 0.040884
v 0.146317 -0.147436 0.045122
v 0.157222 -0.130192 0.064813
v 0.178268 -0.172032 -0.040331
v 0.017184 -0.293660 0.089551
v 0.020532 -0.183253 0.115655
v -0.008835 -0.183348 0.149081
v -0.014942 -0.257093 0.138453
v -0.000201 -0.262999 0.136853
v 0.000215 -0.227282 0.144584
v 0.024754 -0.086344 0.076265
v -0.004965 -0.110320 0.047668
v 0.018711 -0.108955 0.037103
v -0.073641 -0.151454 0.100523
v -0.083851 -0.112570 0.059777
v -0.085831 -0.138319 0.075364
v -0.119762 -0.102415 0.031756
v 0.082752 0.031792 0.174015
v 0.249013 0.081559 -0.016750
v 0.258710 0.066576 -0.039804
v 0.278724 0.081632 0.061322
v 0.258481 0.088440 0.005362
v 0.282071 0.094290 0.017358
v 0.084368 -0.021851 0.111044
v 0.065912 -0.013362 0.080704
v 0.122820 -0.239324 -0.028816
v 0.174090 -0.218551 -0.030654
v 0.136537 -0.219920 0.020560
v 0.066164 -0.274274 -0.025150
v -0.021402 -0.300365 -0.027135
v -0.029659 -0.298928 -0.031946
v -0.003492 -0.310171 -0.057664
v -0.022550 -0.318667 -0.007877
v -0.004534 -0.319681 -0.008176
v 0.015375 -0.315398 0.020939
v 0.247440 0.167031 0.252197
v 0.287641 0.130968 0.233611
v 0.286472 0.193620 0.258915
v 0.225080 0.124416 0.236179
v 0.286386 0.097090 0.208677
v -0.244488 0.044733 0.019714
v 0.178657 -0.143051 0.037722
v 0.169502 -0.162864 0.034999
v -0.139035 -0.190373 0.041224
v -0.134942 -0.212805 0.025247
v -0.232465 -0.160932 -0.024753
v -0.203202 -0.138292 0.012394
v -0.137284 -0.172198 0.040494
v -0.128282 -0.146217 0.035943
v -0.153738 -0.136199 0.020016
v -0.120965 -0.189377 -0.007150
v -0.151552 -0.162167 0.012973
v 0.221859 0.072646 0.193543
v 0.194427 0.185479 0.223857
v 0.190906 0.118995 0.222550
v 0.254759 0.193973 0.258175
v 0.133247 0.141697 0.216020
v 0.183725 -0.056261 -0.022825
v 0.156756 -0.043679 0.027012
v 0.182151 -0.038235 -0.021825
v 0.087083 -0.017130 0.044737
v 0.079778 -0.003676 0.067170
v 0.053086 -0.043004 0.064739
v -0.153361 0.034569 0.024406
v -0.189937 0.015900 0.019388
v -0.138184 0.014723 0.037648
v -0.137447 0.089953 0.039216
v -0.127247 0.134892 0.008598
v -0.171742 0.118746 0.045258
v -0.163668 0.141012 -0.017534
v -0.005626 0.205673 0.166753
v 0.062276 0.227739 0.144251
v -0.274644 -0.069430 -0.016255
v -0.253351 -0.023765 -0.033147
v -0.293984 -0.074256 -0.041919
v -0.223519 -0.059809 -0.011032
v -0.191301 -0.047741 0.007821
v -0.241759 -0.030214 -0.009939
v -0.020854 -0.047934 0.027883
v 0.010955 -0.050544 0.024612
v -0.006568 -0.034709 0.040871
v 0.203958 0.309885 -0.044219
v 0.223658 0.312318 -0.057096
v 0.230641 0.313798 -0.064635
v 0.051554 0.273304 0.059452
v 0.017536 0.263368 0.063585
v 0.092579 0.301639 -0.063929
v 0.073222 0.314924 -0.051012
v 0.103822 0.298508 -0.010731
v -0.167602 -0.244763 -0.048497
v -0.022612 -0.075919 0.037156
v -0.044383 -0.086540 0.036666
v 0.277510 0.133559 0.032517
v 0.274179 0.164456 0.044045
v 0.272416 0.194161 0.072985
v -0.254668 -0.182336 -0.039910
v -0.276564 -0.159906 -0.049087
v -0.295360 -0.088026 -0.042528
v -0.274549 -0.121169 -0.046780
v -0.270283 -0.030966 -0.043272
v -0.272868 -0.031713 -0.050107
v 0.123687 -0.080738 0.119425
v 0.127289 -0.066029 0.117877
v 0.132073 -0.114342 0.089857
v 0.034859 0.293184 -0.041024
v 0.067592 0.305756 -0.045704
v 0.166400 -0.214124 -0.046291
v 0.216101 0.240375 0.165792
v 0.273057 0.232921 0.189765
v 0.263693 0.253075 0.151110
v 0.287939 0.174653 0.188945
v 0.289039 0.232708 0.168463
v 0.285993 0.205586 0.207715
v 0.173005 0.035930 0.173375
v 0.282684 0.106585 0.154099
v 0.180039 0.014799 0.142215
v 0.204597 0.037319 0.112876
v 0.214576 0.025813 0.156676
v 0.219228 -0.110929 0.075777
v 0.209688 -0.116935 0.053053
v 0.072669 0.004814 -0.037213
v 0.065623 0.013127 -0.041752
v 0.154423 0.049733 -0.050572
v 0.097574 0.053413 -0.059797
v 0.171522 0.041275 -0.049065
v 0.024287 -0.196496 0.054919
v -0.012294 -0.142940 0.066102
v 0.032059 -0.161387 0.091981
v 0.010023 -0.153775 0.063509
v 0.290346 0.067884 0.119278
v 0.287563 0.068072 0.170592
v 0.281052 0.047267 0.172481
v 0.267321 0.038017 0.171025
v 0.265031 0.075392 0.193328
v -0.151246 -0.055316 0.066329
v -0.162613 -0.085184 0.036162
v -0.163941 -0.074854 0.058915
v -0.172545 -0.064717 0.018437
v -0.268507 0.091971 -0.019121
v 0.267923 0.266234 -0.022199
v 0.270504 0.300913 -0.032396
v 0.163593 -0.050425 0.124063
v 0.181015 -0.074510 0.091145
v 0.186631 -0.057195 0.082191
v 0.138142 0.296893 0.020191
v 0.084970 0.294360 0.008297
v 0.174709 0.292863 -0.078864
v 0.169017 0.284643 -0.063539
v 0.110726 0.283230 -0.051216
v 0.147730 0.298969 -0.081797
v -0.248966 -0.063443 -0.005244
v -0.232051 0.030253 0.023567
v 0.018859 -0.038804 0.082187
v 0.030999 -0.065185 0.075566
v 0.038925 -0.036091 0.058747
v -0.156372 0.004498 0.031330
v 0.085067 -0.190111 0.042732
v 0.065059 -0.219074 0.018976
v -0.002543 -0.096920 0.057654
v 0.012266 -0.133883 0.054947
v 0.092835 0.035340 -0.048013
v 0.020818 -0.056378 0.065839
v 0.010166 -0.081290 0.047311
v -0.131493 -0.306868 0.009257
v -0.081625 -0.279588 0.095538
v -0.194745 -0.278676 -0.001518
v -0.204458 -0.272548 0.008785
v -0.239697 -0.299208 -0.032577
v -0.198347 -0.225673 0.008722
v -0.181794 -0.258983 0.005201
v -0.146620 -0.248589 0.042465
v 0.239012 0.315312 0.006206
v -0.126156 -0.006866 0.059235
v -0.100499 -0.037902 0.057829
v 0.202122 0.296869 -0.074740
v -0.039801 -0.260884 0.134405
v -0.071820 -0.229493 0.131627
v 0.164629 -0.131814 -0.028769
v 0.183896 -0.132463 -0.039648
v -0.281391 -0.198032 -0.045488
v -0.059349 -0.117858 0.023806
v -0.047847 -0.120334 0.030813
v -0.066957 -0.080695 0.044848
v 0.182885 -0.205802 0.018559
v -0.202668 -0.166275 0.003919
v -0.167943 -0.149783 0.016899
v 0.241646 0.232022 -0.091900
v 0.241778 0.254009 -0.093668
v 0.292070 0.165719 -0.065573
v 0.275700 0.189523 -0.067288
v 0.102163 0.208635 0.184746
v 0.173405 0.202344 0.216185
v 0.183438 0.215117 0.205259
v 0.233695 0.209894 0.234166
v -0.068617 0.005335 0.151560
v -0.086872 -0.039798 0.126734
v 0.272156 0.228807 0.010059
v 0.272787 0.195168 0.023886
v 0.017031 -0.290216 -0.041553
v 0.017120 -0.311098 -0.052770
v -0.106671 -0.018523 0.058200
v -0.133496 -0.026116 0.065493
v -0.127558 -0.220294 -0.036835
v -0.159425 -0.250622 -0.016712
v -0.144196 -0.239520 -0.053227
v -0.146340 -0.212165 -0.033077
v -0.124292 -0.209885 -0.020744
v -0.137602 -0.221336 -0.044695
v 0.170510 0.038790 0.047269
v 0.087791 0.016246 -0.030135
v 0.129563 0.038304 -0.009815
v 0.114651 0.025533 -0.003109
v 0.131170 0.052864 -0.050214
v 0.102962 0.051084 -0.066069
v 0.151603 0.045830 -0.007562
v 0.140317 0.049142 -0.029840
v 0.163973 0.055526 -0.031609
v 0.150236 0.075351 0.196503
v 0.000047 -0.125083 0.142665
v 0.237196 0.045568 0.133171
v 0.268885 0.064752 0.104785
v 0.282984 0.096474 0.130400
v 0.291716 0.077977 0.120113
v 0.227712 0.058237 0.077115
v 0.028812 -0.284206 0.094810
v 0.027028 -0.214520 0.109807
v 0.030546 -0.296156 0.068569
v -0.016102 0.125122 0.188978
v -0.031924 0.099449 0.170890
v -0.034948 0.062954 0.172866
v -0.017866 0.067560 0.180807
v -0.081692 0.190919 0.040274
v -0.062075 0.207554 0.044573
v -0.071082 0.217595 -0.038838
v -0.094090 0.163022 0.034976
v -0.106933 0.208097 -0.046524
v 0.053120 -0.027304 0.133394
v -0.016984 0.017279 0.165124
v 0.014072 -0.021077 0.141825
v 0.068015 -0.011649 0.152061
v -0.014221 0.089145 0.184233
v 0.008115 -0.206313 0.072841
v 0.031719 -0.175035 0.090626
v 0.028892 -0.204286 0.099570
v 0.032722 -0.241352 0.076435
v 0.030757 -0.258750 0.095963
v -0.161365 0.149771 -0.036870
v -0.143393 0.145489 -0.015503
v -0.128566 -0.192323 0.072363
v -0.254485 -0.161065 -0.045377
v 0.045377 -0.023440 0.053094
v 0.295360 0.138827 0.225657
v 0.036448 0.207134 0.178408
v -0.076797 -0.268158 0.116220
v -0.034630 -0.271533 0.126701
v 0.277368 0.114588 -0.027336
v 0.289747 0.106780 0.029074
v 0.116878 0.275274 -0.080136
v 0.122799 0.290110 -0.086853
v 0.097929 0.293681 -0.079746
v -0.083409 -0.111997 0.019259
v 0.075934 0.023733 -0.048103
v 0.083668 0.046188 -0.053728
v -0.137349 0.038335 0.045976
v -0.155131 0.058006 0.033916
v -0.119988 0.079596 0.061280
v 0.001036 -0.289203 -0.033678
v -0.009217 -0.288806 -0.004926
v -0.005917 -0.272464 -0.012245
v 0.060171 -0.034216 0.114166
v 0.200243 -0.085013 0.081210
v -0.241497 -0.005192 -0.019688
v -0.266667 -0.002956 -0.035037
v -0.269168 -0.008411 -0.046599
v 0.154453 -0.153555 -0.013237
v 0.273167 0.053931 0.144081
v 0.225551 0.036034 0.172872
v 0.031710 -0.132209 0.038039
v 0.171474 -0.041403 0.099985
v 0.147197 -0.044439 0.120344
v -0.111739 -0.127157 0.036854
v -0.249498 0.020899 0.015213
v 0.038094 -0.111414 0.033664
v -0.149447 -0.194985 -0.015840
v -0.163689 -0.204927 -0.024022
v -0.138279 0.070522 0.042233
v -0.162328 0.073124 0.046473
v -0.042408 -0.051029 0.032643
v 0.187297 -0.203849 -0.043676
v -0.012879 -0.031374 0.077628
v -0.023974 -0.015981 0.055963
v -0.026280 -0.034739 0.045944
v -0.271283 -0.311131 -0.050533
v -0.153851 -0.093296 0.061810
v -0.122640 -0.103413 0.014737
v -0.020239 -0.092933 0.105374
v 0.093679 -0.240780 -0.015469
v 0.101614 -0.230772 0.019677
v 0.117792 -0.225876 -0.055108
v 0.103022 -0.253750 -0.031982
v 0.119309 -0.234303 -0.001871
v 0.141334 0.270718 -0.067459
v 0.279504 0.253781 0.150399
v 0.169792 -0.006140 -0.034291
v -0.192681 -0.246795 0.017172
v -0.136819 -0.226601 -0.046786
v -0.002359 -0.100815 0.134000
v 0.182684 0.042637 0.087362
v 0.270373 0.305128 -0.062537
v 0.029407 -0.242756 0.014833
v 0.013532 -0.254273 0.003539
v 0.003567 -0.227349 0.055790
v 0.027881 -0.225483 0.035122
v 0.020762 -0.213586 0.049403
v 0.004985 -0.229010 0.044357
v 0.278967 0.208979 0.257946
v -0.026312 0.168830 0.178491
v -0.018253 0.190925 0.181118
v 0.288665 0.153634 -0.062638
v 0.287601 0.142406 -0.053570
v -0.058927 -0.096162 0.038698
v 0.074314 -0.002843 0.013928
v 0.095585 -0.014281 0.019530
v -0.023502 -0.132245 0.062856
v 0.252529 0.319836 -0.053708
v 0.268119 0.316438 -0.052709
v -0.099827 -0.299734 -0.046208
v -0.094395 0.091907 0.077036
v -0.226299 -0.179013 -0.021260
v -0.137447 -0.228922 0.012989
v -0.262716 0.017247 0.008926
v 0.115574 0.045006 -0.040219
v 0.028176 -0.053995 0.046540
v 0.131936 -0.131119 0.061178
v 0.264864 0.223890 0.219923
v -0.107235 -0.033451 0.093831
v -0.143379 0.126068 0.011451
v 0.034638 -0.272269 -0.020879
v 0.140616 0.030514 0.020580
v 0.176538 -0.149734 -0.039645
v -0.097430 -0.234822 0.121015
v -0.210975 -0.008203 -0.002780
v 0.256162 0.271978 0.115972
v 0.271021 0.270528 0.103407
v -0.180394 -0.263482 -0.023565
v -0.001760 -0.127919 0.053642
v 0.029266 -0.165344 0.102190
v 0.204434 0.035350 -0.050795
v -0.018053 -0.286345 -0.020272
v 0.075250 -0.004775 0.036730
v 0.246863 0.219245 -0.070941
v -0.035346 0.041188 0.174817
v -0.116508 -0.130568 0.007847
v -0.115325 -0.123909 0.027208
v 0.283612 0.076476 0.190512
v 0.099367 0.202281 0.195125
v -0.128940 -0.114439 0.013269
vn 0.2604 -0.7786 0.5710
vn 0.2368 -0.8473 0.4754
vn 0.0336 -0.4759 0.8788
vn -0.0890 0.8891 0.4490
vn -0.1328 0.8730 0.4692
vn -0.1286 0.9469 0.2948
vn -0.7644 0.1915 0.6156
vn -0.7388 0.2565 0.6232
vn -0.7911 0.1223 0.5993
vn -0.1936 0.8648 0.4634
vn -0.1763 0.8894 0.4218
vn -0.1659 0.0892 0.9821
vn -0.0278 -0.3545 0.9346
vn -0.0706 -0.2915 0.9540
vn 0.9891 0.0956 -0.1119
vn 0.7309 0.6581 0.1806
vn 0.9630 0.2470 -0.1083
vn 0.0527 0.0461 0.9975
vn -0.2957 0.2778 0.9140
vn -0.3045 -0.0007 0.9525
vn 0.9159 -0.3957 -0.0675
vn 0.9992 0.0394 -0.0090
vn 0.9173 0.3607 -0.1685
vn -0.2741 -0.9493 -0.1538
vn -0.3413 -0.8454 -0.4109
vn 0.0228 -0.9799 -0.1983
vn -0.4865 0.1066 0.8671
vn -0.1208 -0.1060 0.9870
vn -0.3998 -0.3137 0.8612
vn -0.5090 0.0793 0.8571
vn -0.3881 -0.1437 0.9104
vn -0.2507 0.1419 0.9576
vn -0.7708 0.6316 0.0838
vn -0.7441 0.6482 0.1618
vn -0.4538 0.8870 0.0856
vn 0.8599 0.0426 -0.5087
vn 0.9927 0.0801 -0.0898
vn 0.9997 0.0011 0.0263
vn -0.4491 0.1875 0.8736
vn -0.4993 0.3453 0.7947
vn -0.6431 0.6116 0.4608
vn 0.3121 -0.7912 0.5260
vn 0.7164 -0.6181 -0.3236
vn 0.6272 -0.7376 0.2501
vn 0.9999 0.0047 -0.0102
vn 0.9899 -0.0346 -0.1377
vn 0.9876 0.0438 -0.1506
vn 0.4303 -0.8923 -0.1366
vn 0.1480 -0.9295 0.3377
vn 0.2813 -0.9534 -0.1090
vn 0.4101 -0.8933 -0.1841
vn 0.3597 -0.9228 0.1378
vn 0.3264 -0.9188 -0.2219
vn -0.8185 0.1277 0.5601
vn -0.6382 -0.7665 0.0724
vn -0.1569 -0.8459 -0.5097
vn -0.1165 -0.8882 -0.4445
vn -0.0957 -0.4008 0.9112
vn -0.3165 -0.0796 0.9453
vn -0.2861 -0.1336 0.9488
vn 0.3812 -0.6148 0.6905
vn 0.3108 -0.4073 0.8588
vn 0.2838 -0.7422 0.6071
vn -0.2815 0.0892 0.9554
vn -0.0234 -0.7822 0.6226
vn -0.2307 -0.9583 0.1687
vn -0.0777 -0.9465 0.3132
vn -0.5689 -0.6168 0.5440
vn -0.3163 -0.7542 0.5754
vn -0.3811 -0.5947 0.7079
vn -0.6585 0.2729 0.7014
vn -0.4916 0.6837 0.5394
vn -0.5726 0.4975 0.6517
vn -0.5806 -0.2752 0.7663
vn -0.0633 -0.2845 0.9566
vn 0.1167 0.0952 0.9886
vn 0.0047 0.1658 0.9862
vn 0.2707 -0.9149 0.2997
vn 0.8440 0.4194 -0.3344
vn 0.5706 0.6169 -0.5420
vn 0.7178 0.6707 0.1869
vn 0.9428 0.1492 0.2982
vn 0.5871 0.2005 0.7843
vn 0.7021 0.0207 0.7118
vn -0.4663 -0.5406 0.7002
vn -0.3707 -0.5371 0.7577
vn -0.4153 -0.5621 0.7153
vn 0.7761 -0.5582 -0.2934
vn 0.9366 -0.1699 -0.3066
vn 0.1267 -0.5775 0.8065
vn 0.2989 -0.1349 0.9447
vn 0.2600 -0.0745 0.9627
vn 0.4691 0.8006 0.3729
vn 0.0414 0.1573 0.9867
vn 0.1800 0.4326 0.8834
vn 0.0211 0.9399 0.3407
vn 0.4304 0.8369 0.3382
vn -0.2276 0.9715 -0.0655
vn -0.0689 0.9254 -0.3728
vn -0.0712 0.9820 -0.1747
vn -0.4125 0.8149 0.4072
vn -0.2906 0.8974 0.3320
vn -0.8735 0.1850 0.4503
vn -0.9250 0.0799 0.3715
vn -0.8982 0.2257 0.3773
vn -0.7723 0.4780 0.4184
vn -0.7999 0.4887 0.3483
vn -0.2231 0.0396 0.9740
vn -0.1792 0.2700 0.9460
vn -0.1486 0.3098 0.9391
vn 0.4703 -0.5155 0.7163
vn 0.0554 -0.7034 0.7086
vn 0.4961 -0.8483 0.1851
vn -0.3463 0.6989 0.6258
vn -0.0436 0.9169 0.3968
vn -0.2606 0.9037 0.3398
vn 0.5616 -0.8273 -0.0115
vn -0.0319 -0.9292 0.3683
vn 0.2630 -0.8956 0.3588
vn 0.4227 -0.8058 0.4147
vn -0.5555 0.6401 0.5308
vn 0.4364 -0.8336 -0.3386
vn 0.3988 -0.9036 -0.1563
vn 0.3836 -0.8537 -0.3521
vn 0.4880 0.4838 0.7265
vn 0.1900 -0.9717 -0.1402
vn 0.5344 -0.7713 -0.3458
vn 0.5627 -0.8035 -0.1943
vn -0.9967 -0.0251 0.0776
vn -0.6086 -0.7533 0.2492
vn -0.9236 -0.3833 0.0018
vn -0.1694 -0.2200 -0.9607
vn -0.6854 -0.6231 -0.3767
vn -0.8881 -0.4202 -0.1862
vn -0.2871 -0.9196 0.2682
vn 0.1767 -0.9806 -0.0849
vn 0.1417 -0.9767 0.1611
vn -0.1822 -0.4304 0.8840
vn 0.1149 -0.6261 0.7712
vn -0.3473 -0.2277 0.9097
vn 0.1157 0.2221 0.9681
vn 0.5724 -0.7696 0.2828
vn 0.9428 -0.1307 -0.3065
vn 0.8849 -0.2765 -0.3748
vn 0.9300 -0.2379 -0.2803
vn 0.2389 -0.9367 0.2559
vn 0.3358 -0.7831 0.5235
vn 0.0755 -0.2908 0.9538
vn -0.2983 -0.4184 0.8579
vn 0.5440 -0.8209 -0.1739
vn 0.0008 0.7201 0.6939
vn -0.1096 0.8617 0.4954
vn 0.2134 0.9514 0.2220
vn 0.2563 0.9661 0.0318
vn 0.4402 0.8790 0.1831
vn 0.9805 0.0071 -0.1963
vn 0.9837 0.1649 -0.0714
vn -0.2113 0.1717 0.9622
vn -0.1916 0.1791 0.9650
vn -0.2664 0.1405 0.9536
vn -0.7491 -0.4624 -0.4744
vn -0.4308 0.5806 0.6909
vn 0.4768 0.1295 0.8694
vn -0.0931 0.4708 0.8773
vn -0.6851 0.0015 0.7285
vn -0.4613 -0.6198 0.6349
vn -0.0934 -0.0154 0.9955
vn -0.9264 -0.1264 -0.3547
vn -0.9974 -0.0715 0.0073
vn -0.9891 0.0884 0.1174
vn -0.9305 -0.3367 0.1445
vn -0.1372 -0.5197 -0.8433
vn 0.0340 -0.1681 0.9852
vn -0.0985 -0.5929 0.7992
vn 0.3503 -0.7553 0.5539
vn 0.9244 0.0076 0.3813
vn 0.7338 0.6153 0.2878
vn 0.9360 0.0627 0.3465
vn 0.7951 0.6063 0.0167
vn 0.6633 0.7331 -0.1503
vn 0.0708 -0.3780 0.9231
vn 0.4596 -0.1431 0.8765
vn 0.1724 -0.1749 0.9694
vn -0.4164 -0.7036 0.5758
vn -0.8304 -0.0638 0.5535
vn -0.8853 -0.2969 0.3578
vn -0.4975 0.4579 0.7368
vn -0.5497 0.6467 0.5288
vn -0.5589 0.7877 0.2591
vn -0.0582 -0.2777 0.9589
vn -0.1363 -0.5366 0.8328
vn -0.0348 -0.4512 0.8918
vn -0.9461 -0.2042 0.2515
vn -0.9772 0.0454 0.2076
vn -0.9724 -0.0131 0.2331
vn -0.7816 0.2921 0.5511
vn -0.8251 -0.0369 0.5638
vn -0.7668 0.3181 0.5575
vn -0.9682 0.0156 0.2497
vn -0.7557 -0.0032 0.6549
vn -0.4630 -0.0091 0.8863
vn -0.6710 -0.0683 0.7383
vn -0.5960 0.0198 0.8027
vn 0.9574 -0.2739 -0.0921
vn 0.8087 -0.5849 -0.0631
vn 0.9403 -0.2798 0.1935
vn 0.9866 0.1111 0.1199
vn 0.9570 0.2890 0.0255
vn 0.9946 -0.1039 -0.0004
vn 0.9449 0.3233 0.0512
vn 0.9523 0.2999 0.0567
vn 0.9980 0.0448 -0.0455
vn 0.9001 0.4262 0.0901
vn 0.9502 0.2624 -0.1679
vn 0.5298 -0.6523 -0.5420
vn 0.5920 0.0252 -0.8056
vn 0.7125 -0.2138 -0.6683
vn -0.9182 0.3643 0.1553
vn -0.9635 0.1711 -0.2061
vn -0.8576 0.2518 0.4484
vn 0.0943 -0.4182 0.9034
vn -0.5045 0.2427 0.8286
vn -0.5379 0.5579 0.6320
vn -0.8749 -0.2835 0.3927
vn -0.3856 -0.3567 0.8510
vn 0.5763 -0.7948 0.1904
vn 0.5957 -0.7895 -0.1478
vn 0.5702 -0.8157 0.0980
vn 0.6401 0.1176 0.7592
vn 0.3269 0.0540 0.9435
vn -0.2114 0.3465 0.9139
vn -0.3894 0.9152 0.1036
vn 0.3453 0.8630 0.3687
vn -0.6305 0.5188 0.5773
vn 0.1348 0.4745 0.8699
vn -0.2339 0.2983 0.9254
vn -0.5316 -0.8455 -0.0512
vn -0.4680 -0.8497 0.2428
vn -0.2935 0.0794 -0.9527
vn -0.1867 -0.9432 0.2749
vn 0.0069 -0.4626 0.8865
vn -0.5473 -0.7682 0.3321
vn 0.6305 0.1760 0.7559
vn 0.1701 -0.2415 0.9554
vn 0.3859 -0.5535 0.7380
vn 0.0534 -0.5709 0.8193
vn -0.6430 0.3485 0.6820
vn -0.6359 0.4117 0.6528
vn 0.2535 0.9046 0.3427
vn 0.4155 0.8142 0.4056
vn -0.1898 0.9690 0.1581
vn -0.5234 0.8295 0.1948
vn -0.0156 0.7730 0.6343
vn -0.6879 0.1967 0.6987
vn -0.8098 0.2468 0.5323
vn -0.7183 0.4876 0.4962
vn -0.7217 0.5661 0.3985
vn -0.5072 0.6969 0.5071
vn -0.1025 -0.3421 0.9341
vn -0.1166 -0.6749 0.7287
vn -0.1797 -0.2312 0.9562
vn -0.8877 0.1253 0.4430
vn 0.5188 -0.1551 0.8407
vn 0.3757 -0.3102 0.8733
vn 0.0352 -0.8796 0.4744
vn 0.5999 -0.1516 0.7856
vn 0.2318 -0.8637 0.4476
vn 0.8322 0.0698 0.5501
vn 0.1317 -0.0096 0.9912
vn -0.0990 -0.3294 0.9390
vn 0.3529 -0.4494 0.8207
vn 0.3983 -0.1139 0.9101
vn -0.4197 -0.2911 0.8597
vn 0.2867 -0.2448 0.9262
vn 0.2395 -0.2824 0.9289
vn -0.6784 0.3891 0.6232
vn -0.6379 0.7349 0.2301
vn -0.6755 0.5176 0.5252
vn -0.3961 -0.8067 0.4386
vn -0.0028 -0.4683 0.8836
vn 0.5244 -0.7730 0.3571
vn 0.5377 -0.6398 0.5492
vn 0.6174 -0.7574 -0.2125
vn 0.3963 -0.9096 -0.1247
vn 0.6990 -0.6767 -0.2313
vn 0.4422 -0.8182 -0.3674
vn 0.3543 -0.9340 -0.0463
vn 0.4605 -0.8774 -0.1344
vn 0.5406 -0.8267 -0.1562
vn -0.1369 -0.8794 0.4560
vn 0.3642 -0.4411 0.8202
vn 0.5751 -0.7827 -0.2382
vn 0.3010 -0.9515 0.0638
vn 0.4192 0.0199 0.9077
vn 0.0682 -0.9632 -0.2601
vn 0.4939 -0.7177 -0.4909
vn 0.7165 -0.6660 -0.2077
vn -0.2039 -0.2252 0.9527
vn 0.4892 -0.4326 0.7573
vn 0.6781 0.0675 0.7319
vn -0.1755 -0.3878 0.9049
vn 0.7010 -0.4989 0.5096
vn -0.4939 -0.1654 0.8536
vn 0.6423 -0.7314 0.2291
vn 0.8690 -0.0460 0.4926
vn -0.9912 0.0184 -0.1313
vn -0.9554 0.2148 -0.2026
vn -0.6785 -0.1885 0.7100
vn -0.4378 -0.1980 0.8770
vn -0.9505 0.0775 0.3009
vn -0.5163 0.5351 0.6686
vn -0.2280 0.1528 0.9616
vn -0.8494 -0.3934 0.3518
vn -0.4645 -0.5736 0.6747
vn 0.0122 -0.5453 0.8382
vn -0.3849 -0.0549 0.9213
vn -0.1767 -0.3047 0.9359
vn -0.2771 0.1777 0.9443
vn -0.1862 0.0360 0.9819
vn 0.9526 0.2692 0.1415
vn 0.5952 0.7937 0.1255
vn 0.8266 0.4604 0.3236
vn 0.7389 0.6705 0.0671
vn 0.9567 -0.2904 0.0178
vn 0.4027 0.2709 0.8743
vn -0.4228 -0.1373 0.8957
vn -0.4847 -0.0640 0.8723
vn -0.7524 0.1521 0.6409
vn -0.1604 0.3614 0.9185
vn -0.5254 0.6498 0.5494
vn 0.1705 0.3050 0.9370
vn 0.0132 0.9553 0.2953
vn -0.2677 0.8207 0.5047
vn -0.0928 0.8781 0.4694
vn -0.6097 0.0876 0.7878
vn -0.6641 0.0942 0.7416
vn -0.7899 0.2388 0.5648
vn -0.2431 0.1954 0.9501
vn -0.3640 0.0273 0.9310
vn -0.5986 0.1640 0.7841
vn 0.1041 -0.3437 0.9333
vn 0.1181 -0.2848 0.9513
vn 0.2170 -0.8895 0.4020
vn -0.2952 0.9445 -0.1440
vn -0.0827 0.9903 0.1115
vn -0.3395 0.9007 -0.2711
vn -0.1794 0.9109 0.3716
vn -0.2844 0.9107 0.2996
vn 0.6645 0.7428 -0.0818
vn 0.0695 0.9412 0.3307
vn 0.1001 0.9950 0.0023
vn 0.7193 -0.6786 0.1486
vn -0.1631 0.3423 0.9253
vn 0.1958 -0.0777 0.9776
vn 0.9230 0.3561 0.1458
vn 0.9940 0.0435 0.1001
vn 0.9926 -0.0282 -0.1185
vn -0.1500 0.5764 0.8033
vn -0.3844 0.1324 0.9136
vn -0.6744 -0.2573 0.6921
vn -0.6333 -0.2620 0.7282
vn -0.7839 0.2305 0.5765
vn -0.8991 0.3131 0.3058
vn -0.2071 -0.2820 0.9368
vn -0.2659 0.2054 0.9419
vn -0.2415 -0.7307 0.6385
vn -0.3694 0.9052 0.2103
vn -0.3407 0.8430 0.4162
vn 0.3638 -0.8258 -0.4310
vn -0.1336 0.8920 0.4319
vn 0.2050 0.9130 0.3526
vn -0.0607 0.8789 0.4731
vn 0.9968 0.0116 -0.0791
vn 0.9229 0.3646 0.1240
vn 0.9938 0.0761 0.0806
vn 0.0336 -0.5741 0.8181
vn 0.9908 0.0960 -0.0958
vn 0.3684 -0.9099 -0.1904
vn 0.3230 -0.8800 -0.3482
vn 0.3139 -0.9488 0.0338
vn 0.9192 -0.2106 0.3329
vn 0.8299 -0.5199 -0.2023
vn 0.7874 0.3938 -0.4743
vn 0.7114 -0.4506 -0.5393
vn -0.1699 -0.7205 0.6723
vn -0.5973 0.0885 -0.7971
vn -0.2490 -0.7782 0.5765
vn 0.6614 -0.4796 0.5766
vn 0.6346 0.7574 0.1536
vn 0.9160 0.4002 0.0294
vn 0.4841 0.7421 0.4636
vn 0.7957 -0.5739 -0.1934
vn 0.9854 -0.1238 0.1171
vn 0.6760 -0.6696 0.3075
vn 0.3457 -0.8910 0.2945
vn 0.0848 -0.5676 0.8189
vn -0.1640 0.0231 0.9862
vn -0.6951 -0.7181 0.0350
vn -0.8053 -0.2244 0.5487
vn -0.7025 -0.0020 0.7117
vn -0.9089 0.3925 0.1411
vn 0.9976 -0.0295 -0.0627
vn 0.9970 0.0587 0.0510
vn 0.4834 0.2782 0.8300
vn 0.6986 0.0412 0.7144
vn 0.8790 0.4349 0.1956
vn -0.1259 0.9696 0.2097
vn -0.1200 0.9611 0.2486
vn -0.2266 0.9484 0.2216
vn -0.4062 0.9016 0.1488
vn 0.5005 0.8431 -0.1966
vn -0.2501 0.5890 0.7685
vn -0.3004 0.1391 0.9436
vn -0.0732 -0.6095 0.7894
vn 0.7773 -0.4935 0.3902
vn -0.1476 0.1037 0.9836
vn 0.2778 -0.1898 0.9417
vn -0.4253 0.2810 0.8603
vn -0.1360 -0.5114 0.8485
vn 0.0097 -0.7400 0.6725
vn -0.5282 0.1794 0.8299
vn 0.3911 0.3896 0.8338
vn 0.3261 -0.6716 -0.6653
vn -0.8935 -0.4389 0.0953
vn -0.4772 0.4947 0.7264
vn -0.7626 -0.6469 0.0036
vn -0.1977 -0.8490 0.4900
vn 0.4814 -0.8071 0.3418
vn 0.0704 -0.6003 0.7967
vn 0.2154 -0.8984 0.3828
vn 0.1202 0.4765 0.8709
vn 0.6437 -0.4728 0.6018
vn -0.9790 -0.0760 -0.1890
vn 0.0163 0.9856 0.1683
vn -0.7033 0.0958 0.7044
vn 0.2948 -0.2834 0.9126
vn -0.1916 0.9069 -0.3752
vn -0.2073 -0.4058 0.8901
vn -0.3136 -0.0505 0.9482
vn 0.8615 -0.3742 0.3432
vn 0.4737 -0.2224 0.8522
vn -0.9720 0.1505 0.1807
vn -0.0902 0.4860 0.8693
vn -0.2830 0.8275 0.4848
vn 0.2171 -0.1710 0.9611
vn 0.8533 -0.4603 0.2449
vn -0.4011 -0.4490 0.7984
vn -0.1059 -0.2815 0.9537
vn 0.9755 0.1683 -0.1415
vn 0.9443 -0.1585 -0.2884
vn 0.1561 0.2750 0.9487
vn 0.7888 0.6008 0.1293
vn -0.1111 0.8696 0.4811
vn -0.3097 0.4211 0.8525
vn -0.2131 0.8263 0.5214
vn -0.2485 0.7745 0.5817
vn -0.6691 -0.1144 0.7343
vn -0.6503 -0.4161 0.6356
vn 0.9975 0.0509 -0.0481
vn 0.9940 0.1080 -0.0192
vn 0.0406 -0.6673 0.7437
vn -0.1514 -0.4480 0.8811
vn -0.4371 -0.5828 0.6851
vn -0.1494 0.1310 0.9801
vn 0.4264 -0.0677 0.9020
vn 0.6464 -0.7500 -0.1399
vn -0.6462 -0.6744 0.3572
vn -0.2002 -0.9771 -0.0714
vn -0.8668 0.1266 0.4823
vn -0.3975 -0.4734 0.7861
vn 0.4334 -0.8822 -0.1841
vn 0.0197 0.4019 -0.9155
vn 0.4209 -0.8340 -0.3567
vn 0.7457 -0.6520 -0.1371
vn 0.0311 -0.9995 0.0099
vn 0.0281 0.0868 -0.9958
vn 0.3955 -0.8821 -0.2561
vn 0.2183 -0.9533 -0.2088
vn 0.0674 -0.9732 0.2199
vn -0.0112 -0.4618 0.8869
vn -0.0674 0.1747 0.9823
vn 0.3487 -0.8824 -0.3158
vn 0.3231 -0.9032 -0.2824
vn 0.9938 0.0743 0.0824
vn 0.9937 0.1116 -0.0136
vn 0.3555 -0.8927 -0.2769
vn 0.7732 -0.4533 0.4435
vn 0.9057 0.0101 0.4238
vn 0.8105 -0.5803 0.0804
vn -0.4944 -0.0312 0.8687
vn -0.7943 0.0208 0.6072
vn -0.5044 0.0886 0.8589
vn -0.3643 -0.1694 0.9157
vn -0.7584 0.5295 0.3801
vn -0.8656 0.4392 0.2403
vn -0.6224 0.7508 0.2214
vn -0.8314 0.2926 0.4723
vn -0.6294 0.7068 0.3229
vn 0.0748 -0.8368 0.5424
vn -0.0108 -0.4509 0.8925
vn 0.0547 -0.5567 0.8289
vn -0.0189 -0.5950 0.8035
vn -0.4530 -0.0868 0.8873
vn 0.9986 -0.0220 -0.0477
vn 0.9781 -0.1858 0.0944
vn 0.9960 0.0693 -0.0567
vn 0.8649 0.1692 -0.4726
vn 0.8903 -0.1146 0.4407
vn -0.2564 0.8504 0.4593
vn -0.3295 0.7735 0.5414
vn -0.6439 0.5616 0.5197
vn -0.4007 -0.0698 0.9135
vn -0.3054 -0.5544 0.7742
vn 0.9740 -0.1133 0.1963
vn -0.1267 0.7421 0.6582
vn -0.3146 -0.6456 0.6959
vn -0.1458 -0.7592 0.6343
vn 0.9047 -0.3605 -0.2269
vn 0.9722 -0.2063 -0.1107
vn 0.2751 0.8165 0.5076
vn -0.1022 0.4399 0.8922
vn 0.6911 0.7084 0.1434
vn -0.5773 -0.0350 0.8158
vn 0.4783 -0.6923 -0.5403
vn 0.0279 -0.4474 -0.8939
vn -0.7717 -0.0388 0.6348
vn -0.1915 -0.4200 0.8871
vn -0.6697 0.2571 0.6967
vn 0.3003 -0.7738 0.5577
vn 0.8145 -0.2382 -0.5290
vn 0.6950 -0.7169 0.0548
vn 0.2165 -0.9735 -0.0743
vn 0.7458 0.3790 0.5479
vn -0.5053 -0.3272 0.7985
vn -0.8152 -0.3359 0.4719
vn -0.9717 -0.0160 0.2358
vn 0.9258 -0.3761 0.0375
vn 0.3336 -0.8833 -0.3293
vn 0.0642 -0.6875 0.7234
vn 0.1576 0.3350 0.9289
vn 0.6265 0.7380 0.2505
vn -0.1837 0.5715 0.7997
vn -0.5760 0.5786 0.5775
vn -0.2105 -0.5165 0.8300
vn -0.2104 -0.2462 0.9461
vn -0.0592 -0.6048 0.7941
vn 0.4536 -0.3264 0.8293
vn -0.4192 -0.0078 0.9079
vn 0.1260 -0.3064 0.9435
vn 0.3054 -0.0783 0.9490
vn 0.9716 -0.1405 -0.1904
vn -0.3796 -0.8409 -0.3857
vn -0.4803 -0.8561 0.1909
vn -0.4270 -0.6400 0.6387
vn -0.4776 -0.8576 -0.1909
vn -0.5003 -0.6898 0.5233
vn -0.7040 -0.3621 0.6110
vn -0.0060 0.9992 -0.0399
vn 0.0289 -0.8159 0.5774
vn 0.0751 -0.8261 0.5586
vn 0.4627 -0.7673 -0.4440
vn 0.5938 -0.7864 0.1701
vn 0.2966 -0.8894 0.3479
vn -0.2093 0.9519 0.2238
vn 0.6138 0.7531 0.2367
vn 0.4797 -0.0283 0.8770
vn 0.3406 -0.0069 0.9402
vn -0.4454 0.4174 0.7921
vn -0.1759 0.7033 0.6888
vn 0.3595 -0.9075 -0.2174
vn 0.9878 -0.0915 -0.1263
vn 0.4603 -0.7352 0.4976
vn 0.5198 -0.7392 0.4283
vn 0.8476 -0.3571 -0.3925
vn 0.4736 -0.6209 0.6247
vn 0.7684 -0.3791 0.5155
vn 0.7502 -0.5444 0.3754
vn 0.3492 0.6178 0.7046
vn -0.7769 0.1036 0.6210
vn -0.5002 0.4535 0.7376
vn 0.0657 0.6892 0.7216
vn 0.9805 -0.1869 0.0612
vn 0.5382 -0.0415 0.8418
vn 0.9341 0.0467 0.3541
vn 0.3145 0.9111 0.2664
vn 0.7427 0.6680 0.0452
vn -0.0034 0.9969 0.0791
vn 0.7731 0.6275 0.0927
vn -0.5603 -0.5805 -0.5908
vn -0.6304 0.3689 0.6830
vn -0.5482 0.2988 0.7811
vn -0.9758 0.1803 -0.1237
vn -0.5398 -0.5032 0.6749
vn 0.3752 -0.8512 -0.3670
vn -0.3786 0.1489 -0.9135
vn 0.1687 -0.7332 0.6587
vn -0.0279 0.9290 0.3690
vn -0.5136 -0.8562 0.0556
vn -0.1306 0.9739 0.1856
vn 0.1329 -0.6927 0.7089
vn 0.4084 -0.8814 -0.2376
vn 0.6902 -0.0144 0.7235
vn -0.4844 -0.0434 0.8738
vn -0.5376 0.0953 0.8378
vn 0.0784 0.8964 0.4363
vn 0.8240 0.5555 0.1112
vn 0.6566 -0.7438 -0.1251
vn 0.2449 0.5029 0.8289
vn 0.8832 0.1372 0.4485
vn 0.0959 -0.8168 0.5688
vn 0.6618 -0.7468 -0.0660
vn 0.9584 -0.0216 -0.2845
vn 0.9213 0.3878 -0.0286
vn -0.2512 -0.0858 0.9641
vn -0.4778 0.3896 0.7873
vn -0.9288 -0.3109 0.2017
vn 0.5765 -0.5367 0.6161
vn -0.1875 0.5553 0.8103
vn -0.2108 -0.2506 0.9449
vt 0.889640 0.727110
vt 0.899420 0.719750
vt 0.898070 0.735840
vt 0.967620 0.755390
vt 0.951660 0.755610
vt 0.976280 0.739540
vt 0.888890 0.775320
vt 0.889540 0.791660
vt 0.877970 0.780430
vt 0.955730 0.744840
vt 0.966930 0.740450
vt 0.914810 0.757630
vt 0.904060 0.747210
vt 0.913170 0.743250
vt 0.961730 0.705280
vt 0.976350 0.720070
vt 0.961820 0.720670
vt 0.887880 0.817310
vt 0.889500 0.825310
vt 0.882620 0.825230
vt 0.826430 0.695230
vt 0.834850 0.693440
vt 0.834620 0.699030
vt 0.781190 0.784950
vt 0.774020 0.782810
vt 0.777750 0.775290
vt 0.850880 0.724810
vt 0.861110 0.732370
vt 0.848430 0.735850
vt 0.842850 0.823520
vt 0.835850 0.817640
vt 0.843480 0.816120
vt 0.937740 0.802780
vt 0.937620 0.798480
vt 0.943530 0.798460
vt 0.788770 0.756290
vt 0.797340 0.749660
vt 0.803540 0.755660
vt 0.818810 0.775410
vt 0.824830 0.768930
vt 0.832980 0.776050
vt 0.780290 0.740320
vt 0.787820 0.729150
vt 0.790210 0.732430
vt 0.943470 0.697860
vt 0.948420 0.713770
vt 0.935210 0.706060
vt 0.891250 0.722380
vt 0.881580 0.732080
vt 0.878760 0.730270
vt 0.899220 0.690560
vt 0.912430 0.685950
vt 0.915330 0.690410
vt 0.876580 0.795900
vt 0.871690 0.778790
vt 0.864990 0.767000
vt 0.867290 0.758120
vt 0.830110 0.727000
vt 0.832820 0.738010
vt 0.823250 0.733580
vt 0.792560 0.743820
vt 0.793510 0.737060
vt 0.799040 0.738440
vt 0.819010 0.770690
vt 0.802690 0.769310
vt 0.784350 0.786010
vt 0.787720 0.771050
vt 0.799920 0.791170
vt 0.796730 0.787820
vt 0.802070 0.785220
vt 0.815610 0.782110
vt 0.831910 0.789980
vt 0.818780 0.788790
vt 0.833340 0.830230
vt 0.844440 0.809150
vt 0.835830 0.809680
vt 0.836190 0.803170
vt 0.862140 0.775330
vt 0.825540 0.756080
vt 0.831050 0.762230
vt 0.827630 0.762490
vt 0.823190 0.756440
vt 0.825360 0.763370
vt 0.816610 0.763670
vt 0.846120 0.729620
vt 0.838990 0.739280
vt 0.836490 0.729410
vt 0.822420 0.704430
vt 0.829440 0.700780
vt 0.844740 0.786580
vt 0.854340 0.780940
vt 0.857700 0.788670
vt 0.823650 0.747590
vt 0.826490 0.738910
vt 0.827260 0.746560
vt 0.971860 0.726580
vt 0.964840 0.725080
vt 0.982390 0.744100
vt 0.985970 0.756000
vt 0.980070 0.756600
vt 0.936620 0.786580
vt 0.946430 0.785950
vt 0.913100 0.789310
vt 0.914010 0.779260
vt 0.922400 0.792850
vt 0.928810 0.783790
vt 0.931910 0.790600
vt 0.913940 0.765930
vt 0.922640 0.756070
vt 0.924990 0.770410
vt 0.833080 0.707730
vt 0.835090 0.716920
vt 0.828920 0.708180
vt 0.852320 0.718790
vt 0.851880 0.710870
vt 0.856440 0.711330
vt 0.866050 0.742590
vt 0.864470 0.737310
vt 0.874430 0.743820
vt 0.865610 0.725990
vt 0.853920 0.725170
vt 0.880420 0.716730
vt 0.886310 0.705810
vt 0.895070 0.709240
vt 0.864180 0.722180
vt 0.787240 0.834070
vt 0.782180 0.829490
vt 0.788790 0.820270
vt 0.796860 0.802430
vt 0.791150 0.790690
vt 0.797240 0.794760
vt 0.778770 0.793710
vt 0.783780 0.790640
vt 0.791790 0.801190
vt 0.873680 0.770840
vt 0.865920 0.748980
vt 0.871700 0.753820
vt 0.879540 0.769530
vt 0.873700 0.754340
vt 0.887330 0.770190
vt 0.771740 0.754190
vt 0.788370 0.750210
vt 0.971100 0.692790
vt 0.978850 0.697450
vt 0.971850 0.701010
vt 0.901680 0.686450
vt 0.912280 0.680160
vt 0.864470 0.722530
vt 0.866440 0.721140
vt 0.873090 0.720200
vt 0.863230 0.714390
vt 0.860280 0.720310
vt 0.862520 0.707390
vt 0.854090 0.707040
vt 0.857300 0.702100
vt 0.954510 0.709390
vt 0.956450 0.720060
vt 0.931160 0.757270
vt 0.925440 0.746770
vt 0.931910 0.746150
vt 0.778230 0.798190
vt 0.808000 0.834230
vt 0.810320 0.815850
vt 0.813410 0.825340
vt 0.805430 0.835020
vt 0.792150 0.835440
vt 0.802940 0.825470
vt 0.788770 0.845190
vt 0.803880 0.839340
vt 0.812100 0.845160
vt 0.791700 0.837440
vt 0.784310 0.839820
vt 0.823740 0.726910
vt 0.812600 0.727950
vt 0.808200 0.717990
vt 0.811690 0.713330
vt 0.806720 0.704920
vt 0.812430 0.704200
vt 0.844440 0.698170
vt 0.846460 0.702050
vt 0.843580 0.717040
vt 0.837580 0.711340
vt 0.845670 0.714270
vt 0.840640 0.800730
vt 0.873210 0.780830
vt 0.870660 0.789790
vt 0.885250 0.833130
vt 0.891680 0.829570
vt 0.888820 0.836350
vt 0.881270 0.822400
vt 0.873180 0.818120
vt 0.875910 0.814300
vt 0.866370 0.836350
vt 0.874740 0.841310
vt 0.867390 0.842960
vt 0.881980 0.837640
vt 0.872300 0.835190
vt 0.861510 0.804900
vt 0.854650 0.806600
vt 0.855500 0.800090
vt 0.858320 0.817490
vt 0.854080 0.811260
vt 0.862580 0.810890
vt 0.933750 0.673610
vt 0.928120 0.681420
vt 0.925600 0.675590
vt 0.946230 0.680770
vt 0.951880 0.687790
vt 0.939970 0.682820
vt 0.934400 0.688670
vt 0.935080 0.696690
vt 0.927280 0.695760
vt 0.952920 0.682130
vt 0.961160 0.690090
vt 0.878410 0.689250
vt 0.870930 0.689530
vt 0.871020 0.687060
vt 0.814430 0.796480
vt 0.805380 0.796860
vt 0.807930 0.793560
vt 0.817290 0.813870
vt 0.811660 0.782550
vt 0.812030 0.791870
vt 0.803660 0.793500
vt 0.806040 0.781130
vt 0.876080 0.699010
vt 0.875210 0.710680
vt 0.874100 0.704870
vt 0.869910 0.701100
vt 0.868200 0.697720
vt 0.842580 0.767710
vt 0.833920 0.771070
vt 0.839450 0.762360
vt 0.852510 0.756940
vt 0.850800 0.761110
vt 0.848110 0.758480
vt 0.861150 0.752200
vt 0.859760 0.759600
vt 0.854110 0.753170
vt 0.860230 0.767540
vt 0.856850 0.769050
vt 0.855240 0.756580
vt 0.821410 0.745560
vt 0.819520 0.739240
vt 0.809370 0.741350
vt 0.849380 0.795050
vt 0.859970 0.800280
vt 0.867490 0.800430
vt 0.864780 0.700840
vt 0.857550 0.694810
vt 0.903160 0.830400
vt 0.895120 0.832850
vt 0.896940 0.824430
vt 0.895140 0.772010
vt 0.901710 0.787650
vt 0.908700 0.810170
vt 0.915480 0.814810
vt 0.910330 0.819390
vt 0.893950 0.760290
vt 0.886150 0.747700
vt 0.903970 0.758860
vt 0.906590 0.777240
vt 0.813620 0.716160
vt 0.824160 0.717860
vt 0.828750 0.716060
vt 0.808740 0.699770
vt 0.797580 0.762990
vt 0.817200 0.757220
vt 0.817180 0.766560
vt 0.806450 0.768930
vt 0.805380 0.766840
vt 0.811030 0.765340
vt 0.849520 0.745240
vt 0.840890 0.754350
vt 0.839640 0.748370
vt 0.826550 0.780780
vt 0.837540 0.782720
vt 0.830630 0.784610
vt 0.841570 0.793760
vt 0.894850 0.741260
vt 0.918520 0.682100
vt 0.919010 0.676470
vt 0.923810 0.692790
vt 0.921390 0.685090
vt 0.927450 0.687110
vt 0.877180 0.726170
vt 0.870430 0.723860
vt 0.796870 0.723880
vt 0.801230 0.712530
vt 0.806330 0.722920
vt 0.788890 0.737340
vt 0.780090 0.760740
vt 0.778520 0.762790
vt 0.775120 0.755450
vt 0.782490 0.765590
vt 0.784560 0.762380
vt 0.788710 0.760580
vt 0.932720 0.730520
vt 0.930920 0.721280
vt 0.938760 0.726850
vt 0.924350 0.729910
vt 0.926080 0.717020
vt 0.874210 0.830990
vt 0.824140 0.709800
vt 0.819520 0.712470
vt 0.816220 0.799050
vt 0.809550 0.800220
vt 0.824000 0.826710
vt 0.829870 0.818140
vt 0.821280 0.799740
vt 0.828360 0.798400
vt 0.829900 0.806010
vt 0.814770 0.805030
vt 0.822980 0.807070
vt 0.914770 0.723100
vt 0.933570 0.739680
vt 0.920510 0.734280
vt 0.937370 0.731200
vt 0.922090 0.745460
vt 0.842520 0.693400
vt 0.851530 0.699500
vt 0.847910 0.693040
vt 0.868220 0.711710
vt 0.872600 0.715790
vt 0.859710 0.734850
vt 0.875380 0.809460
vt 0.868270 0.816190
vt 0.872660 0.803870
vt 0.891500 0.810150
vt 0.903460 0.813330
vt 0.894160 0.820270
vt 0.904810 0.823560
vt 0.929280 0.774880
vt 0.942620 0.766880
vt 0.845320 0.833320
vt 0.856420 0.831400
vt 0.844080 0.839710
vt 0.848960 0.822060
vt 0.852880 0.814920
vt 0.855360 0.827080
vt 0.853860 0.764630
vt 0.853740 0.759230
vt 0.857150 0.760360
vt 0.987030 0.738130
vt 0.986120 0.732490
vt 0.989680 0.731990
vt 0.960140 0.775990
vt 0.953770 0.783150
vt 0.985540 0.768430
vt 0.978500 0.773710
vt 0.978030 0.764900
vt 0.785390 0.811800
vt 0.848510 0.764020
vt 0.847000 0.769770
vt 0.939300 0.689940
vt 0.947170 0.693470
vt 0.952740 0.700970
vt 0.819320 0.832210
vt 0.822940 0.838830
vt 0.840880 0.839930
vt 0.832710 0.836870
vt 0.854180 0.835320
vt 0.854380 0.839410
vt 0.845310 0.720080
vt 0.848080 0.718150
vt 0.835500 0.721630
vt 0.967650 0.782990
vt 0.974750 0.774660
vt 0.796570 0.711600
vt 0.949870 0.737930
vt 0.947850 0.727430
vt 0.953360 0.728140
vt 0.940920 0.716550
vt 0.949060 0.723490
vt 0.943460 0.723150
vt 0.903390 0.724710
vt 0.930100 0.707760
vt 0.898930 0.716740
vt 0.902730 0.706740
vt 0.906310 0.715190
vt 0.832850 0.705380
vt 0.830750 0.704680
vt 0.869340 0.686340
vt 0.870890 0.684010
vt 0.889850 0.683580
vt 0.881030 0.678710
vt 0.893060 0.681520
vt 0.812670 0.745360
vt 0.833720 0.755850
vt 0.821940 0.751720
vt 0.828980 0.751050
vt 0.921920 0.702350
vt 0.922430 0.710800
vt 0.918570 0.711420
vt 0.915800 0.712330
vt 0.920540 0.717130
vt 0.856770 0.796930
vt 0.847560 0.803250
vt 0.852230 0.799980
vt 0.849490 0.809500
vt 0.882450 0.840220
vt 0.971870 0.705700
vt 0.978810 0.712450
vt 0.847080 0.711600
vt 0.841250 0.708480
vt 0.843880 0.705540
vt 0.976580 0.755430
vt 0.972440 0.769380
vt 0.994910 0.746980
vt 0.990520 0.748970
vt 0.986800 0.762680
vt 0.997810 0.753020
vt 0.847350 0.827890
vt 0.871700 0.827450
vt 0.863540 0.745080
vt 0.855190 0.743810
vt 0.861050 0.738770
vt 0.868490 0.807400
vt 0.814880 0.733860
vt 0.805290 0.737090
vt 0.844400 0.753740
vt 0.833920 0.750560
vt 0.877590 0.684540
vt 0.856270 0.748340
vt 0.848460 0.753440
vt 0.787360 0.791240
vt 0.798430 0.781080
vt 0.792910 0.819310
vt 0.795370 0.820610
vt 0.790160 0.829510
vt 0.805930 0.818770
vt 0.795940 0.814460
vt 0.800870 0.798360
vt 0.979250 0.727300
vt 0.869210 0.795880
vt 0.860630 0.784250
vt 0.993930 0.740190
vt 0.805530 0.773280
vt 0.810400 0.779140
vt 0.818820 0.699130
vt 0.817420 0.694930
vt 0.813420 0.840460
vt 0.842470 0.774210
vt 0.842290 0.770910
vt 0.848860 0.776740
vt 0.809180 0.713790
vt 0.822880 0.819140
vt 0.826590 0.810120
vt 0.973030 0.683190
vt 0.977140 0.687100
vt 0.954760 0.672640
vt 0.958980 0.679810
vt 0.936810 0.756470
vt 0.936070 0.743500
vt 0.939900 0.742830
vt 0.939980 0.734830
vt 0.883990 0.773750
vt 0.874360 0.774890
vt 0.963350 0.699770
vt 0.955720 0.694160
vt 0.781520 0.749070
vt 0.774440 0.749410
vt 0.864690 0.787760
vt 0.864130 0.794440
vt 0.803220 0.805420
vt 0.796280 0.809570
vt 0.783320 0.807110
vt 0.790720 0.808600
vt 0.810670 0.805640
vt 0.806700 0.807130
vt 0.893390 0.698100
vt 0.874460 0.690660
vt 0.882220 0.692250
vt 0.876220 0.695310
vt 0.886020 0.682630
vt 0.881300 0.681440
vt 0.888730 0.691570
vt 0.886660 0.687590
vt 0.892680 0.687000
vt 0.908730 0.734600
vt 0.824290 0.765440
vt 0.910150 0.707650
vt 0.917960 0.699860
vt 0.928080 0.703780
vt 0.924070 0.702200
vt 0.909100 0.697650
vt 0.799800 0.760850
vt 0.811730 0.756760
vt 0.795950 0.760180
vt 0.911970 0.769390
vt 0.905880 0.771840
vt 0.898240 0.769610
vt 0.900150 0.766290
vt 0.922020 0.802550
vt 0.928600 0.799900
vt 0.930100 0.806130
vt 0.913800 0.804130
vt 0.922760 0.812950
vt 0.878120 0.739250
vt 0.887760 0.761610
vt 0.879340 0.750540
vt 0.883980 0.738650
vt 0.904700 0.766950
vt 0.810970 0.749080
vt 0.819230 0.751230
vt 0.813130 0.754250
vt 0.804390 0.753530
vt 0.803770 0.758390
vt 0.907900 0.824600
vt 0.906300 0.818990
vt 0.816710 0.793980
vt 0.823750 0.832560
vt 0.865410 0.724650
vt 0.932730 0.719820
vt 0.932030 0.767130
vt 0.802720 0.779740
vt 0.803240 0.772540
vt 0.934040 0.680870
vt 0.931190 0.688350
vt 0.992680 0.760950
vt 0.998040 0.760050
vt 0.993770 0.766390
vt 0.839530 0.788790
vt 0.874060 0.682010
vt 0.877970 0.679530
vt 0.878800 0.804340
vt 0.881200 0.811060
vt 0.890830 0.803870
vt 0.781650 0.752880
vt 0.784840 0.756310
vt 0.785970 0.752430
vt 0.874150 0.734510
vt 0.838500 0.705870
vt 0.861110 0.828250
vt 0.860640 0.834920
vt 0.858220 0.838170
vt 0.816290 0.703780
vt 0.917560 0.706980
vt 0.909900 0.716920
vt 0.833810 0.745320
vt 0.847800 0.707600
vt 0.849360 0.712900
vt 0.834320 0.793490
vt 0.868810 0.830720
vt 0.838150 0.744390
vt 0.814300 0.809620
vt 0.811560 0.811830
vt 0.886380 0.808610
vt 0.885120 0.814270
vt 0.853100 0.769650
vt 0.800940 0.707000
vt 0.863110 0.758190
vt 0.860450 0.763970
vt 0.857490 0.764170
vt 0.788370 0.836640
vt 0.849430 0.797640
vt 0.839300 0.798140
vt 0.831790 0.766860
vt 0.798240 0.731080
vt 0.804080 0.729560
vt 0.789010 0.720000
vt 0.794090 0.728810
vt 0.801260 0.725780
vt 0.991520 0.755900
vt 0.952940 0.725200
vt 0.863880 0.693410
vt 0.799970 0.817160
vt 0.805500 0.806950
vt 0.827510 0.765090
vt 0.897710 0.703180
vt 0.981340 0.709410
vt 0.797170 0.744180
vt 0.792200 0.747590
vt 0.802860 0.748220
vt 0.803130 0.744090
vt 0.807220 0.746040
vt 0.801260 0.747510
vt 0.940590 0.728450
vt 0.919830 0.774770
vt 0.924470 0.774460
vt 0.948820 0.677210
vt 0.946190 0.675420
vt 0.846230 0.774180
vt 0.870660 0.707140
vt 0.867030 0.706710
vt 0.836750 0.758910
vt 0.983770 0.722270
vt 0.981510 0.716870
vt 0.776620 0.789640
vt 0.896930 0.796300
vt 0.819830 0.825450
vt 0.804720 0.801070
vt 0.867880 0.833400
vt 0.882220 0.686350
vt 0.853980 0.753570
vt 0.828780 0.721620
vt 0.944840 0.729790
vt 0.869270 0.781990
vt 0.901770 0.817160
vt 0.788140 0.744190
vt 0.884590 0.697380
vt 0.813740 0.697830
vt 0.808990 0.783490
vt 0.861700 0.820780
vt 0.959980 0.727310
vt 0.961000 0.723070
vt 0.792000 0.814620
vt 0.836520 0.753680
vt 0.820650 0.753630
vt 0.899400 0.676360
vt 0.781880 0.757600
vt 0.871190 0.709230
vt 0.966700 0.688320
vt 0.893590 0.768200
vt 0.834900 0.798030
vt 0.835750 0.794870
vt 0.923020 0.714360
vt 0.933980 0.755810
vt 0.837000 0.800180
s 1
f 1/1/1 2/2/2 3/3/3
f 4/4/4 5/5/5 6/6/6
f 7/7/7 8/8/8 9/9/9
f 5/5/5 10/10/10 11/11/11
f 12/12/12 13/13/13 14/14/14
f 15/15/15 16/16/16 17/17/17
f 18/18/18 19/19/19 20/20/20
f 21/21/21 22/22/22 23/23/23
f 24/24/24 25/25/25 26/26/26
f 27/27/27 28/28/28 29/29/29
f 30/30/30 31/31/31 32/32/32
f 33/33/33 34/34/34 35/35/35
f 36/36/36 37/37/37 38/38/38
f 39/39/39 40/40/40 41/41/41
f 42/42/42 43/43/43 44/44/44
f 45/45/45 46/46/46 47/47/47
f 48/48/48 49/49/49 50/50/50
f 51/51/51 52/52/52 53/53/53
f 9/9/9 8/8/8 54/54/54
f 55/55/55 56/56/56 57/57/57
f 58/58/58 59/59/59 60/60/60
f 61/61/61 62/62/62 63/63/63
f 39/39/39 64/64/64 40/40/40
f 65/65/65 66/66/66 67/67/67
f 68/68/68 69/69/69 70/70/70
f 71/71/71 72/72/72 73/73/73
f 74/74/74 31/31/31 30/30/30
f 75/75/75 76/76/76 77/77/77
f 55/55/55 78/78/78 56/56/56
f 79/79/79 80/80/80 81/81/81
f 82/82/82 83/83/83 84/84/84
f 85/85/85 86/86/86 87/87/87
f 88/88/88 21/21/21 89/89/89
f 90/90/90 91/91/91 92/92/92
f 93/93/93 94/94/94 95/95/95
f 96/96/96 97/97/97 16/16/16
f 98/98/98 99/99/99 100/100/100
f 34/34/34 101/101/101 102/102/102
f 103/103/103 104/104/104 105/105/105
f 104/104/104 106/106/106 107/107/107
f 108/108/108 109/109/109 110/110/110
f 111/111/111 112/112/112 113/113/113
f 114/114/114 115/115/115 116/116/116
f 117/117/117 118/118/118 119/119/119
f 120/120/120 28/28/28 121/121/121
f 122/122/122 123/123/123 124/124/124
f 121/121/121 125/125/125 120/120/120
f 126/126/126 127/127/127 128/128/128
f 129/129/129 130/130/130 131/131/131
f 132/132/132 133/133/133 134/134/134
f 135/135/135 136/136/136 137/137/137
f 138/138/138 139/139/139 140/140/140
f 26/26/26 25/25/25 141/141/141
f 142/142/142 37/37/37 36/36/36
f 143/143/143 144/144/144 145/145/145
f 52/52/52 146/146/146 147/147/147
f 148/148/148 125/125/125 149/149/149
f 150/150/150 149/149/149 151/151/151
f 152/152/152 114/114/114 116/116/116
f 152/152/152 151/151/151 149/149/149
f 153/153/153 154/154/154 155/155/155
f 51/51/51 146/146/146 52/52/52
f 156/156/156 157/157/157 46/46/46
f 158/158/158 159/159/159 160/160/160
f 134/134/134 161/161/161 132/132/132
f 162/162/162 163/163/163 164/164/164
f 165/165/165 166/166/166 167/167/167
f 168/168/168 169/169/169 170/170/170
f 168/168/168 171/171/171 169/169/169
f 126/126/126 172/172/172 127/127/127
f 173/173/173 174/174/174 175/175/175
f 176/176/176 177/177/177 178/178/178
f 23/23/23 179/179/179 180/180/180
f 181/181/181 182/182/182 183/183/183
f 75/75/75 77/77/77 184/184/184
f 185/185/185 54/54/54 186/186/186
f 187/187/187 188/188/188 189/189/189
f 190/190/190 191/191/191 192/192/192
f 193/193/193 194/194/194 195/195/195
f 196/196/196 194/194/194 197/197/197
f 198/198/198 199/199/199 200/200/200
f 201/201/201 202/202/202 203/203/203
f 204/204/204 205/205/205 206/206/206
f 207/207/207 208/208/208 209/209/209
f 210/210/210 211/211/211 212/212/212
f 213/213/213 214/214/214 208/208/208
f 215/215/215 216/216/216 217/217/217
f 218/218/218 219/219/219 220/220/220
f 164/164/164 163/163/163 221/221/221
f 222/222/222 73/73/73 223/223/223
f 224/224/224 70/70/70 225/225/225
f 226/226/226 227/227/227 228/228/228
f 226/226/226 229/229/229 230/230/230
f 231/231/231 232/232/232 233/233/233
f 234/234/234 235/235/235 236/236/236
f 237/237/237 238/238/238 239/239/239
f 240/240/240 78/78/78 241/241/241
f 234/234/234 236/236/236 239/239/239
f 238/238/238 242/242/242 239/239/239
f 243/243/243 244/244/244 94/94/94
f 245/245/245 244/244/244 243/243/243
f 90/90/90 92/92/92 246/246/246
f 198/198/198 247/247/247 248/248/248
f 249/249/249 155/155/155 250/250/250
f 251/251/251 252/252/252 253/253/253
f 8/8/8 254/254/254 255/255/255
f 256/256/256 257/257/257 258/258/258
f 259/259/259 260/260/260 261/261/261
f 262/262/262 255/255/255 254/254/254
f 173/173/173 263/263/263 264/264/264
f 112/112/112 265/265/265 113/113/113
f 178/178/178 177/177/177 266/266/266
f 267/267/267 65/65/65 67/67/67
f 268/268/268 82/82/82 84/84/84
f 269/269/269 39/39/39 270/270/270
f 270/270/270 271/271/271 272/272/272
f 85/85/85 29/29/29 86/86/86
f 273/273/273 274/274/274 275/275/275
f 276/276/276 277/277/277 278/278/278
f 279/279/279 90/90/90 246/246/246
f 13/13/13 280/280/280 3/3/3
f 281/281/281 282/282/282 205/205/205
f 283/283/283 284/284/284 285/285/285
f 122/122/122 48/48/48 286/286/286
f 120/120/120 149/149/149 287/287/287
f 288/288/288 289/289/289 175/175/175
f 174/174/174 290/290/290 175/175/175
f 61/61/61 291/291/291 62/62/62
f 292/292/292 293/293/293 294/294/294
f 295/295/295 67/67/67 24/24/24
f 296/296/296 297/297/297 295/295/295
f 298/298/298 299/299/299 300/300/300
f 301/301/301 302/302/302 299/299/299
f 196/196/196 303/303/303 20/20/20
f 20/20/20 19/19/19 187/187/187
f 304/304/304 88/88/88 89/89/89
f 178/178/178 305/305/305 176/176/176
f 306/306/306 307/307/307 218/218/218
f 74/74/74 308/308/308 309/309/309
f 310/310/310 311/311/311 312/312/312
f 313/313/313 310/310/310 314/314/314
f 315/315/315 302/302/302 301/301/301
f 316/316/316 317/317/317 301/301/301
f 318/318/318 316/316/316 298/298/298
f 11/11/11 10/10/10 97/97/97
f 319/319/319 317/317/317 316/316/316
f 319/319/319 12/12/12 14/14/14
f 23/23/23 320/320/320 179/179/179
f 321/321/321 322/322/322 250/250/250
f 153/153/153 116/116/116 154/154/154
f 151/151/151 323/323/323 324/324/324
f 28/28/28 325/325/325 29/29/29
f 118/118/118 325/325/325 28/28/28
f 326/326/326 192/192/192 327/327/327
f 54/54/54 328/328/328 248/248/248
f 329/329/329 330/330/330 331/331/331
f 251/251/251 253/253/253 332/332/332
f 110/110/110 109/109/109 158/158/158
f 102/102/102 333/333/333 334/334/334
f 335/335/335 336/336/336 337/337/337
f 338/338/338 339/339/339 340/340/340
f 341/341/341 235/235/235 342/342/342
f 341/341/341 342/342/342 343/343/343
f 344/344/344 345/345/345 346/346/346
f 334/334/334 347/347/347 348/348/348
f 349/349/349 350/350/350 351/351/351
f 127/127/127 352/352/352 128/128/128
f 353/353/353 354/354/354 231/231/231
f 354/354/354 353/353/353 341/341/341
f 355/355/355 356/356/356 45/45/45
f 45/45/45 357/357/357 46/46/46
f 162/162/162 358/358/358 359/359/359
f 360/360/360 74/74/74 335/335/335
f 360/360/360 361/361/361 74/74/74
f 362/362/362 363/363/363 337/337/337
f 27/27/27 364/364/364 365/365/365
f 85/85/85 366/366/366 364/364/364
f 367/367/367 347/347/347 368/368/368
f 288/288/288 369/369/369 289/289/289
f 370/370/370 371/371/371 372/372/372
f 373/373/373 374/374/374 375/375/375
f 2/2/2 376/376/376 3/3/3
f 122/122/122 124/124/124 48/48/48
f 212/212/212 211/211/211 377/377/377
f 378/378/378 379/379/379 380/380/380
f 381/381/381 23/23/23 180/180/180
f 304/304/304 89/89/89 382/382/382
f 383/383/383 384/384/384 217/217/217
f 385/385/385 386/386/386 387/387/387
f 281/281/281 147/147/147 282/282/282
f 243/243/243 388/388/388 245/245/245
f 389/389/389 390/390/390 391/391/391
f 392/392/392 393/393/393 394/394/394
f 315/315/315 395/395/395 396/396/396
f 397/397/397 246/246/246 92/92/92
f 398/398/398 399/399/399 400/400/400
f 32/32/32 339/339/339 338/338/338
f 398/398/398 400/400/400 75/75/75
f 196/196/196 189/189/189 401/401/401
f 402/402/402 403/403/403 16/16/16
f 321/321/321 154/154/154 180/180/180
f 404/404/404 405/405/405 406/406/406
f 407/407/407 4/4/4 6/6/6
f 347/347/347 408/408/408 368/368/368
f 344/344/344 409/409/409 410/410/410
f 411/411/411 349/349/349 351/351/351
f 412/412/412 410/410/410 409/409/409
f 340/340/340 336/336/336 413/413/413
f 414/414/414 191/191/191 190/190/190
f 415/415/415 416/416/416 417/417/417
f 137/137/137 136/136/136 117/117/117
f 198/198/198 248/248/248 328/328/328
f 418/418/418 327/327/327 203/203/203
f 419/419/419 174/174/174 173/173/173
f 245/245/245 420/420/420 244/244/244
f 233/233/233 421/421/421 231/231/231
f 391/391/391 422/422/422 389/389/389
f 384/384/384 423/423/423 217/217/217
f 215/215/215 217/217/217 423/423/423
f 424/424/424 237/237/237 239/239/239
f 273/273/273 239/239/239 425/425/425
f 134/134/134 426/426/426 130/130/130
f 130/130/130 66/66/66 427/427/427
f 428/428/428 429/429/429 430/430/430
f 167/167/167 431/431/431 162/162/162
f 429/429/429 428/428/428 432/432/432
f 129/129/129 131/131/131 433/433/433
f 345/345/345 344/344/344 434/434/434
f 98/98/98 407/407/407 6/6/6
f 186/186/186 54/54/54 435/435/435
f 78/78/78 436/436/436 241/241/241
f 346/346/346 437/437/437 344/344/344
f 438/438/438 39/39/39 439/439/439
f 222/222/222 71/71/71 73/73/73
f 151/151/151 153/153/153 323/323/323
f 226/226/226 228/228/228 229/229/229
f 440/440/440 441/441/441 21/21/21
f 273/273/273 421/421/421 274/274/274
f 233/233/233 274/274/274 421/421/421
f 359/359/359 170/170/170 442/442/442
f 443/443/443 232/232/232 444/444/444
f 91/91/91 90/90/90 445/445/445
f 305/305/305 263/263/263 176/176/176
f 175/175/175 289/289/289 446/446/446
f 413/413/413 336/336/336 335/335/335
f 74/74/74 413/413/413 335/335/335
f 32/32/32 31/31/31 76/76/76
f 309/309/309 447/447/447 448/448/448
f 449/449/449 450/450/450 143/143/143
f 451/451/451 449/449/449 452/452/452
f 453/453/453 454/454/454 455/455/455
f 454/454/454 318/318/318 456/456/456
f 135/135/135 55/55/55 57/57/57
f 457/457/457 458/458/458 138/138/138
f 214/214/214 459/459/459 460/460/460
f 356/356/356 357/357/357 45/45/45
f 291/291/291 461/461/461 462/462/462
f 92/92/92 463/463/463 464/464/464
f 92/92/92 464/464/464 397/397/397
f 129/129/129 465/465/465 466/466/466
f 467/467/467 134/134/134 468/468/468
f 307/307/307 469/469/469 470/470/470
f 129/129/129 433/433/433 465/465/465
f 51/51/51 53/53/53 471/471/471
f 472/472/472 473/473/473 474/474/474
f 475/475/475 476/476/476 386/386/386
f 477/477/477 478/478/478 479/479/479
f 319/319/319 14/14/14 317/317/317
f 376/376/376 315/315/315 480/480/480
f 84/84/84 481/481/481 269/269/269
f 272/272/272 269/269/269 270/270/270
f 291/291/291 462/462/462 42/42/42
f 291/291/291 42/42/42 44/44/44
f 482/482/482 379/379/379 483/483/483
f 212/212/212 484/484/484 485/485/485
f 53/53/53 486/486/486 471/471/471
f 53/53/53 483/483/483 486/486/486
f 487/487/487 488/488/488 272/272/272
f 297/297/297 38/38/38 489/489/489
f 297/297/297 267/267/267 67/67/67
f 67/67/67 295/295/295 297/297/297
f 490/490/490 108/108/108 110/110/110
f 491/491/491 492/492/492 493/493/493
f 352/352/352 467/467/467 468/468/468
f 494/494/494 495/495/495 496/496/496
f 497/497/497 257/257/257 256/256/256
f 498/498/498 494/494/494 496/496/496
f 58/58/58 60/60/60 173/173/173
f 58/58/58 173/173/173 264/264/264
f 50/50/50 49/49/49 499/499/499
f 500/500/500 501/501/501 502/502/502
f 137/137/137 117/117/117 119/119/119
f 139/139/139 501/501/501 140/140/140
f 261/261/261 13/13/13 12/12/12
f 490/490/490 503/503/503 108/108/108
f 504/504/504 505/505/505 506/506/506
f 505/505/505 388/388/388 243/243/243
f 507/507/507 506/506/506 38/38/38
f 488/488/488 487/487/487 508/508/508
f 509/509/509 510/510/510 258/258/258
f 223/223/223 73/73/73 511/511/511
f 511/511/511 73/73/73 311/311/311
f 74/74/74 359/359/359 512/512/512
f 74/74/74 512/512/512 308/308/308
f 120/120/120 513/513/513 149/149/149
f 148/148/148 149/149/149 513/513/513
f 416/416/416 29/29/29 325/325/325
f 273/273/273 86/86/86 29/29/29
f 47/47/47 373/373/373 514/514/514
f 373/373/373 300/300/300 514/514/514
f 347/347/347 334/334/334 5/5/5
f 158/158/158 515/515/515 110/110/110
f 65/65/65 427/427/427 66/66/66
f 225/225/225 516/516/516 517/517/517
f 112/112/112 182/182/182 181/181/181
f 364/364/364 366/366/366 112/112/112
f 264/264/264 304/304/304 265/265/265
f 305/305/305 88/88/88 304/304/304
f 204/204/204 209/209/209 518/518/518
f 519/519/519 210/210/210 212/212/212
f 520/520/520 521/521/521 522/522/522
f 278/278/278 277/277/277 523/523/523
f 90/90/90 443/443/443 445/445/445
f 524/524/524 525/525/525 423/423/423
f 526/526/526 527/527/527 326/326/326
f 256/256/256 329/329/329 528/528/528
f 529/529/529 294/294/294 461/461/461
f 36/36/36 530/530/530 531/531/531
f 120/120/120 532/532/532 28/28/28
f 287/287/287 286/286/286 120/120/120
f 256/256/256 330/330/330 329/329/329
f 256/256/256 258/258/258 330/330/330
f 111/111/111 533/533/533 405/405/405
f 182/182/182 112/112/112 111/111/111
f 534/534/534 535/535/535 336/336/336
f 536/536/536 362/362/362 535/535/535
f 178/178/178 537/537/537 305/305/305
f 537/537/537 178/178/178 266/266/266
f 482/482/482 483/483/483 538/538/538
f 539/539/539 395/395/395 315/315/315
f 86/86/86 59/59/59 87/87/87
f 86/86/86 540/540/540 59/59/59
f 541/541/541 404/404/404 406/406/406
f 114/114/114 365/365/365 542/542/542
f 179/179/179 321/321/321 180/180/180
f 321/321/321 179/179/179 322/322/322
f 459/459/459 15/15/15 460/460/460
f 402/402/402 16/16/16 15/15/15
f 73/73/73 72/72/72 311/311/311
f 523/523/523 543/543/543 72/72/72
f 26/26/26 295/295/295 24/24/24
f 26/26/26 141/141/141 293/293/293
f 340/340/340 339/339/339 201/201/201
f 534/534/534 191/191/191 544/544/544
f 361/361/361 359/359/359 74/74/74
f 197/197/197 194/194/194 193/193/193
f 544/544/544 535/535/535 534/534/534
f 391/391/391 540/540/540 422/422/422
f 422/422/422 540/540/540 545/545/545
f 313/313/313 314/314/314 546/546/546
f 547/547/547 470/470/470 469/469/469
f 221/221/221 163/163/163 547/547/547
f 221/221/221 546/546/546 314/314/314
f 13/13/13 3/3/3 14/14/14
f 3/3/3 376/376/376 480/480/480
f 377/377/377 514/514/514 302/302/302
f 485/485/485 484/484/484 393/393/393
f 527/527/527 526/526/526 548/548/548
f 190/190/190 192/192/192 549/549/549
f 445/445/445 443/443/443 444/444/444
f 445/445/445 354/354/354 550/550/550
f 103/103/103 105/105/105 497/497/497
f 255/255/255 497/497/497 256/256/256
f 289/289/289 551/551/551 446/446/446
f 289/289/289 369/369/369 551/551/551
f 552/552/552 553/553/553 238/238/238
f 238/238/238 553/553/553 554/554/554
f 436/436/436 91/91/91 241/241/241
f 238/238/238 554/554/554 341/341/341
f 555/555/555 172/172/172 126/126/126
f 429/429/429 166/166/166 430/430/430
f 168/168/168 172/172/172 555/555/555
f 296/296/296 36/36/36 297/297/297
f 36/36/36 38/38/38 297/297/297
f 219/219/219 224/224/224 220/220/220
f 225/225/225 220/220/220 224/224/224
f 399/399/399 398/398/398 556/556/556
f 556/556/556 184/184/184 279/279/279
f 557/557/557 184/184/184 77/77/77
f 72/72/72 543/543/543 311/311/311
f 80/80/80 558/558/558 81/81/81
f 40/40/40 232/232/232 41/41/41
f 28/28/28 27/27/27 121/121/121
f 114/114/114 27/27/27 365/365/365
f 310/310/310 312/312/312 314/314/314
f 448/448/448 76/76/76 31/31/31
f 420/420/420 174/174/174 419/419/419
f 420/420/420 559/559/559 560/560/560
f 353/353/353 235/235/235 341/341/341
f 150/150/150 151/151/151 324/324/324
f 122/122/122 227/227/227 123/123/123
f 561/561/561 288/288/288 562/562/562
f 559/559/559 563/563/563 560/560/560
f 415/415/415 417/417/417 117/117/117
f 118/118/118 117/117/117 417/417/417
f 412/412/412 564/564/564 410/410/410
f 99/99/99 411/411/411 351/351/351
f 347/347/347 5/5/5 4/4/4
f 347/347/347 4/4/4 408/408/408
f 407/407/407 408/408/408 4/4/4
f 99/99/99 351/351/351 100/100/100
f 46/46/46 157/157/157 374/374/374
f 374/374/374 565/565/565 371/371/371
f 566/566/566 472/472/472 474/474/474
f 157/157/157 565/565/565 374/374/374
f 17/17/17 16/16/16 97/97/97
f 429/429/429 567/567/567 167/167/167
f 167/167/167 166/166/166 429/429/429
f 568/568/568 547/547/547 163/163/163
f 167/167/167 567/567/567 431/431/431
f 134/134/134 467/467/467 161/161/161
f 480/480/480 315/315/315 317/317/317
f 317/317/317 315/315/315 301/301/301
f 298/298/298 301/301/301 299/299/299
f 316/316/316 301/301/301 298/298/298
f 82/82/82 81/81/81 83/83/83
f 558/558/558 569/569/569 81/81/81
f 486/486/486 570/570/570 471/471/471
f 124/124/124 379/379/379 378/378/378
f 144/144/144 571/571/571 145/145/145
f 551/551/551 177/177/177 176/176/176
f 322/322/322 179/179/179 320/320/320
f 334/334/334 453/453/453 5/5/5
f 5/5/5 453/453/453 455/455/455
f 10/10/10 5/5/5 370/370/370
f 10/10/10 370/370/370 372/372/372
f 61/61/61 63/63/63 572/572/572
f 142/142/142 573/573/573 37/37/37
f 507/507/507 504/504/504 506/506/506
f 574/574/574 575/575/575 576/576/576
f 574/574/574 577/577/577 575/575/575
f 37/37/37 507/507/507 38/38/38
f 162/162/162 359/359/359 442/442/442
f 169/169/169 166/166/166 165/165/165
f 375/375/375 374/374/374 578/578/578
f 318/318/318 578/578/578 456/456/456
f 492/492/492 491/491/491 262/262/262
f 491/491/491 579/579/579 104/104/104
f 104/104/104 579/579/579 106/106/106
f 107/107/107 106/106/106 101/101/101
f 333/333/333 580/580/580 515/515/515
f 106/106/106 580/580/580 101/101/101
f 451/451/451 452/452/452 581/581/581
f 207/207/207 209/209/209 582/582/582
f 139/139/139 119/119/119 501/501/501
f 501/501/501 499/499/499 502/502/502
f 310/310/310 306/306/306 218/218/218
f 511/511/511 311/311/311 310/310/310
f 445/445/445 444/444/444 583/583/583
f 231/231/231 444/444/444 232/232/232
f 276/276/276 41/41/41 277/277/277
f 443/443/443 41/41/41 232/232/232
f 249/249/249 230/230/230 229/229/229
f 584/584/584 585/585/585 229/229/229
f 80/80/80 79/79/79 586/586/586
f 233/233/233 586/586/586 274/274/274
f 587/587/587 434/434/434 16/16/16
f 403/403/403 588/588/588 16/16/16
f 518/518/518 210/210/210 519/519/519
f 205/205/205 285/285/285 284/284/284
f 445/445/445 550/550/550 91/91/91
f 241/241/241 91/91/91 550/550/550
f 133/133/133 589/589/589 24/24/24
f 130/130/130 426/426/426 66/66/66
f 273/273/273 425/425/425 421/421/421
f 231/231/231 421/421/421 425/425/425
f 590/590/590 255/255/255 256/256/256
f 590/590/590 256/256/256 528/528/528
f 528/528/528 548/548/548 526/526/526
f 8/8/8 528/528/528 526/526/526
f 283/283/283 519/519/519 212/212/212
f 283/283/283 212/212/212 485/485/485
f 150/150/150 122/122/122 286/286/286
f 150/150/150 324/324/324 122/122/122
f 323/323/323 227/227/227 324/324/324
f 227/227/227 122/122/122 324/324/324
f 514/514/514 300/300/300 299/299/299
f 299/299/299 302/302/302 514/514/514
f 359/359/359 358/358/358 512/512/512
f 591/591/591 512/512/512 358/358/358
f 3/3/3 502/502/502 1/1/1
f 499/499/499 49/49/49 502/502/502
f 164/164/164 221/221/221 591/591/591
f 447/447/447 221/221/221 448/448/448
f 433/433/433 131/131/131 224/224/224
f 224/224/224 68/68/68 70/70/70
f 219/219/219 433/433/433 224/224/224
f 433/433/433 592/592/592 465/465/465
f 195/195/195 536/536/536 535/535/535
f 593/593/593 193/193/193 535/535/535
f 195/195/195 535/535/535 193/193/193
f 187/187/187 196/196/196 20/20/20
f 189/189/189 196/196/196 187/187/187
f 273/273/273 424/424/424 239/239/239
f 416/416/416 273/273/273 29/29/29
f 53/53/53 283/283/283 483/483/483
f 53/53/53 284/284/284 283/283/283
f 115/115/115 404/404/404 541/541/541
f 116/116/116 115/115/115 154/154/154
f 294/294/294 293/293/293 141/141/141
f 294/294/294 462/462/462 461/461/461
f 462/462/462 294/294/294 141/141/141
f 215/215/215 423/423/423 594/594/594
f 423/423/423 386/386/386 476/476/476
f 595/595/595 234/234/234 239/239/239
f 242/242/242 343/343/343 342/342/342
f 65/65/65 267/267/267 271/271/271
f 487/487/487 272/272/272 271/271/271
f 235/235/235 234/234/234 342/342/342
f 234/234/234 242/242/242 342/342/342
f 271/271/271 267/267/267 487/487/487
f 267/267/267 297/297/297 489/489/489
f 58/58/58 264/264/264 596/596/596
f 85/85/85 87/87/87 366/366/366
f 457/457/457 138/138/138 140/140/140
f 492/492/492 262/262/262 254/254/254
f 60/60/60 94/94/94 244/244/244
f 244/244/244 420/420/420 419/419/419
f 400/400/400 339/339/339 32/32/32
f 199/199/199 203/203/203 202/202/202
f 455/455/455 597/597/597 370/370/370
f 5/5/5 455/455/455 370/370/370
f 463/463/463 436/436/436 598/598/598
f 598/598/598 185/185/185 186/186/186
f 332/332/332 253/253/253 599/599/599
f 510/510/510 330/330/330 258/258/258
f 564/564/564 412/412/412 521/521/521
f 370/370/370 597/597/597 371/371/371
f 371/371/371 578/578/578 374/374/374
f 509/509/509 251/251/251 332/332/332
f 582/582/582 451/451/451 581/581/581
f 331/331/331 599/599/599 253/253/253
f 19/19/19 188/188/188 187/187/187
f 142/142/142 529/529/529 461/461/461
f 573/573/573 142/142/142 600/600/600
f 473/473/473 601/601/601 474/474/474
f 227/227/227 226/226/226 601/601/601
f 537/537/537 266/266/266 602/602/602
f 263/263/263 175/175/175 446/446/446
f 173/173/173 175/175/175 263/263/263
f 47/47/47 46/46/46 373/373/373
f 46/46/46 374/374/374 373/373/373
f 121/121/121 152/152/152 125/125/125
f 125/125/125 152/152/152 149/149/149
f 353/353/353 236/236/236 235/235/235
f 225/225/225 603/603/603 220/220/220
f 439/439/439 225/225/225 438/438/438
f 327/327/327 192/192/192 191/191/191
f 534/534/534 604/604/604 191/191/191
f 231/231/231 236/236/236 353/353/353
f 445/445/445 583/583/583 354/354/354
f 108/108/108 503/503/503 12/12/12
f 108/108/108 12/12/12 319/319/319
f 605/605/605 565/565/565 606/606/606
f 605/605/605 10/10/10 372/372/372
f 98/98/98 6/6/6 434/434/434
f 434/434/434 96/96/96 16/16/16
f 434/434/434 6/6/6 96/96/96
f 6/6/6 5/5/5 11/11/11
f 89/89/89 23/23/23 381/381/381
f 21/21/21 23/23/23 89/89/89
f 418/418/418 203/203/203 198/198/198
f 199/199/199 198/198/198 203/203/203
f 495/495/495 34/34/34 33/33/33
f 104/104/104 107/107/107 105/105/105
f 432/432/432 607/607/607 466/466/466
f 607/607/607 352/352/352 468/468/468
f 86/86/86 545/545/545 540/540/540
f 273/273/273 545/545/545 86/86/86
f 608/608/608 275/275/275 274/274/274
f 608/608/608 274/274/274 586/586/586
f 209/209/209 356/356/356 355/355/355
f 518/518/518 209/209/209 210/210/210
f 175/175/175 290/290/290 288/288/288
f 562/562/562 288/288/288 563/563/563
f 174/174/174 560/560/560 563/563/563
f 420/420/420 560/560/560 174/174/174
f 357/357/357 156/156/156 46/46/46
f 15/15/15 17/17/17 156/156/156
f 357/357/357 15/15/15 156/156/156
f 357/357/357 460/460/460 15/15/15
f 169/169/169 171/171/171 166/166/166
f 166/166/166 555/555/555 126/126/126
f 121/121/121 27/27/27 114/114/114
f 152/152/152 121/121/121 114/114/114
f 389/389/389 79/79/79 390/390/390
f 82/82/82 268/268/268 609/609/609
f 533/533/533 111/111/111 381/381/381
f 111/111/111 113/113/113 382/382/382
f 146/146/146 610/610/610 147/147/147
f 81/81/81 569/569/569 83/83/83
f 64/64/64 481/481/481 40/40/40
f 611/611/611 294/294/294 529/529/529
f 530/530/530 529/529/529 531/531/531
f 399/399/399 200/200/200 199/199/199
f 399/399/399 556/556/556 397/397/397
f 580/580/580 110/110/110 515/515/515
f 490/490/490 110/110/110 580/580/580
f 338/338/338 340/340/340 413/413/413
f 74/74/74 30/30/30 413/413/413
f 323/323/323 585/585/585 584/584/584
f 323/323/323 612/612/612 227/227/227
f 449/449/449 143/143/143 613/613/613
f 613/613/613 143/143/143 459/459/459
f 283/283/283 392/392/392 483/483/483
f 538/538/538 483/483/483 392/392/392
f 465/465/465 592/592/592 568/568/568
f 567/567/567 568/568/568 163/163/163
f 432/432/432 466/466/466 465/465/465
f 465/465/465 568/568/568 567/567/567
f 432/432/432 428/428/428 607/607/607
f 430/430/430 128/128/128 428/428/428
f 140/140/140 614/614/614 254/254/254
f 259/259/259 500/500/500 260/260/260
f 557/557/557 279/279/279 184/184/184
f 615/615/615 616/616/616 557/557/557
f 345/345/345 434/434/434 587/587/587
f 523/523/523 279/279/279 543/543/543
f 616/616/616 279/279/279 557/557/557
f 395/395/395 539/539/539 380/380/380
f 2/2/2 380/380/380 539/539/539
f 101/101/101 333/333/333 102/102/102
f 101/101/101 580/580/580 333/333/333
f 105/105/105 107/107/107 34/34/34
f 107/107/107 101/101/101 34/34/34
f 503/503/503 261/261/261 12/12/12
f 259/259/259 261/261/261 493/493/493
f 344/344/344 410/410/410 98/98/98
f 98/98/98 434/434/434 344/344/344
f 559/559/559 562/562/562 563/563/563
f 62/62/62 291/291/291 44/44/44
f 393/393/393 377/377/377 302/302/302
f 393/393/393 617/617/617 394/394/394
f 315/315/315 396/396/396 302/302/302
f 393/393/393 302/302/302 617/617/617
f 39/39/39 41/41/41 276/276/276
f 39/39/39 71/71/71 222/222/222
f 93/93/93 95/95/95 391/391/391
f 93/93/93 391/391/391 390/390/390
f 53/53/53 52/52/52 284/284/284
f 52/52/52 147/147/147 281/281/281
f 391/391/391 95/95/95 540/540/540
f 95/95/95 59/59/59 540/540/540
f 211/211/211 45/45/45 47/47/47
f 355/355/355 45/45/45 211/211/211
f 59/59/59 94/94/94 60/60/60
f 95/95/95 94/94/94 59/59/59
f 260/260/260 13/13/13 261/261/261
f 502/502/502 3/3/3 280/280/280
f 351/351/351 408/408/408 407/407/407
f 368/368/368 408/408/408 351/351/351
f 87/87/87 58/58/58 366/366/366
f 87/87/87 59/59/59 58/58/58
f 58/58/58 596/596/596 366/366/366
f 112/112/112 366/366/366 596/596/596
f 489/489/489 487/487/487 267/267/267
f 489/489/489 508/508/508 487/487/487
f 463/463/463 92/92/92 436/436/436
f 436/436/436 92/92/92 91/91/91
f 410/410/410 564/564/564 99/99/99
f 410/410/410 99/99/99 98/98/98
f 249/249/249 250/250/250 230/230/230
f 454/454/454 316/316/316 318/318/318
f 160/160/160 319/319/319 316/316/316
f 515/515/515 158/158/158 618/618/618
f 618/618/618 158/158/158 160/160/160
f 77/77/77 619/619/619 557/557/557
f 311/311/311 77/77/77 312/312/312
f 367/367/367 348/348/348 347/347/347
f 35/35/35 34/34/34 102/102/102
f 313/313/313 469/469/469 307/307/307
f 469/469/469 313/313/313 546/546/546
f 35/35/35 348/348/348 367/367/367
f 595/595/595 239/239/239 242/242/242
f 234/234/234 595/595/595 242/242/242
f 25/25/25 24/24/24 589/589/589
f 473/473/473 477/477/477 601/601/601
f 473/473/473 478/478/478 477/477/477
f 208/208/208 214/214/214 460/460/460
f 356/356/356 460/460/460 357/357/357
f 491/491/491 503/503/503 490/490/490
f 579/579/579 491/491/491 490/490/490
f 401/401/401 194/194/194 196/196/196
f 520/520/520 349/349/349 411/411/411
f 564/564/564 411/411/411 99/99/99
f 232/232/232 569/569/569 558/558/558
f 233/233/233 232/232/232 558/558/558
f 40/40/40 569/569/569 232/232/232
f 40/40/40 481/481/481 569/569/569
f 208/208/208 460/460/460 356/356/356
f 209/209/209 208/208/208 356/356/356
f 167/167/167 162/162/162 165/165/165
f 165/165/165 162/162/162 442/442/442
f 154/154/154 115/115/115 541/541/541
f 180/180/180 154/154/154 541/541/541
f 200/200/200 399/399/399 397/397/397
f 397/397/397 464/464/464 247/247/247
f 354/354/354 341/341/341 550/550/550
f 241/241/241 550/550/550 341/341/341
f 238/238/238 341/341/341 343/343/343
f 238/238/238 343/343/343 242/242/242
f 211/211/211 47/47/47 377/377/377
f 47/47/47 514/514/514 377/377/377
f 201/201/201 339/339/339 202/202/202
f 202/202/202 339/339/339 400/400/400
f 2/2/2 539/539/539 376/376/376
f 376/376/376 539/539/539 315/315/315
f 191/191/191 604/604/604 327/327/327
f 327/327/327 604/604/604 203/203/203
f 418/418/418 326/326/326 327/327/327
f 328/328/328 526/526/526 326/326/326
f 344/344/344 437/437/437 409/409/409
f 334/334/334 515/515/515 453/453/453
f 333/333/333 515/515/515 334/334/334
f 32/32/32 76/76/76 75/75/75
f 400/400/400 32/32/32 75/75/75
f 495/495/495 33/33/33 496/496/496
f 505/505/505 504/504/504 388/388/388
f 576/576/576 504/504/504 507/507/507
f 29/29/29 85/85/85 27/27/27
f 364/364/364 27/27/27 85/85/85
f 287/287/287 150/150/150 286/286/286
f 150/150/150 287/287/287 149/149/149
f 591/591/591 308/308/308 512/512/512
f 309/309/309 308/308/308 447/447/447
f 404/404/404 183/183/183 405/405/405
f 183/183/183 404/404/404 542/542/542
f 183/183/183 182/182/182 405/405/405
f 111/111/111 405/405/405 182/182/182
f 423/423/423 525/525/525 386/386/386
f 373/373/373 375/375/375 300/300/300
f 375/375/375 578/578/578 300/300/300
f 11/11/11 96/96/96 6/6/6
f 11/11/11 97/97/97 96/96/96
f 279/279/279 523/523/523 90/90/90
f 277/277/277 90/90/90 523/523/523
f 379/379/379 570/570/570 486/486/486
f 486/486/486 483/483/483 379/379/379
f 482/482/482 395/395/395 380/380/380
f 380/380/380 379/379/379 482/482/482
f 360/360/360 335/335/335 337/337/337
f 459/459/459 402/402/402 15/15/15
f 143/143/143 145/145/145 459/459/459
f 152/152/152 116/116/116 151/151/151
f 153/153/153 151/151/151 116/116/116
f 532/532/532 120/120/120 286/286/286
f 50/50/50 499/499/499 532/532/532
f 134/134/134 130/130/130 129/129/129
f 134/134/134 129/129/129 466/466/466
f 471/471/471 477/477/477 51/51/51
f 477/477/477 479/479/479 51/51/51
f 1/1/1 48/48/48 2/2/2
f 380/380/380 2/2/2 378/378/378
f 49/49/49 48/48/48 1/1/1
f 49/49/49 1/1/1 502/502/502
f 119/119/119 532/532/532 499/499/499
f 119/119/119 499/499/499 501/501/501
f 156/156/156 606/606/606 157/157/157
f 157/157/157 606/606/606 565/565/565
f 600/600/600 461/461/461 291/291/291
f 461/461/461 600/600/600 142/142/142
f 204/204/204 582/582/582 209/209/209
f 283/283/283 285/285/285 519/519/519
f 285/285/285 518/518/518 519/519/519
f 77/77/77 615/615/615 619/619/619
f 615/615/615 557/557/557 619/619/619
f 605/605/605 606/606/606 97/97/97
f 97/97/97 10/10/10 605/605/605
f 311/311/311 615/615/615 77/77/77
f 543/543/543 615/615/615 311/311/311
f 240/240/240 56/56/56 78/78/78
f 552/552/552 56/56/56 553/553/553
f 488/488/488 84/84/84 272/272/272
f 272/272/272 84/84/84 269/269/269
f 226/226/226 230/230/230 474/474/474
f 226/226/226 474/474/474 601/601/601
f 566/566/566 474/474/474 230/230/230
f 454/454/454 160/160/160 316/316/316
f 618/618/618 160/160/160 454/454/454
f 611/611/611 292/292/292 294/294/294
f 296/296/296 530/530/530 36/36/36
f 458/458/458 457/457/457 9/9/9
f 135/135/135 458/458/458 55/55/55
f 185/185/185 55/55/55 458/458/458
f 185/185/185 598/598/598 55/55/55
f 562/562/562 43/43/43 561/561/561
f 314/314/314 312/312/312 448/448/448
f 221/221/221 314/314/314 448/448/448
f 564/564/564 520/520/520 411/411/411
f 564/564/564 521/521/521 520/520/520
f 102/102/102 348/348/348 35/35/35
f 348/348/348 102/102/102 334/334/334
f 205/205/205 518/518/518 285/285/285
f 205/205/205 204/204/204 518/518/518
f 205/205/205 282/282/282 206/206/206
f 551/551/551 176/176/176 446/446/446
f 263/263/263 446/446/446 176/176/176
f 429/429/429 432/432/432 567/567/567
f 432/432/432 465/465/465 567/567/567
f 231/231/231 425/425/425 236/236/236
f 239/239/239 236/236/236 425/425/425
f 186/186/186 435/435/435 464/464/464
f 247/247/247 464/464/464 435/435/435
f 54/54/54 8/8/8 526/526/526
f 54/54/54 526/526/526 328/328/328
f 431/431/431 163/163/163 162/162/162
f 431/431/431 567/567/567 163/163/163
f 547/547/547 469/469/469 546/546/546
f 221/221/221 547/547/547 546/546/546
f 79/79/79 81/81/81 82/82/82
f 609/609/609 79/79/79 82/82/82
f 57/57/57 56/56/56 552/552/552
f 136/136/136 237/237/237 424/424/424
f 585/585/585 323/323/323 153/153/153
f 249/249/249 153/153/153 155/155/155
f 57/57/57 237/237/237 136/136/136
f 135/135/135 57/57/57 136/136/136
f 535/535/535 362/362/362 336/336/336
f 336/336/336 362/362/362 337/337/337
f 536/536/536 363/363/363 362/362/362
f 196/196/196 197/197/197 303/303/303
f 544/544/544 191/191/191 414/414/414
f 197/197/197 193/193/193 593/593/593
f 197/197/197 544/544/544 303/303/303
f 592/592/592 307/307/307 568/568/568
f 218/218/218 307/307/307 219/219/219
f 162/162/162 164/164/164 358/358/358
f 358/358/358 164/164/164 591/591/591
f 126/126/126 128/128/128 430/430/430
f 126/126/126 430/430/430 166/166/166
f 578/578/578 318/318/318 300/300/300
f 300/300/300 318/318/318 298/298/298
f 145/145/145 571/571/571 403/403/403
f 571/571/571 588/588/588 403/403/403
f 241/241/241 341/341/341 554/554/554
f 553/553/553 241/241/241 554/554/554
f 105/105/105 495/495/495 494/494/494
f 105/105/105 34/34/34 495/495/495
f 32/32/32 338/338/338 30/30/30
f 413/413/413 30/30/30 338/338/338
f 41/41/41 443/443/443 277/277/277
f 90/90/90 277/277/277 443/443/443
f 575/575/575 63/63/63 245/245/245
f 575/575/575 245/245/245 576/576/576
f 420/420/420 63/63/63 559/559/559
f 245/245/245 63/63/63 420/420/420
f 492/492/492 259/259/259 493/493/493
f 500/500/500 259/259/259 614/614/614
f 160/160/160 159/159/159 319/319/319
f 109/109/109 108/108/108 319/319/319
f 109/109/109 319/319/319 159/159/159
f 159/159/159 158/158/158 109/109/109
f 392/392/392 485/485/485 393/393/393
f 283/283/283 485/485/485 392/392/392
f 98/98/98 100/100/100 407/407/407
f 351/351/351 407/407/407 100/100/100
f 452/452/452 449/449/449 613/613/613
f 613/613/613 213/213/213 452/452/452
f 450/450/450 144/144/144 143/143/143
f 184/184/184 556/556/556 398/398/398
f 184/184/184 398/398/398 75/75/75
f 65/65/65 271/271/271 270/270/270
f 225/225/225 517/517/517 438/438/438
f 520/520/520 522/522/522 349/349/349
f 224/224/224 131/131/131 68/68/68
f 68/68/68 131/131/131 130/130/130
f 384/384/384 524/524/524 423/423/423
f 188/188/188 19/19/19 253/253/253
f 252/252/252 188/188/188 253/253/253
f 124/124/124 570/570/570 379/379/379
f 124/124/124 123/123/123 570/570/570
f 252/252/252 189/189/189 188/188/188
f 124/124/124 378/378/378 48/48/48
f 2/2/2 48/48/48 378/378/378
f 88/88/88 440/440/440 21/21/21
f 537/537/537 602/602/602 440/440/440
f 305/305/305 537/537/537 88/88/88
f 537/537/537 440/440/440 88/88/88
f 292/292/292 611/611/611 530/530/530
f 530/530/530 611/611/611 529/529/529
f 62/62/62 44/44/44 559/559/559
f 62/62/62 559/559/559 63/63/63
f 510/510/510 599/599/599 330/330/330
f 599/599/599 331/331/331 330/330/330
f 585/585/585 153/153/153 249/249/249
f 585/585/585 249/249/249 229/229/229
f 332/332/332 599/599/599 510/510/510
f 509/509/509 332/332/332 510/510/510
f 312/312/312 77/77/77 76/76/76
f 312/312/312 76/76/76 448/448/448
f 260/260/260 502/502/502 280/280/280
f 500/500/500 502/502/502 260/260/260
f 254/254/254 614/614/614 492/492/492
f 492/492/492 614/614/614 259/259/259
f 26/26/26 293/293/293 295/295/295
f 295/295/295 293/293/293 292/292/292
f 500/500/500 140/140/140 501/501/501
f 140/140/140 500/500/500 614/614/614
f 395/395/395 394/394/394 617/617/617
f 482/482/482 538/538/538 395/395/395
f 135/135/135 139/139/139 138/138/138
f 458/458/458 135/135/135 138/138/138
f 308/308/308 591/591/591 447/447/447
f 447/447/447 591/591/591 221/221/221
f 244/244/244 419/419/419 60/60/60
f 60/60/60 419/419/419 173/173/173
f 422/422/422 545/545/545 275/275/275
f 273/273/273 275/275/275 545/545/545
f 207/207/207 213/213/213 208/208/208
f 207/207/207 582/582/582 581/581/581
f 213/213/213 207/207/207 581/581/581
f 581/581/581 452/452/452 213/213/213
f 556/556/556 279/279/279 246/246/246
f 397/397/397 556/556/556 246/246/246
f 479/479/479 387/387/387 146/146/146
f 146/146/146 51/51/51 479/479/479
f 146/146/146 387/387/387 610/610/610
f 36/36/36 531/531/531 142/142/142
f 142/142/142 531/531/531 529/529/529
f 218/218/218 223/223/223 511/511/511
f 511/511/511 310/310/310 218/218/218
f 555/555/555 166/166/166 171/171/171
f 168/168/168 555/555/555 171/171/171
f 218/218/218 220/220/220 223/223/223
f 223/223/223 220/220/220 603/603/603
f 568/568/568 470/470/470 547/547/547
f 307/307/307 470/470/470 568/568/568
f 39/39/39 222/222/222 439/439/439
f 222/222/222 223/223/223 603/603/603
f 57/57/57 552/552/552 237/237/237
f 237/237/237 552/552/552 238/238/238
f 543/543/543 616/616/616 615/615/615
f 616/616/616 543/543/543 279/279/279
f 440/440/440 602/602/602 441/441/441
f 67/67/67 66/66/66 24/24/24
f 66/66/66 133/133/133 24/24/24
f 577/577/577 572/572/572 575/575/575
f 572/572/572 63/63/63 575/575/575
f 37/37/37 577/577/577 574/574/574
f 577/577/577 37/37/37 572/572/572
f 305/305/305 304/304/304 264/264/264
f 305/305/305 264/264/264 263/263/263
f 37/37/37 573/573/573 572/572/572
f 572/572/572 573/573/573 61/61/61
f 424/424/424 273/273/273 416/416/416
f 136/136/136 424/424/424 416/416/416
f 479/479/479 478/478/478 385/385/385
f 479/479/479 385/385/385 387/387/387
f 476/476/476 475/475/475 594/594/594
f 476/476/476 594/594/594 423/423/423
f 136/136/136 416/416/416 415/415/415
f 136/136/136 415/415/415 117/117/117
f 215/215/215 472/472/472 216/216/216
f 383/383/383 217/217/217 216/216/216
f 472/472/472 215/215/215 473/473/473
f 594/594/594 473/473/473 215/215/215
f 192/192/192 326/326/326 527/527/527
f 192/192/192 527/527/527 549/549/549
f 497/497/497 494/494/494 257/257/257
f 497/497/497 105/105/105 494/494/494
f 576/576/576 388/388/388 504/504/504
f 388/388/388 576/576/576 245/245/245
f 527/527/527 548/548/548 549/549/549
f 18/18/18 329/329/329 331/331/331
f 576/576/576 507/507/507 574/574/574
f 37/37/37 574/574/574 507/507/507
f 111/111/111 382/382/382 381/381/381
f 89/89/89 381/381/381 382/382/382
f 52/52/52 281/281/281 284/284/284
f 281/281/281 205/205/205 284/284/284
f 255/255/255 103/103/103 497/497/497
f 255/255/255 262/262/262 103/103/103
f 268/268/268 506/506/506 609/609/609
f 506/506/506 488/488/488 508/508/508
f 38/38/38 506/506/506 508/508/508
f 489/489/489 38/38/38 508/508/508
f 231/231/231 583/583/583 444/444/444
f 583/583/583 231/231/231 354/354/354
f 494/494/494 498/498/498 257/257/257
f 197/197/197 593/593/593 544/544/544
f 544/544/544 593/593/593 535/535/535
f 587/587/587 16/16/16 588/588/588
f 586/586/586 233/233/233 80/80/80
f 558/558/558 80/80/80 233/233/233
f 170/170/170 169/169/169 442/442/442
f 169/169/169 165/165/165 442/442/442
f 534/534/534 336/336/336 340/340/340
f 340/340/340 604/604/604 534/534/534
f 604/604/604 340/340/340 201/201/201
f 604/604/604 201/201/201 203/203/203
f 78/78/78 55/55/55 598/598/598
f 78/78/78 598/598/598 436/436/436
f 532/532/532 119/119/119 118/118/118
f 532/532/532 118/118/118 28/28/28
f 132/132/132 589/589/589 133/133/133
f 589/589/589 132/132/132 161/161/161
f 561/561/561 369/369/369 288/288/288
f 416/416/416 325/325/325 417/417/417
f 118/118/118 417/417/417 325/325/325
f 227/227/227 601/601/601 123/123/123
f 601/601/601 477/477/477 471/471/471
f 268/268/268 84/84/84 488/488/488
f 268/268/268 488/488/488 506/506/506
f 433/433/433 219/219/219 592/592/592
f 307/307/307 592/592/592 219/219/219
f 295/295/295 292/292/292 296/296/296
f 292/292/292 530/530/530 296/296/296
f 372/372/372 371/371/371 565/565/565
f 605/605/605 372/372/372 565/565/565
f 115/115/115 542/542/542 404/404/404
f 114/114/114 542/542/542 115/115/115
f 213/213/213 613/613/613 214/214/214
f 613/613/613 459/459/459 214/214/214
f 48/48/48 50/50/50 286/286/286
f 532/532/532 286/286/286 50/50/50
f 44/44/44 43/43/43 562/562/562
f 559/559/559 44/44/44 562/562/562
f 454/454/454 456/456/456 455/455/455
f 455/455/455 456/456/456 597/597/597
f 371/371/371 597/597/597 578/578/578
f 597/597/597 456/456/456 578/578/578
f 185/185/185 9/9/9 54/54/54
f 458/458/458 9/9/9 185/185/185
f 517/517/517 516/516/516 427/427/427
f 70/70/70 69/69/69 427/427/427
f 448/448/448 31/31/31 309/309/309
f 74/74/74 309/309/309 31/31/31
f 596/596/596 264/264/264 265/265/265
f 112/112/112 596/596/596 265/265/265
f 7/7/7 254/254/254 8/8/8
f 140/140/140 254/254/254 7/7/7
f 140/140/140 7/7/7 457/457/457
f 457/457/457 7/7/7 9/9/9
f 491/491/491 493/493/493 503/503/503
f 503/503/503 493/493/493 261/261/261
f 580/580/580 579/579/579 490/490/490
f 579/579/579 580/580/580 106/106/106
f 453/453/453 618/618/618 454/454/454
f 515/515/515 618/618/618 453/453/453
f 262/262/262 104/104/104 103/103/103
f 491/491/491 104/104/104 262/262/262
f 427/427/427 69/69/69 130/130/130
f 69/69/69 68/68/68 130/130/130
f 225/225/225 70/70/70 516/516/516
f 70/70/70 427/427/427 516/516/516
f 365/365/365 181/181/181 183/183/183
f 365/365/365 183/183/183 542/542/542
f 365/365/365 364/364/364 181/181/181
f 181/181/181 364/364/364 112/112/112
f 313/313/313 307/307/307 306/306/306
f 313/313/313 306/306/306 310/310/310
f 304/304/304 382/382/382 113/113/113
f 304/304/304 113/113/113 265/265/265
f 323/323/323 584/584/584 612/612/612
f 612/612/612 228/228/228 227/227/227
f 612/612/612 584/584/584 228/228/228
f 584/584/584 229/229/229 228/228/228
f 39/39/39 276/276/276 71/71/71
f 71/71/71 276/276/276 72/72/72
f 276/276/276 278/278/278 72/72/72
f 278/278/278 523/523/523 72/72/72
f 603/603/603 225/225/225 439/439/439
f 222/222/222 603/603/603 439/439/439
f 381/381/381 180/180/180 533/533/533
f 406/406/406 180/180/180 541/541/541
f 260/260/260 280/280/280 13/13/13
f 481/481/481 83/83/83 569/569/569
f 84/84/84 83/83/83 481/481/481
f 66/66/66 426/426/426 133/133/133
f 134/134/134 133/133/133 426/426/426
f 243/243/243 93/93/93 390/390/390
f 93/93/93 243/243/243 94/94/94
f 563/563/563 290/290/290 174/174/174
f 563/563/563 288/288/288 290/290/290
f 212/212/212 377/377/377 484/484/484
f 484/484/484 377/377/377 393/393/393
f 139/139/139 137/137/137 119/119/119
f 135/135/135 137/137/137 139/139/139
f 145/145/145 403/403/403 402/402/402
f 145/145/145 402/402/402 459/459/459
f 56/56/56 240/240/240 553/553/553
f 553/553/553 240/240/240 241/241/241
f 396/396/396 617/617/617 302/302/302
f 395/395/395 617/617/617 396/396/396
f 198/198/198 328/328/328 418/418/418
f 418/418/418 328/328/328 326/326/326
f 428/428/428 128/128/128 607/607/607
f 128/128/128 352/352/352 607/607/607
f 64/64/64 39/39/39 269/269/269
f 64/64/64 269/269/269 481/481/481
f 17/17/17 606/606/606 156/156/156
f 606/606/606 17/17/17 97/97/97
f 210/210/210 355/355/355 211/211/211
f 209/209/209 355/355/355 210/210/210
f 18/18/18 548/548/548 329/329/329
f 528/528/528 329/329/329 548/548/548
f 399/399/399 199/199/199 400/400/400
f 400/400/400 199/199/199 202/202/202
f 14/14/14 3/3/3 480/480/480
f 317/317/317 14/14/14 480/480/480
f 23/23/23 22/22/22 320/320/320
f 422/422/422 608/608/608 586/586/586
f 608/608/608 422/422/422 275/275/275
f 389/389/389 586/586/586 79/79/79
f 422/422/422 586/586/586 389/389/389
f 573/573/573 600/600/600 61/61/61
f 61/61/61 600/600/600 291/291/291
f 397/397/397 247/247/247 200/200/200
f 198/198/198 200/200/200 247/247/247
f 247/247/247 435/435/435 248/248/248
f 54/54/54 248/248/248 435/435/435
f 186/186/186 464/464/464 463/463/463
f 598/598/598 186/186/186 463/463/463
f 368/368/368 351/351/351 350/350/350
f 438/438/438 65/65/65 270/270/270
f 438/438/438 270/270/270 39/39/39
f 438/438/438 517/517/517 65/65/65
f 517/517/517 427/427/427 65/65/65
f 506/506/506 505/505/505 609/609/609
f 243/243/243 390/390/390 505/505/505
f 609/609/609 390/390/390 79/79/79
f 505/505/505 390/390/390 609/609/609
f 607/607/607 468/468/468 466/466/466
f 134/134/134 466/466/466 468/468/468
f 20/20/20 303/303/303 190/190/190
f 20/20/20 190/190/190 549/549/549
f 414/414/414 190/190/190 303/303/303
f 303/303/303 544/544/544 414/414/414
f 321/321/321 155/155/155 154/154/154
f 155/155/155 321/321/321 250/250/250
f 406/406/406 405/405/405 533/533/533
f 180/180/180 406/406/406 533/533/533
f 471/471/471 570/570/570 123/123/123
f 123/123/123 601/601/601 471/471/471
f 395/395/395 538/538/538 394/394/394
f 538/538/538 392/392/392 394/394/394
f 8/8/8 590/590/590 528/528/528
f 8/8/8 255/255/255 590/590/590
f 594/594/594 478/478/478 473/473/473
f 594/594/594 475/475/475 478/478/478
f 478/478/478 475/475/475 385/385/385
f 385/385/385 475/475/475 386/386/386
f 20/20/20 549/549/549 18/18/18
f 18/18/18 549/549/549 548/548/548
f 18/18/18 331/331/331 19/19/19
f 253/253/253 19/19/19 331/331/331
