# Blender 3.4.1
# www.blender.org
mtllib rock1.mtl
o rock_09_Mesh.007
v -0.079366 0.148076 -0.200530
v -0.039173 0.110994 -0.189693
v -0.072960 0.125593 -0.198153
v -0.122035 0.162953 -0.207942
v -0.026692 0.111591 -0.047186
v -0.016848 0.071996 -0.014081
v 0.013014 0.065615 -0.019687
v -0.055624 -0.100503 -0.061258
v -0.039360 -0.099786 -0.083914
v -0.038173 -0.137525 -0.045135
v 0.205885 -0.242700 0.024262
v 0.146308 -0.248491 0.015894
v 0.174230 -0.254287 -0.010255
v 0.108161 -0.111871 -0.138450
v 0.126999 -0.174778 -0.107076
v 0.087851 -0.139482 -0.103111
v 0.121877 0.050058 -0.113242
v 0.095846 0.081904 -0.135733
v 0.074032 0.065280 -0.088650
v -0.146158 0.076507 -0.145361
v -0.161843 0.074828 -0.100344
v -0.200366 0.084615 -0.105220
v -0.002280 0.082224 -0.185925
v 0.026060 0.106144 -0.183396
v 0.102670 0.049322 -0.167663
v 0.121900 -0.049929 -0.012532
v 0.100662 -0.071072 0.022121
v 0.117447 -0.071513 -0.030640
v 0.056921 0.019468 0.010954
v 0.042086 0.010899 0.032174
v 0.066214 -0.023082 0.039283
v 0.189319 -0.145545 -0.136339
v 0.138874 -0.142426 -0.133101
v 0.240024 -0.163547 -0.070957
v 0.244432 -0.181990 -0.036195
v 0.249495 -0.199090 -0.055652
v 0.214377 -0.162583 -0.027758
v 0.228347 -0.150556 -0.073520
v 0.186468 -0.131426 -0.063601
v 0.107582 0.078340 -0.153703
v 0.129268 0.047022 -0.161400
v 0.167414 -0.047722 -0.085183
v 0.131344 -0.051536 -0.047428
v 0.157051 -0.091957 -0.054454
v 0.106344 -0.238586 0.000189
v 0.141137 -0.253313 0.000061
v -0.088100 -0.121553 0.010412
v -0.053078 -0.153205 0.013632
v -0.076393 -0.151448 0.040525
v -0.188194 0.202506 -0.076924
v -0.183907 0.158901 -0.046237
v -0.159884 0.197987 -0.081556
v -0.190602 0.190344 -0.210048
v -0.228612 0.173192 -0.168271
v -0.209484 0.202844 -0.159014
v 0.054208 0.068858 -0.066132
v 0.044490 0.115528 -0.145794
v 0.024664 0.112174 -0.099457
v -0.141392 0.218589 -0.109017
v -0.153039 0.235311 -0.158861
v -0.175359 0.220435 -0.113850
v -0.074647 0.175954 -0.197002
v -0.085809 0.228128 -0.196124
v -0.030079 0.179198 -0.196017
v -0.049386 0.242585 -0.179614
v -0.024138 0.251074 -0.156412
v -0.013814 0.214194 -0.176981
v 0.028460 0.024993 0.038093
v 0.037976 0.030767 0.010489
v -0.004639 0.050284 0.007454
v 0.084865 -0.201410 -0.059320
v 0.128026 -0.202290 -0.079897
v 0.110457 -0.230819 -0.028567
v 0.180786 -0.172278 -0.118663
v 0.187292 -0.209999 -0.075089
v -0.262575 0.111058 -0.053336
v -0.239991 0.103389 -0.007944
v -0.246687 0.138870 -0.028768
v -0.250173 0.159748 -0.149504
v -0.246077 0.167901 -0.088899
v -0.242960 0.176829 -0.131025
v -0.081872 -0.139367 0.046139
v -0.092275 -0.103911 0.034094
v -0.207624 0.053536 -0.018315
v -0.223095 0.058902 0.020027
v -0.224417 0.064630 -0.031220
v -0.122926 0.047543 -0.126880
v -0.093591 0.031318 -0.148453
v -0.049614 0.160113 -0.194096
v -0.037806 -0.182761 0.009660
v 0.003266 -0.219972 0.027840
v -0.041469 -0.187132 0.037168
v -0.068356 0.226496 -0.114669
v -0.076823 0.130930 -0.042474
v -0.045499 0.170019 -0.084881
v -0.023631 0.232305 -0.143189
v -0.020179 0.186825 -0.126532
v -0.009070 0.176507 -0.154200
v -0.184790 0.072577 0.021896
v -0.207509 0.047969 -0.003842
v -0.217033 0.154469 -0.027787
v 0.204454 -0.241718 -0.031242
v 0.247214 -0.236162 -0.045348
v 0.242794 -0.250069 -0.000227
v 0.138641 -0.219377 -0.056478
v 0.204666 -0.219332 -0.055547
v 0.226840 -0.115633 -0.124122
v 0.231394 -0.152569 -0.107060
v 0.209156 -0.128116 -0.136659
v 0.207819 -0.066107 -0.141813
v 0.209672 -0.054802 -0.129910
v 0.204193 -0.058645 -0.117319
v -0.049140 0.058117 -0.173803
v -0.072692 0.038590 -0.158831
v -0.090480 0.087344 -0.192338
v 0.046452 -0.105290 -0.117506
v 0.118757 -0.039320 -0.156247
v 0.074638 0.028983 -0.170965
v 0.018139 0.019138 -0.165191
v 0.043386 -0.013692 -0.169320
v 0.007438 -0.017233 -0.154788
v -0.234460 0.093390 -0.078557
v -0.178055 0.064973 -0.081585
v -0.167555 0.040665 -0.060729
v -0.124153 0.031275 -0.097920
v -0.105337 -0.003165 -0.095149
v -0.111484 -0.019234 -0.035659
v -0.050414 0.087775 -0.184081
v -0.193742 0.176750 -0.215282
v -0.203057 0.141760 -0.190570
v -0.230981 0.155632 -0.169451
v -0.106689 0.226610 -0.112573
v -0.107619 0.247447 -0.164712
v -0.118951 0.250952 -0.184877
v -0.144558 0.226851 -0.203671
v -0.165040 0.232402 -0.179815
v 0.118319 0.023240 -0.063431
v 0.134004 0.017296 -0.097680
v 0.182653 -0.023992 -0.127415
v 0.162916 -0.017460 -0.110097
v -0.256951 0.131458 -0.060907
v -0.253994 0.138256 -0.110836
v -0.254311 0.098130 -0.048228
v -0.227667 0.123163 -0.154852
v -0.191996 0.112073 -0.171019
v 0.208773 -0.103075 -0.133351
v 0.215814 -0.080316 -0.120654
v 0.088154 -0.061961 -0.161592
v 0.196699 -0.072730 -0.146893
v 0.187867 -0.111605 -0.148198
v -0.046897 0.102017 -0.028932
v -0.011161 0.046125 0.038735
v -0.057029 0.063532 0.023404
v 0.088609 -0.229491 0.029442
v 0.047291 -0.227539 0.015226
v 0.071688 -0.227483 0.003660
v 0.057029 -0.039910 -0.156337
v 0.039267 -0.078607 -0.130115
v 0.011617 -0.055879 -0.136772
v -0.034488 -0.031205 -0.130766
v -0.051947 -0.078894 -0.107581
v -0.075391 -0.050673 -0.099495
v -0.230130 0.113278 -0.000821
v -0.092929 -0.039409 -0.094644
v -0.068863 -0.082622 -0.058123
v -0.076667 -0.071180 -0.088977
v -0.082681 -0.048807 -0.017913
v -0.109594 -0.064156 0.028179
v -0.099587 -0.042945 0.003341
v -0.106656 -0.084924 0.003270
v 0.009605 -0.215927 -0.011622
v 0.024072 -0.160402 -0.068561
v 0.036171 -0.206912 -0.043837
v -0.022297 -0.164910 -0.039891
v -0.075936 -0.090134 -0.025060
v -0.096833 -0.095549 0.001968
v -0.062396 -0.107743 -0.007567
v -0.073352 -0.019147 -0.120148
v -0.056771 0.014802 -0.152030
v -0.024473 -0.110504 -0.087569
v 0.006866 -0.129655 -0.082831
v 0.011785 -0.100454 -0.104809
v -0.032054 -0.085985 -0.110818
v 0.215442 -0.087189 -0.108309
v 0.196257 -0.120266 -0.085932
v -0.224098 0.196159 -0.114699
v -0.234211 0.184297 -0.078432
v -0.212236 0.201171 -0.083706
v -0.237866 0.169956 -0.052428
v -0.222799 0.180852 -0.052113
v 0.262011 -0.215711 -0.021823
v 0.253310 -0.243130 0.005184
v 0.262575 -0.226949 -0.047074
v 0.170375 -0.118389 -0.148239
v 0.101519 -0.090995 0.021668
v 0.127237 -0.090627 -0.025362
v -0.089609 0.114287 -0.030676
v -0.086297 0.074248 -0.017702
v -0.174106 0.126871 -0.010815
v -0.154439 0.210745 -0.216037
v -0.182834 0.121688 -0.193352
v -0.130709 0.116774 -0.194104
v -0.146905 0.092908 -0.167618
v 0.050091 0.105091 -0.177718
v 0.083549 0.103431 -0.166624
v 0.091393 0.073641 -0.167690
v 0.011227 0.148149 -0.150232
v 0.001947 0.139354 -0.110487
v 0.128883 0.059877 -0.134478
v 0.132994 0.059084 -0.152176
v 0.254781 -0.230219 0.034076
v 0.248954 -0.239898 0.033943
v 0.233860 -0.242908 0.030647
v 0.209782 -0.246792 -0.005397
v 0.134407 -0.102374 -0.150283
v 0.082818 -0.082491 -0.153990
v 0.039330 -0.218129 -0.020140
v 0.077932 -0.172020 -0.080306
v -0.050038 -0.115890 -0.014597
v -0.039850 -0.162932 -0.002600
v -0.019715 0.164664 -0.110801
v -0.037354 0.146496 -0.074860
v -0.012052 0.117104 -0.075610
v 0.010251 0.094428 -0.049109
v 0.133923 -0.108427 -0.008721
v 0.109458 -0.110818 0.021708
v 0.159924 -0.145176 0.015751
v -0.138014 0.016060 0.019378
v -0.156897 0.001785 0.000098
v -0.129800 -0.008808 0.007516
v -0.134974 0.017613 -0.051961
v -0.140178 -0.012884 -0.011728
v -0.117501 -0.027301 0.001366
v -0.179864 0.226474 -0.158314
v 0.185877 -0.144716 -0.007227
v 0.197365 -0.166987 0.010319
v -0.039557 0.230057 -0.126889
v -0.038969 0.240198 -0.142997
v -0.094378 0.004499 -0.117169
v -0.132640 0.098546 -0.183262
v -0.099068 0.050887 -0.164091
v 0.168674 -0.054128 -0.153348
v 0.160092 -0.012326 -0.158050
v 0.172079 -0.002864 -0.150532
v 0.179938 -0.001576 -0.137898
v -0.091581 0.243141 -0.192267
v -0.094150 0.254287 -0.179363
v -0.042210 0.248322 -0.167739
v 0.096732 0.041490 -0.061130
v 0.119154 -0.048211 0.014470
v 0.103178 0.002101 0.004630
v 0.074921 -0.019737 0.028688
v 0.120343 -0.028837 -0.046222
v 0.110159 -0.007245 -0.026639
v 0.114880 -0.001552 -0.001818
v 0.095232 0.010354 -0.024523
v 0.069114 0.033342 -0.028701
v 0.080861 0.033651 -0.005676
v 0.136682 -0.016100 -0.086869
v 0.101496 0.018960 -0.040768
v -0.163998 0.010506 -0.006791
v -0.188712 0.025776 -0.009035
v -0.176074 0.056878 0.019006
v 0.075115 -0.214710 -0.041984
v -0.131217 0.141398 -0.038662
v -0.147465 0.089575 0.000322
v -0.120486 0.105298 -0.018533
v -0.079805 0.064456 0.000309
v -0.049885 0.073950 -0.012208
v -0.123354 0.077515 -0.001788
v -0.141624 0.072800 0.013923
v -0.105646 0.070055 0.002076
v -0.110501 0.089872 -0.016552
v -0.183067 0.215004 -0.188343
v -0.163602 0.191108 -0.218828
v 0.034899 0.047743 -0.175582
v -0.002500 0.062578 -0.182024
v -0.227182 0.078139 0.004999
v -0.240395 0.081420 -0.043581
v -0.094272 0.173993 -0.066589
v 0.097141 -0.059411 0.031471
v -0.127368 0.180345 -0.067248
v -0.024217 0.005943 -0.149414
v 0.221970 -0.186466 -0.088004
v 0.243220 -0.212346 -0.062719
v 0.234469 -0.175192 -0.087185
v 0.205054 -0.107408 -0.146437
v 0.258797 -0.199115 -0.028155
v 0.156051 -0.114485 -0.036343
v 0.232446 -0.129049 -0.109096
v 0.233722 -0.159690 -0.085228
v 0.254251 -0.210019 0.008051
v 0.089483 0.098430 -0.153421
v -0.172225 0.090536 0.017626
v -0.171925 0.102270 0.004851
v -0.212993 0.112469 0.002017
v -0.242037 0.139784 -0.151036
v -0.255635 0.119343 -0.094296
v -0.093928 -0.032204 -0.012965
v 0.042219 0.130716 -0.182275
v 0.030115 0.151329 -0.172564
v 0.054955 0.121282 -0.168854
v 0.024900 0.142211 -0.188942
v -0.025133 0.132676 -0.184701
v -0.027841 0.208759 -0.188854
v -0.120303 0.013170 0.033934
v -0.226359 0.088361 0.004780
v 0.098680 -0.085521 0.044935
v 0.101713 -0.114007 0.036109
v -0.098221 -0.027627 0.026107
v -0.108172 -0.035556 0.041322
v -0.105251 -0.086790 0.020445
v -0.214151 0.060179 -0.052702
v -0.035941 0.189107 -0.106177
v 0.026812 0.157770 -0.183036
v -0.013259 0.217074 -0.164755
v -0.000358 0.179879 -0.170642
v 0.139060 -0.236750 -0.029740
v 0.081669 -0.030481 -0.164334
v -0.139710 0.056249 -0.099826
v -0.059080 -0.164947 0.041242
v 0.182302 -0.249278 -0.023424
v 0.136050 -0.248217 -0.016010
v 0.183751 -0.034095 -0.147169
v -0.220905 0.135423 -0.010989
v -0.221013 0.104727 0.018138
v -0.144081 0.039348 -0.081622
v 0.189720 -0.068686 -0.098016
v -0.249441 0.154303 -0.057641
v -0.234126 0.147179 -0.022737
v 0.225215 -0.107976 -0.112596
v -0.165495 0.024386 0.014834
v 0.220020 -0.130397 -0.094738
v 0.113833 -0.000091 -0.045347
v 0.116149 -0.239434 -0.014836
v 0.002609 0.177804 -0.183798
v -0.082268 -0.103098 0.055214
vn 0.1938 -0.0071 -0.9810
vn 0.1240 -0.0983 -0.9874
vn 0.1572 -0.1356 -0.9782
vn 0.0756 -0.1721 -0.9822
vn 0.3982 0.6901 0.6043
vn 0.1969 0.6807 0.7056
vn 0.3745 0.7207 0.5833
vn -0.7555 -0.5323 -0.3819
vn -0.5872 -0.6615 -0.4666
vn -0.7499 -0.5086 -0.4230
vn 0.0418 -0.9846 0.1700
vn -0.1172 -0.9515 0.2844
vn 0.0477 -0.9955 -0.0821
vn -0.2687 -0.5670 -0.7786
vn -0.2865 -0.5929 -0.7526
vn -0.3756 -0.5409 -0.7526
vn 0.6150 0.6420 0.4579
vn 0.5111 0.7503 0.4194
vn 0.4896 0.7847 0.3801
vn -0.5420 -0.7383 -0.4014
vn -0.3831 -0.8348 -0.3955
vn -0.4022 -0.8425 -0.3583
vn 0.0501 -0.1216 -0.9913
vn 0.1354 -0.0721 -0.9882
vn 0.2404 0.0992 -0.9656
vn 0.9780 -0.1172 0.1724
vn 0.9419 -0.1152 0.3154
vn 0.8045 0.1110 0.5835
vn 0.3535 0.6126 0.7069
vn 0.6037 0.5913 0.5347
vn 0.5564 0.4989 0.6645
vn 0.1706 -0.4917 -0.8539
vn -0.3129 -0.4736 -0.8233
vn 0.8943 0.4410 -0.0762
vn 0.7470 0.6276 0.2192
vn 0.9012 0.1828 -0.3929
vn 0.5856 0.7406 0.3295
vn 0.6748 0.6713 0.3067
vn 0.6121 0.6653 0.4274
vn 0.6362 0.6826 -0.3596
vn 0.3943 0.2811 -0.8749
vn 0.6375 0.4528 0.6234
vn 0.7896 0.3130 0.5277
vn 0.6786 0.3545 0.6432
vn -0.3460 -0.9363 -0.0599
vn -0.2044 -0.9755 0.0808
vn -0.7302 -0.4971 -0.4688
vn -0.7203 -0.4769 -0.5036
vn -0.7118 -0.6255 -0.3195
vn 0.0378 0.7927 0.6085
vn 0.2251 0.6592 0.7174
vn 0.1580 0.6780 0.7179
vn -0.5573 0.4971 -0.6651
vn -0.7639 0.4061 -0.5015
vn -0.6777 0.6921 -0.2483
vn 0.5294 0.7313 0.4300
vn 0.5457 0.7360 0.4005
vn 0.5774 0.7098 0.4034
vn -0.0397 0.8608 0.5075
vn -0.2554 0.9458 0.2005
vn -0.1678 0.9416 0.2920
vn 0.1577 0.0436 -0.9865
vn 0.1851 0.2309 -0.9552
vn 0.1367 0.0238 -0.9903
vn 0.3015 0.6284 -0.7171
vn 0.4868 0.8689 0.0896
vn 0.7482 0.4396 -0.4970
vn 0.5589 0.7637 0.3230
vn 0.4410 0.7598 0.4777
vn 0.3048 0.8555 0.4185
vn -0.2311 -0.7015 -0.6741
vn -0.1920 -0.7565 -0.6252
vn -0.2648 -0.8587 -0.4387
vn 0.0696 -0.6368 -0.7679
vn 0.0554 -0.8076 -0.5872
vn -0.9831 -0.1696 0.0691
vn -0.8523 -0.1023 0.5130
vn -0.7689 0.3912 0.5057
vn -0.9097 0.1541 -0.3855
vn -0.8930 0.4475 0.0471
vn -0.8076 0.5823 -0.0934
vn -0.9457 -0.3158 0.0766
vn -0.9004 -0.3175 0.2974
vn -0.6037 -0.7674 -0.2162
vn -0.4534 -0.8488 0.2720
vn -0.6567 -0.7535 -0.0308
vn -0.6967 -0.6384 -0.3272
vn -0.4654 -0.6007 -0.6500
vn 0.1481 -0.0913 -0.9847
vn -0.7438 -0.5844 -0.3244
vn -0.4546 -0.8716 -0.1834
vn -0.7096 -0.6751 -0.2018
vn 0.1377 0.7388 0.6597
vn 0.2011 0.5493 0.8111
vn 0.4560 0.5182 0.7236
vn 0.7389 0.4183 0.5283
vn 0.8676 0.2619 0.4226
vn 0.8311 0.3843 0.4021
vn -0.2050 -0.6107 0.7649
vn -0.6263 -0.7532 0.2010
vn 0.0326 0.7020 0.7114
vn 0.0162 -0.8750 -0.4839
vn 0.2095 -0.8172 -0.5369
vn 0.2417 -0.9700 -0.0276
vn -0.1093 -0.8297 -0.5475
vn -0.0025 -0.7982 -0.6024
vn 0.8627 0.1148 -0.4926
vn 0.8020 -0.3035 -0.5145
vn 0.4778 -0.3416 -0.8093
vn 0.7799 0.1084 -0.6165
vn 0.9773 0.1897 0.0939
vn 0.7796 0.4283 0.4570
vn -0.0725 -0.4285 -0.9006
vn -0.1846 -0.5061 -0.8425
vn -0.0591 -0.4007 -0.9143
vn -0.3389 -0.5541 -0.7603
vn 0.1020 -0.0233 -0.9945
vn 0.0923 -0.0699 -0.9933
vn -0.1835 -0.2080 -0.9608
vn -0.1467 -0.2404 -0.9595
vn -0.3247 -0.3062 -0.8949
vn -0.6636 -0.6100 -0.4331
vn -0.3245 -0.7472 -0.5799
vn -0.4693 -0.7423 -0.4783
vn -0.7384 -0.5537 -0.3851
vn -0.8449 -0.3921 -0.3638
vn -0.7004 -0.6814 -0.2124
vn 0.0635 -0.2743 -0.9595
vn -0.4590 -0.0030 -0.8884
vn -0.5921 -0.4271 -0.6834
vn -0.7241 -0.1308 -0.6772
vn -0.0518 0.8292 0.5565
vn -0.1252 0.9324 0.3390
vn -0.1807 0.9366 -0.3003
vn -0.1931 0.6878 -0.6997
vn -0.4493 0.8566 -0.2537
vn 0.7699 0.4400 0.4622
vn 0.8151 0.3902 0.4282
vn 0.6110 0.4662 0.6398
vn 0.6494 0.4774 0.5920
vn -0.9622 0.2648 0.0631
vn -0.9908 0.0256 -0.1326
vn -0.8169 -0.5767 0.0096
vn -0.5807 -0.6493 -0.4911
vn -0.4292 -0.7622 -0.4845
vn 0.7692 0.3270 -0.5490
vn 0.9470 0.3091 -0.0873
vn -0.0881 -0.1703 -0.9815
vn 0.3462 -0.0087 -0.9381
vn 0.1364 -0.1812 -0.9739
vn 0.1753 0.5578 0.8113
vn 0.3805 0.9030 0.1994
vn 0.2188 0.9717 -0.0893
vn -0.2243 -0.9716 0.0748
vn -0.1405 -0.9726 -0.1854
vn -0.1640 -0.9754 -0.1471
vn -0.2380 -0.4037 -0.8834
vn -0.3513 -0.4796 -0.8041
vn -0.2116 -0.4890 -0.8462
vn -0.3989 -0.3196 -0.8595
vn -0.4842 -0.5398 -0.6886
vn -0.5019 -0.3702 -0.7817
vn -0.5115 0.5042 0.6958
vn -0.7735 -0.4321 -0.4637
vn -0.8385 -0.5155 -0.1763
vn -0.7339 -0.5821 -0.3501
vn -0.8919 -0.3471 -0.2898
vn -0.9749 0.1002 -0.1987
vn -0.9036 -0.2260 -0.3638
vn -0.8385 -0.3035 -0.4526
vn -0.4008 -0.8540 -0.3317
vn -0.3576 -0.5268 -0.7711
vn -0.2904 -0.7217 -0.6283
vn -0.6094 -0.5248 -0.5944
vn -0.7947 -0.4619 -0.3938
vn -0.7060 -0.4463 -0.5498
vn -0.5330 -0.6215 -0.5742
vn -0.4356 -0.4843 -0.7588
vn -0.1946 -0.5305 -0.8251
vn -0.3905 -0.6681 -0.6333
vn -0.3435 -0.5886 -0.7319
vn -0.2440 -0.5706 -0.7841
vn -0.2746 -0.6105 -0.7429
vn 0.7734 0.3364 0.5372
vn 0.6115 0.4270 0.6662
vn -0.6438 0.7651 0.0132
vn -0.7000 0.6914 0.1789
vn -0.3917 0.8737 0.2883
vn -0.6546 0.6205 0.4319
vn -0.2861 0.7522 0.5936
vn 0.9944 0.0507 0.0930
vn 0.7757 -0.6290 0.0522
vn 0.8153 -0.3502 -0.4612
vn -0.0046 -0.2738 -0.9618
vn 0.9398 0.1742 0.2938
vn 0.6720 0.4976 0.5484
vn 0.1523 0.4317 0.8891
vn 0.1513 0.6594 0.7364
vn 0.2148 0.6078 0.7645
vn -0.1134 0.4257 -0.8977
vn -0.3244 -0.5868 -0.7419
vn -0.1263 -0.3648 -0.9225
vn -0.4135 -0.7379 -0.5333
vn 0.3396 0.0759 -0.9375
vn 0.6445 0.5567 -0.5241
vn 0.4657 0.2350 -0.8532
vn 0.6557 0.6220 0.4280
vn 0.6352 0.6298 0.4471
vn 0.6344 0.7035 0.3204
vn 0.6713 0.6497 -0.3567
vn 0.9416 -0.2981 0.1568
vn 0.5858 -0.7774 0.2292
vn 0.0218 -0.9771 0.2119
vn 0.0527 -0.9984 -0.0214
vn -0.1051 -0.3760 -0.9206
vn -0.2788 -0.4399 -0.8537
vn -0.1481 -0.9413 -0.3034
vn -0.3357 -0.5253 -0.7819
vn -0.8009 -0.4997 -0.3299
vn -0.8511 -0.3460 -0.3948
vn 0.7450 0.4664 0.4769
vn 0.6315 0.5074 0.5863
vn 0.5292 0.6946 0.4873
vn 0.4604 0.7251 0.5121
vn 0.5677 0.6927 0.4449
vn 0.6851 0.5433 0.4852
vn 0.4896 0.6944 0.5274
vn -0.4233 -0.7418 0.5201
vn -0.6567 -0.6751 0.3362
vn -0.5143 -0.5179 0.6836
vn -0.5912 -0.6875 -0.4218
vn -0.6082 -0.7621 -0.2221
vn -0.5820 -0.8037 0.1239
vn -0.4788 0.8776 -0.0251
vn 0.5744 0.7276 0.3750
vn 0.5916 0.6942 0.4099
vn 0.3859 0.6468 0.6579
vn 0.1110 0.8546 0.5073
vn -0.7042 -0.4816 -0.5216
vn -0.3039 -0.5910 -0.7473
vn -0.3408 -0.6195 -0.7071
vn 0.1821 -0.0609 -0.9814
vn 0.2801 0.0163 -0.9598
vn 0.6448 0.2673 -0.7161
vn 0.8735 0.4832 0.0599
vn 0.1370 0.5604 -0.8168
vn 0.0360 0.9894 -0.1406
vn 0.0693 0.9852 -0.1567
vn 0.5127 0.7206 0.4668
vn 0.8653 -0.0975 0.4917
vn 0.4582 0.4631 0.7587
vn 0.4984 0.5008 0.7077
vn 0.8975 0.3062 0.3172
vn 0.9134 0.4025 0.0606
vn 0.8462 0.4713 0.2485
vn 0.7170 0.6878 0.1136
vn 0.5488 0.8172 0.1761
vn 0.5271 0.7939 0.3029
vn 0.7391 0.3698 0.5630
vn 0.6279 0.5514 0.5494
vn -0.6785 -0.7296 -0.0859
vn -0.6705 -0.7357 0.0957
vn -0.5171 -0.4075 0.7527
vn -0.1526 -0.8498 -0.5045
vn 0.1663 0.5834 0.7950
vn 0.3918 0.5783 0.7156
vn 0.2771 0.4384 0.8550
vn 0.1390 0.9690 0.2043
vn 0.0111 0.6417 0.7668
vn 0.2712 0.6995 0.6612
vn 0.3859 0.6886 0.6140
vn 0.2787 0.8190 0.5016
vn 0.3171 0.4612 0.8287
vn -0.5844 0.6928 -0.4224
vn -0.0363 0.0171 -0.9992
vn 0.0258 -0.2505 -0.9678
vn -0.0216 -0.3288 -0.9442
vn -0.9560 -0.2144 0.2004
vn -0.7398 -0.6672 -0.0873
vn 0.1881 0.5916 0.7840
vn 0.7484 0.0525 0.6612
vn 0.0437 0.6415 0.7659
vn -0.2250 -0.4749 -0.8508
vn 0.3351 -0.5762 -0.7454
vn 0.4262 -0.4129 -0.8049
vn 0.7886 -0.2318 -0.5696
vn 0.5338 -0.0009 -0.8456
vn 0.8617 0.5056 0.0426
vn 0.6511 0.6365 0.4135
vn 0.9735 0.2178 0.0697
vn 0.9725 0.2142 -0.0917
vn 0.8449 0.4736 0.2487
vn 0.6904 0.7147 0.1119
vn 0.3306 0.7060 0.6263
vn 0.2815 0.6221 0.7306
vn 0.0666 0.6999 0.7112
vn -0.7730 -0.3902 -0.5002
vn -0.8919 -0.3824 -0.2413
vn -0.6914 -0.6876 -0.2220
vn 0.6466 0.2639 -0.7157
vn 0.7292 0.6126 0.3049
vn 0.7084 0.6801 -0.1889
vn 0.2473 0.0477 -0.9678
vn 0.1292 -0.0572 -0.9900
vn 0.3489 0.3498 -0.8694
vn -0.6900 -0.5736 0.4414
vn -0.8502 -0.1247 0.5115
vn 0.9891 0.0800 0.1239
vn 0.8261 0.4120 0.3845
vn -0.9823 -0.1689 -0.0809
vn -0.8942 0.0644 -0.4431
vn -0.9213 -0.3845 0.0581
vn -0.4900 -0.8206 -0.2941
vn 0.7009 0.3753 0.6066
vn 0.6916 0.6120 -0.3835
vn 0.9555 0.2748 0.1069
vn 0.8177 0.4859 0.3087
vn -0.1648 -0.7923 -0.5874
vn 0.0395 -0.1505 -0.9878
vn -0.6581 -0.6163 -0.4325
vn -0.7081 -0.6080 -0.3590
vn 0.0517 -0.8510 -0.5227
vn -0.2648 -0.8594 -0.4374
vn 0.4869 0.1544 -0.8597
vn -0.1357 0.5609 0.8167
vn -0.2756 0.6895 0.6698
vn -0.5811 -0.6280 -0.5177
vn 0.6345 0.3771 0.6747
vn -0.8834 0.4176 0.2127
vn -0.4213 0.5611 0.7125
vn 0.8795 0.3310 0.3419
vn -0.5703 -0.5737 0.5878
vn 0.5251 0.6165 0.5866
vn 0.8627 0.2849 0.4178
vn -0.3966 -0.8493 -0.3484
vn 0.6719 0.6306 0.3885
vn -0.8886 -0.1663 0.4274
vt 0.723550 0.874000
vt 0.723870 0.881890
vt 0.721260 0.876560
vt 0.721630 0.867600
vt 0.768340 0.867050
vt 0.778670 0.870060
vt 0.778990 0.879290
vt 0.682780 0.906950
vt 0.688640 0.908870
vt 0.681000 0.917860
vt 0.723910 0.983270
vt 0.705980 0.975390
vt 0.715950 0.972650
vt 0.718510 0.926590
vt 0.716040 0.941650
vt 0.709650 0.932270
vt 0.755660 0.903480
vt 0.750250 0.896210
vt 0.763000 0.894320
vt 0.704060 0.867150
vt 0.699210 0.861420
vt 0.703390 0.853880
vt 0.725860 0.888030
vt 0.734110 0.887760
vt 0.738340 0.901260
vt 0.780870 0.923740
vt 0.790280 0.928260
vt 0.776860 0.930050
vt 0.789490 0.895550
vt 0.795150 0.893810
vt 0.797610 0.908130
vt 0.731700 0.938990
vt 0.722330 0.934950
vt 0.745460 0.954600
vt 0.749130 0.963840
vt 0.742080 0.962830
vt 0.758270 0.960130
vt 0.748270 0.951750
vt 0.758660 0.946450
vt 0.745400 0.897980
vt 0.742630 0.903990
vt 0.759440 0.926020
vt 0.771850 0.925520
vt 0.766570 0.936780
vt 0.698060 0.964870
vt 0.706760 0.971320
vt 0.664350 0.907750
vt 0.667200 0.920560
vt 0.659340 0.917270
vt 0.736310 0.842350
vt 0.739440 0.836650
vt 0.741170 0.844710
vt 0.722120 0.856550
vt 0.720220 0.850850
vt 0.725680 0.850250
vt 0.768410 0.889750
vt 0.748710 0.886030
vt 0.759140 0.881650
vt 0.740490 0.849530
vt 0.733790 0.853570
vt 0.735100 0.847520
vt 0.727970 0.872180
vt 0.733210 0.865500
vt 0.733650 0.875710
vt 0.738850 0.866430
vt 0.743400 0.866920
vt 0.740730 0.872580
vt 0.794940 0.886570
vt 0.788680 0.889150
vt 0.785710 0.874760
vt 0.701700 0.947370
vt 0.712940 0.949410
vt 0.702790 0.959580
vt 0.728090 0.944480
vt 0.725600 0.956550
vt 0.712040 0.837500
vt 0.713720 0.830160
vt 0.721290 0.832890
vt 0.718470 0.848030
vt 0.722340 0.840670
vt 0.722060 0.845940
vt 0.657600 0.913730
vt 0.658760 0.903530
vt 0.692790 0.843950
vt 0.694120 0.833880
vt 0.698720 0.841120
vt 0.699940 0.873280
vt 0.703220 0.880890
vt 0.728950 0.876080
vt 0.669690 0.929620
vt 0.671620 0.945630
vt 0.663660 0.931170
vt 0.746850 0.859410
vt 0.762930 0.853890
vt 0.756680 0.863300
vt 0.745510 0.867540
vt 0.750170 0.870170
vt 0.745990 0.875160
vt 0.682160 0.837620
vt 0.690300 0.842450
vt 0.730650 0.832910
vt 0.724940 0.969820
vt 0.735200 0.968470
vt 0.733850 0.978180
vt 0.712470 0.956920
vt 0.727790 0.962340
vt 0.742330 0.938320
vt 0.740720 0.946610
vt 0.736870 0.937580
vt 0.742480 0.927360
vt 0.745920 0.926480
vt 0.748720 0.928180
vt 0.714570 0.885170
vt 0.707710 0.883850
vt 0.713860 0.876640
vt 0.706030 0.920110
vt 0.729590 0.915160
vt 0.730540 0.901500
vt 0.719200 0.897090
vt 0.719270 0.903750
vt 0.711850 0.900530
vt 0.706760 0.844480
vt 0.697060 0.857370
vt 0.690820 0.859090
vt 0.694210 0.872860
vt 0.691480 0.881400
vt 0.679110 0.878940
vt 0.718990 0.882610
vt 0.719920 0.857170
vt 0.714960 0.857010
vt 0.717540 0.851670
vt 0.744050 0.853780
vt 0.737350 0.858370
vt 0.734070 0.859070
vt 0.728810 0.859080
vt 0.730300 0.854940
vt 0.767680 0.907520
vt 0.759010 0.910260
vt 0.749190 0.920060
vt 0.754670 0.918330
vt 0.716390 0.837620
vt 0.715910 0.844030
vt 0.708820 0.837680
vt 0.712880 0.852360
vt 0.709590 0.859150
vt 0.740710 0.933950
vt 0.746030 0.932190
vt 0.721140 0.915460
vt 0.739560 0.927230
vt 0.733850 0.932430
vt 0.770540 0.860780
vt 0.792430 0.872400
vt 0.785070 0.857180
vt 0.689210 0.966560
vt 0.682140 0.955250
vt 0.689390 0.958620
vt 0.717740 0.909400
vt 0.708260 0.914290
vt 0.706700 0.907040
vt 0.702070 0.897340
vt 0.692510 0.902660
vt 0.691090 0.894610
vt 0.720380 0.828100
vt 0.689610 0.889750
vt 0.681370 0.901060
vt 0.687530 0.898030
vt 0.673750 0.889320
vt 0.661460 0.888440
vt 0.668950 0.884180
vt 0.665160 0.896250
vt 0.680210 0.942620
vt 0.693200 0.930500
vt 0.689930 0.943040
vt 0.681350 0.926040
vt 0.673950 0.901430
vt 0.666160 0.900120
vt 0.671430 0.908260
vt 0.696790 0.890000
vt 0.706250 0.888660
vt 0.690930 0.912790
vt 0.694120 0.921170
vt 0.699240 0.915430
vt 0.694860 0.906500
vt 0.748340 0.934680
vt 0.753870 0.942440
vt 0.727020 0.844560
vt 0.726730 0.840270
vt 0.731520 0.842000
vt 0.726040 0.836690
vt 0.729690 0.837490
vt 0.742580 0.971950
vt 0.737220 0.978960
vt 0.738900 0.967820
vt 0.730200 0.932080
vt 0.789310 0.933950
vt 0.776100 0.935540
vt 0.764220 0.849320
vt 0.772280 0.848670
vt 0.743320 0.830850
vt 0.725680 0.859770
vt 0.712670 0.860930
vt 0.714130 0.868870
vt 0.707840 0.867240
vt 0.738160 0.889630
vt 0.743290 0.892500
vt 0.740360 0.897150
vt 0.747830 0.879430
vt 0.755930 0.876210
vt 0.749990 0.902690
vt 0.745840 0.902930
vt 0.742210 0.984540
vt 0.738290 0.985240
vt 0.732950 0.985260
vt 0.725330 0.976410
vt 0.724920 0.926250
vt 0.717780 0.918320
vt 0.686600 0.948150
vt 0.703920 0.938890
vt 0.673690 0.911690
vt 0.671870 0.924330
vt 0.754230 0.870810
vt 0.760660 0.865520
vt 0.763800 0.872670
vt 0.770300 0.877300
vt 0.778180 0.941500
vt 0.787970 0.939890
vt 0.777600 0.955100
vt 0.670380 0.861730
vt 0.676800 0.861970
vt 0.671760 0.869450
vt 0.685850 0.869350
vt 0.676390 0.869400
vt 0.671470 0.876510
vt 0.730600 0.851760
vt 0.768170 0.956800
vt 0.766920 0.965560
vt 0.746810 0.864380
vt 0.744730 0.864660
vt 0.696300 0.883170
vt 0.710770 0.869390
vt 0.706620 0.878420
vt 0.736520 0.921730
vt 0.740230 0.914970
vt 0.743800 0.914910
vt 0.746920 0.915900
vt 0.734340 0.863100
vt 0.736250 0.861090
vt 0.740960 0.865940
vt 0.768880 0.901540
vt 0.787200 0.922210
vt 0.785140 0.908710
vt 0.794380 0.908580
vt 0.772830 0.919180
vt 0.777310 0.912590
vt 0.782860 0.911240
vt 0.778060 0.906390
vt 0.777890 0.897210
vt 0.782980 0.899480
vt 0.762300 0.917140
vt 0.773900 0.906080
vt 0.679490 0.859190
vt 0.684560 0.851020
vt 0.680300 0.842340
vt 0.697070 0.950480
vt 0.753060 0.841320
vt 0.756320 0.830900
vt 0.760730 0.840190
vt 0.777160 0.850150
vt 0.776440 0.859780
vt 0.765350 0.836390
vt 0.761340 0.828650
vt 0.772330 0.840780
vt 0.765770 0.841880
vt 0.726770 0.854700
vt 0.722960 0.859930
vt 0.726510 0.895590
vt 0.722940 0.889850
vt 0.703460 0.831190
vt 0.704080 0.839700
vt 0.754420 0.852300
vt 0.792950 0.923800
vt 0.749010 0.846960
vt 0.709880 0.894100
vt 0.736040 0.953760
vt 0.737670 0.962800
vt 0.740230 0.952990
vt 0.737370 0.933150
vt 0.746160 0.969000
vt 0.769450 0.943380
vt 0.743710 0.942720
vt 0.743820 0.951350
vt 0.746320 0.977450
vt 0.745980 0.893670
vt 0.747770 0.823660
vt 0.746250 0.827120
vt 0.727710 0.826390
vt 0.715570 0.849610
vt 0.712950 0.842690
vt 0.673420 0.883770
vt 0.740040 0.885800
vt 0.742690 0.882040
vt 0.742840 0.887700
vt 0.738200 0.883330
vt 0.729180 0.881180
vt 0.737560 0.872560
vt 0.664710 0.865460
vt 0.708570 0.828860
vt 0.794920 0.932730
vt 0.791970 0.940170
vt 0.665100 0.878330
vt 0.660700 0.879350
vt 0.661610 0.896870
vt 0.698410 0.847030
vt 0.752700 0.865730
vt 0.740660 0.881490
vt 0.742740 0.871600
vt 0.742470 0.876630
vt 0.709400 0.963770
vt 0.723770 0.910190
vt 0.696550 0.867310
vt 0.660930 0.923350
vt 0.719000 0.970210
vt 0.707200 0.967250
vt 0.742120 0.920470
vt 0.727560 0.829830
vt 0.722480 0.823450
vt 0.692500 0.866440
vt 0.754110 0.930610
vt 0.721590 0.836910
vt 0.725620 0.832410
vt 0.745500 0.938470
vt 0.676240 0.853790
vt 0.747830 0.944580
vt 0.772640 0.911870
vt 0.702400 0.963760
vt 0.739790 0.877700
vt 0.653600 0.905670
s 1
f 1/1/1 2/2/2 3/3/3
f 4/4/4 1/1/1 3/3/3
f 5/5/5 6/6/6 7/7/7
f 8/8/8 9/9/9 10/10/10
f 11/11/11 12/12/12 13/13/13
f 14/14/14 15/15/15 16/16/16
f 17/17/17 18/18/18 19/19/19
f 20/20/20 21/21/21 22/22/22
f 23/23/23 24/24/24 25/25/25
f 26/26/26 27/27/27 28/28/28
f 29/29/29 30/30/30 31/31/31
f 32/32/32 15/15/15 33/33/33
f 34/34/34 35/35/35 36/36/36
f 37/37/37 38/38/38 39/39/39
f 40/40/40 41/41/41 25/25/25
f 42/42/42 43/43/43 44/44/44
f 12/12/12 45/45/45 46/46/46
f 47/47/47 48/48/48 49/49/49
f 50/50/50 51/51/51 52/52/52
f 53/53/53 54/54/54 55/55/55
f 56/56/56 57/57/57 58/58/58
f 59/59/59 60/60/60 61/61/61
f 62/62/62 63/63/63 64/64/64
f 65/65/65 66/66/66 67/67/67
f 68/68/68 69/69/69 70/70/70
f 71/71/71 72/72/72 73/73/73
f 72/72/72 74/74/74 75/75/75
f 76/76/76 77/77/77 78/78/78
f 79/79/79 80/80/80 81/81/81
f 82/82/82 83/83/83 47/47/47
f 84/84/84 85/85/85 86/86/86
f 87/87/87 20/20/20 88/88/88
f 1/1/1 89/89/89 2/2/2
f 90/90/90 91/91/91 92/92/92
f 93/93/93 94/94/94 95/95/95
f 96/96/96 97/97/97 98/98/98
f 99/99/99 85/85/85 100/100/100
f 101/101/101 51/51/51 50/50/50
f 102/102/102 103/103/103 104/104/104
f 102/102/102 105/105/105 106/106/106
f 107/107/107 108/108/108 109/109/109
f 110/110/110 111/111/111 112/112/112
f 113/113/113 114/114/114 115/115/115
f 116/116/116 14/14/14 16/16/16
f 25/25/25 117/117/117 118/118/118
f 119/119/119 120/120/120 121/121/121
f 122/122/122 123/123/123 124/124/124
f 125/125/125 126/126/126 127/127/127
f 3/3/3 128/128/128 115/115/115
f 129/129/129 130/130/130 131/131/131
f 60/60/60 132/132/132 133/133/133
f 134/134/134 135/135/135 136/136/136
f 17/17/17 137/137/137 138/138/138
f 42/42/42 139/139/139 140/140/140
f 141/141/141 80/80/80 142/142/142
f 143/143/143 144/144/144 145/145/145
f 146/146/146 110/110/110 147/147/147
f 148/148/148 149/149/149 150/150/150
f 95/95/95 94/94/94 151/151/151
f 152/152/152 70/70/70 153/153/153
f 154/154/154 155/155/155 156/156/156
f 157/157/157 158/158/158 159/159/159
f 160/160/160 161/161/161 162/162/162
f 77/77/77 163/163/163 78/78/78
f 127/127/127 126/126/126 164/164/164
f 9/9/9 165/165/165 166/166/166
f 165/165/165 167/167/167 166/166/166
f 168/168/168 169/169/169 170/170/170
f 171/171/171 91/91/91 90/90/90
f 172/172/172 173/173/173 174/174/174
f 167/167/167 175/175/175 176/176/176
f 177/177/177 48/48/48 47/47/47
f 178/178/178 160/160/160 162/162/162
f 113/113/113 179/179/179 114/114/114
f 180/180/180 181/181/181 10/10/10
f 159/159/159 182/182/182 183/183/183
f 184/184/184 44/44/44 185/185/185
f 146/146/146 147/147/147 107/107/107
f 186/186/186 187/187/187 188/188/188
f 189/189/189 101/101/101 190/190/190
f 191/191/191 192/192/192 193/193/193
f 32/32/32 109/109/109 108/108/108
f 194/194/194 32/32/32 33/33/33
f 28/28/28 195/195/195 196/196/196
f 197/197/197 198/198/198 151/151/151
f 101/101/101 199/199/199 51/51/51
f 200/200/200 63/63/63 62/62/62
f 4/4/4 201/201/201 129/129/129
f 201/201/201 4/4/4 202/202/202
f 203/203/203 22/22/22 145/145/145
f 204/204/204 205/205/205 206/206/206
f 57/57/57 207/207/207 208/208/208
f 17/17/17 140/140/140 139/139/139
f 209/209/209 210/210/210 40/40/40
f 211/211/211 212/212/212 192/192/192
f 213/213/213 214/214/214 104/104/104
f 148/148/148 150/150/150 215/215/215
f 216/216/216 14/14/14 116/116/116
f 156/156/156 155/155/155 217/217/217
f 218/218/218 173/173/173 172/172/172
f 219/219/219 10/10/10 220/220/220
f 174/174/174 171/171/171 90/90/90
f 208/208/208 207/207/207 221/221/221
f 95/95/95 151/151/151 222/222/222
f 223/223/223 208/208/208 221/221/221
f 56/56/56 58/58/58 224/224/224
f 225/225/225 226/226/226 227/227/227
f 226/226/226 196/196/196 195/195/195
f 228/228/228 229/229/229 230/230/230
f 231/231/231 127/127/127 232/232/232
f 127/127/127 166/166/166 167/167/167
f 127/127/127 233/233/233 232/232/232
f 54/54/54 81/81/81 55/55/55
f 186/186/186 188/188/188 234/234/234
f 191/191/191 211/211/211 192/192/192
f 235/235/235 236/236/236 37/37/37
f 93/93/93 95/95/95 237/237/237
f 132/132/132 238/238/238 133/133/133
f 88/88/88 239/239/239 87/87/87
f 179/179/179 178/178/178 88/88/88
f 240/240/240 241/241/241 203/203/203
f 240/240/240 203/203/203 145/145/145
f 242/242/242 117/117/117 25/25/25
f 25/25/25 41/41/41 243/243/243
f 244/244/244 210/210/210 245/245/245
f 210/210/210 209/209/209 245/245/245
f 246/246/246 135/135/135 134/134/134
f 65/65/65 247/247/247 248/248/248
f 6/6/6 69/69/69 7/7/7
f 249/249/249 17/17/17 19/19/19
f 250/250/250 251/251/251 252/252/252
f 43/43/43 253/253/253 26/26/26
f 254/254/254 255/255/255 26/26/26
f 256/256/256 257/257/257 258/258/258
f 137/137/137 253/253/253 259/259/259
f 249/249/249 257/257/257 260/260/260
f 231/231/231 261/261/261 124/124/124
f 124/124/124 84/84/84 86/86/86
f 100/100/100 262/262/262 263/263/263
f 124/124/124 262/262/262 84/84/84
f 156/156/156 217/217/217 264/264/264
f 73/73/73 156/156/156 264/264/264
f 265/265/265 266/266/266 267/267/267
f 268/268/268 269/269/269 198/198/198
f 270/270/270 271/271/271 272/272/272
f 273/273/273 270/270/270 272/272/272
f 259/259/259 253/253/253 43/43/43
f 140/140/140 43/43/43 42/42/42
f 200/200/200 53/53/53 274/274/274
f 275/275/275 200/200/200 4/4/4
f 69/69/69 68/68/68 30/30/30
f 23/23/23 25/25/25 276/276/276
f 277/277/277 276/276/276 179/179/179
f 278/278/278 143/143/143 279/279/279
f 143/143/143 145/145/145 122/122/122
f 280/280/280 265/265/265 94/94/94
f 265/265/265 267/267/267 197/197/197
f 250/250/250 31/31/31 281/281/281
f 132/132/132 93/93/93 238/238/238
f 282/282/282 265/265/265 280/280/280
f 256/256/256 258/258/258 255/255/255
f 29/29/29 252/252/252 251/251/251
f 121/121/121 283/283/283 119/119/119
f 283/283/283 160/160/160 178/178/178
f 106/106/106 105/105/105 75/75/75
f 74/74/74 284/284/284 75/75/75
f 75/75/75 284/284/284 285/285/285
f 286/286/286 34/34/34 36/36/36
f 150/150/150 109/109/109 32/32/32
f 287/287/287 150/150/150 149/149/149
f 288/288/288 37/37/37 236/236/236
f 36/36/36 35/35/35 288/288/288
f 37/37/37 289/289/289 235/235/235
f 43/43/43 196/196/196 44/44/44
f 175/175/175 177/177/177 176/176/176
f 219/219/219 8/8/8 10/10/10
f 2/2/2 24/24/24 23/23/23
f 277/277/277 179/179/179 113/113/113
f 45/45/45 12/12/12 154/154/154
f 224/224/224 7/7/7 56/56/56
f 258/258/258 257/257/257 7/7/7
f 6/6/6 70/70/70 69/69/69
f 269/269/269 268/268/268 70/70/70
f 38/38/38 185/185/185 39/39/39
f 290/290/290 291/291/291 108/108/108
f 292/292/292 288/288/288 236/236/236
f 206/206/206 205/205/205 293/293/293
f 19/19/19 18/18/18 57/57/57
f 294/294/294 295/295/295 296/296/296
f 142/142/142 297/297/297 298/298/298
f 54/54/54 129/129/129 131/131/131
f 169/169/169 167/167/167 170/170/170
f 299/299/299 233/233/233 127/127/127
f 300/300/300 301/301/301 302/302/302
f 303/303/303 304/304/304 64/64/64
f 63/63/63 305/305/305 64/64/64
f 64/64/64 305/305/305 303/303/303
f 4/4/4 3/3/3 115/115/115
f 1/1/1 4/4/4 200/200/200
f 240/240/240 115/115/115 241/241/241
f 4/4/4 115/115/115 202/202/202
f 306/306/306 228/228/228 230/230/230
f 278/278/278 307/307/307 143/143/143
f 88/88/88 178/178/178 239/239/239
f 239/239/239 178/178/178 164/164/164
f 218/218/218 71/71/71 173/173/173
f 218/218/218 15/15/15 71/71/71
f 257/257/257 56/56/56 7/7/7
f 257/257/257 249/249/249 56/56/56
f 55/55/55 186/186/186 234/234/234
f 135/135/135 274/274/274 136/136/136
f 195/195/195 308/308/308 309/309/309
f 250/250/250 281/281/281 27/27/27
f 306/306/306 310/310/310 311/311/311
f 312/312/312 47/47/47 83/83/83
f 176/176/176 177/177/177 47/47/47
f 312/312/312 176/176/176 47/47/47
f 124/124/124 313/313/313 122/122/122
f 122/122/122 279/279/279 143/143/143
f 74/74/74 72/72/72 15/15/15
f 15/15/15 72/72/72 71/71/71
f 314/314/314 222/222/222 221/221/221
f 96/96/96 314/314/314 97/97/97
f 225/225/225 227/227/227 235/235/235
f 289/289/289 225/225/225 235/235/235
f 305/305/305 315/315/315 303/303/303
f 67/67/67 316/316/316 317/317/317
f 11/11/11 13/13/13 214/214/214
f 105/105/105 102/102/102 318/318/318
f 175/175/175 8/8/8 219/219/219
f 167/167/167 165/165/165 175/175/175
f 169/169/169 168/168/168 311/311/311
f 199/199/199 265/265/265 51/51/51
f 51/51/51 265/265/265 52/52/52
f 251/251/251 258/258/258 29/29/29
f 7/7/7 29/29/29 258/258/258
f 101/101/101 50/50/50 190/190/190
f 188/188/188 61/61/61 234/234/234
f 119/119/119 179/179/179 276/276/276
f 119/119/119 118/118/118 120/120/120
f 96/96/96 237/237/237 314/314/314
f 133/133/133 238/238/238 248/248/248
f 183/183/183 182/182/182 180/180/180
f 161/161/161 9/9/9 166/166/166
f 182/182/182 181/181/181 180/180/180
f 16/16/16 172/172/172 116/116/116
f 16/16/16 218/218/218 172/172/172
f 15/15/15 218/218/218 16/16/16
f 68/68/68 70/70/70 152/152/152
f 145/145/145 144/144/144 130/130/130
f 240/240/240 145/145/145 201/201/201
f 224/224/224 58/58/58 223/223/223
f 5/5/5 7/7/7 224/224/224
f 2/2/2 23/23/23 128/128/128
f 2/2/2 128/128/128 3/3/3
f 120/120/120 157/157/157 159/159/159
f 319/319/319 120/120/120 118/118/118
f 320/320/320 20/20/20 87/87/87
f 125/125/125 127/127/127 231/231/231
f 302/302/302 204/204/204 300/300/300
f 24/24/24 304/304/304 303/303/303
f 82/82/82 47/47/47 49/49/49
f 321/321/321 48/48/48 90/90/90
f 220/220/220 174/174/174 90/90/90
f 10/10/10 172/172/172 174/174/174
f 220/220/220 10/10/10 174/174/174
f 79/79/79 142/142/142 80/80/80
f 142/142/142 79/79/79 297/297/297
f 288/288/288 292/292/292 211/211/211
f 322/322/322 13/13/13 323/323/323
f 323/323/323 46/46/46 45/45/45
f 173/173/173 171/171/171 174/174/174
f 264/264/264 217/217/217 173/173/173
f 159/159/159 121/121/121 120/120/120
f 121/121/121 159/159/159 183/183/183
f 24/24/24 2/2/2 304/304/304
f 2/2/2 89/89/89 304/304/304
f 149/149/149 148/148/148 242/242/242
f 324/324/324 245/245/245 110/110/110
f 242/242/242 324/324/324 149/149/149
f 242/242/242 25/25/25 243/243/243
f 243/243/243 324/324/324 242/242/242
f 41/41/41 244/244/244 243/243/243
f 286/286/286 36/36/36 285/285/285
f 193/193/193 36/36/36 288/288/288
f 298/298/298 141/141/141 142/142/142
f 76/76/76 143/143/143 77/77/77
f 32/32/32 108/108/108 284/284/284
f 286/286/286 108/108/108 291/291/291
f 268/268/268 153/153/153 70/70/70
f 268/268/268 198/198/198 272/272/272
f 325/325/325 296/296/296 199/199/199
f 163/163/163 325/325/325 78/78/78
f 310/310/310 306/306/306 230/230/230
f 299/299/299 169/169/169 233/233/233
f 302/302/302 205/205/205 204/204/204
f 293/293/293 205/205/205 302/302/302
f 294/294/294 296/296/296 326/326/326
f 77/77/77 326/326/326 163/163/163
f 246/246/246 65/65/65 305/305/305
f 65/65/65 246/246/246 247/247/247
f 266/266/266 295/295/295 294/294/294
f 266/266/266 265/265/265 199/199/199
f 198/198/198 197/197/197 273/273/273
f 273/273/273 272/272/272 198/198/198
f 320/320/320 327/327/327 124/124/124
f 327/327/327 320/320/320 125/125/125
f 17/17/17 209/209/209 18/18/18
f 209/209/209 17/17/17 245/245/245
f 44/44/44 289/289/289 185/185/185
f 44/44/44 196/196/196 289/289/289
f 139/139/139 42/42/42 112/112/112
f 328/328/328 44/44/44 184/184/184
f 89/89/89 1/1/1 62/62/62
f 200/200/200 62/62/62 1/1/1
f 227/227/227 226/226/226 309/309/309
f 195/195/195 309/309/309 226/226/226
f 26/26/26 250/250/250 27/27/27
f 255/255/255 250/250/250 26/26/26
f 207/207/207 98/98/98 221/221/221
f 301/301/301 207/207/207 302/302/302
f 141/141/141 78/78/78 329/329/329
f 189/189/189 330/330/330 101/101/101
f 13/13/13 46/46/46 323/323/323
f 12/12/12 46/46/46 13/13/13
f 74/74/74 32/32/32 284/284/284
f 32/32/32 74/74/74 15/15/15
f 162/162/162 161/161/161 166/166/166
f 127/127/127 164/164/164 166/166/166
f 106/106/106 103/103/103 102/102/102
f 285/285/285 36/36/36 193/193/193
f 110/110/110 112/112/112 147/147/147
f 147/147/147 184/184/184 331/331/331
f 282/282/282 280/280/280 132/132/132
f 59/59/59 132/132/132 60/60/60
f 59/59/59 282/282/282 132/132/132
f 50/50/50 52/52/52 59/59/59
f 241/241/241 20/20/20 203/203/203
f 20/20/20 22/22/22 203/203/203
f 17/17/17 249/249/249 137/137/137
f 249/249/249 260/260/260 137/137/137
f 118/118/118 119/119/119 276/276/276
f 276/276/276 25/25/25 118/118/118
f 135/135/135 200/200/200 274/274/274
f 135/135/135 63/63/63 200/200/200
f 215/215/215 216/216/216 148/148/148
f 157/157/157 216/216/216 158/158/158
f 216/216/216 157/157/157 148/148/148
f 319/319/319 157/157/157 120/120/120
f 108/108/108 107/107/107 290/290/290
f 147/147/147 331/331/331 107/107/107
f 242/242/242 148/148/148 117/117/117
f 148/148/148 157/157/157 319/319/319
f 129/129/129 201/201/201 130/130/130
f 145/145/145 130/130/130 201/201/201
f 169/169/169 310/310/310 233/233/233
f 169/169/169 311/311/311 310/310/310
f 214/214/214 13/13/13 322/322/322
f 102/102/102 104/104/104 214/214/214
f 7/7/7 69/69/69 29/29/29
f 191/191/191 193/193/193 288/288/288
f 288/288/288 211/211/211 191/191/191
f 144/144/144 298/298/298 297/297/297
f 131/131/131 130/130/130 144/144/144
f 231/231/231 232/232/232 261/261/261
f 261/261/261 229/229/229 332/332/332
f 188/188/188 50/50/50 61/61/61
f 50/50/50 59/59/59 61/61/61
f 69/69/69 30/30/30 29/29/29
f 215/215/215 14/14/14 216/216/216
f 215/215/215 15/15/15 14/14/14
f 192/192/192 103/103/103 193/193/193
f 193/193/193 103/103/103 285/285/285
f 106/106/106 285/285/285 103/103/103
f 106/106/106 75/75/75 285/285/285
f 17/17/17 138/138/138 140/140/140
f 259/259/259 43/43/43 140/140/140
f 93/93/93 280/280/280 94/94/94
f 132/132/132 280/280/280 93/93/93
f 194/194/194 33/33/33 215/215/215
f 215/215/215 33/33/33 15/15/15
f 208/208/208 58/58/58 57/57/57
f 208/208/208 223/223/223 58/58/58
f 331/331/331 184/184/184 185/185/185
f 38/38/38 333/333/333 185/185/185
f 332/332/332 263/263/263 262/262/262
f 306/306/306 332/332/332 228/228/228
f 332/332/332 229/229/229 228/228/228
f 155/155/155 91/91/91 217/217/217
f 71/71/71 73/73/73 264/264/264
f 173/173/173 71/71/71 264/264/264
f 159/159/159 158/158/158 182/182/182
f 116/116/116 172/172/172 182/182/182
f 268/268/268 272/272/272 153/153/153
f 81/81/81 186/186/186 55/55/55
f 80/80/80 186/186/186 81/81/81
f 77/77/77 307/307/307 326/326/326
f 143/143/143 307/307/307 77/77/77
f 198/198/198 269/269/269 151/151/151
f 151/151/151 6/6/6 5/5/5
f 317/317/317 98/98/98 207/207/207
f 316/316/316 98/98/98 317/317/317
f 66/66/66 238/238/238 96/96/96
f 316/316/316 96/96/96 98/98/98
f 254/254/254 26/26/26 253/253/253
f 334/334/334 253/253/253 137/137/137
f 80/80/80 187/187/187 186/186/186
f 329/329/329 330/330/330 189/189/189
f 325/325/325 330/330/330 78/78/78
f 329/329/329 78/78/78 330/330/330
f 326/326/326 296/296/296 163/163/163
f 134/134/134 136/136/136 60/60/60
f 234/234/234 61/61/61 60/60/60
f 217/217/217 91/91/91 171/171/171
f 173/173/173 217/217/217 171/171/171
f 319/319/319 117/117/117 148/148/148
f 319/319/319 118/118/118 117/117/117
f 48/48/48 220/220/220 90/90/90
f 219/219/219 220/220/220 48/48/48
f 245/245/245 324/324/324 244/244/244
f 243/243/243 244/244/244 324/324/324
f 40/40/40 210/210/210 41/41/41
f 41/41/41 210/210/210 244/244/244
f 108/108/108 286/286/286 284/284/284
f 284/284/284 286/286/286 285/285/285
f 202/202/202 240/240/240 201/201/201
f 115/115/115 240/240/240 202/202/202
f 179/179/179 283/283/283 178/178/178
f 119/119/119 283/283/283 179/179/179
f 114/114/114 179/179/179 88/88/88
f 20/20/20 241/241/241 88/88/88
f 138/138/138 137/137/137 259/259/259
f 138/138/138 259/259/259 140/140/140
f 9/9/9 8/8/8 165/165/165
f 175/175/175 165/165/165 8/8/8
f 308/308/308 195/195/195 27/27/27
f 28/28/28 27/27/27 195/195/195
f 321/321/321 90/90/90 92/92/92
f 163/163/163 296/296/296 325/325/325
f 133/133/133 248/248/248 247/247/247
f 60/60/60 133/133/133 134/134/134
f 151/151/151 269/269/269 6/6/6
f 269/269/269 70/70/70 6/6/6
f 282/282/282 52/52/52 265/265/265
f 52/52/52 282/282/282 59/59/59
f 37/37/37 39/39/39 289/289/289
f 185/185/185 289/289/289 39/39/39
f 322/322/322 323/323/323 318/318/318
f 73/73/73 45/45/45 156/156/156
f 154/154/154 156/156/156 45/45/45
f 190/190/190 50/50/50 188/188/188
f 189/189/189 190/190/190 188/188/188
f 22/22/22 123/123/123 122/122/122
f 145/145/145 22/22/22 122/122/122
f 20/20/20 320/320/320 21/21/21
f 21/21/21 320/320/320 124/124/124
f 22/22/22 21/21/21 123/123/123
f 21/21/21 124/124/124 123/123/123
f 192/192/192 104/104/104 103/103/103
f 212/212/212 104/104/104 192/192/192
f 312/312/312 170/170/170 176/176/176
f 167/167/167 176/176/176 170/170/170
f 149/149/149 110/110/110 146/146/146
f 324/324/324 110/110/110 149/149/149
f 287/287/287 146/146/146 107/107/107
f 149/149/149 146/146/146 287/287/287
f 222/222/222 151/151/151 5/5/5
f 223/223/223 221/221/221 222/222/222
f 144/144/144 143/143/143 298/298/298
f 298/298/298 143/143/143 76/76/76
f 141/141/141 76/76/76 78/78/78
f 298/298/298 76/76/76 141/141/141
f 335/335/335 73/73/73 318/318/318
f 4/4/4 129/129/129 275/275/275
f 200/200/200 275/275/275 53/53/53
f 53/53/53 129/129/129 54/54/54
f 53/53/53 275/275/275 129/129/129
f 86/86/86 85/85/85 278/278/278
f 249/249/249 19/19/19 56/56/56
f 19/19/19 57/57/57 56/56/56
f 125/125/125 239/239/239 126/126/126
f 126/126/126 239/239/239 164/164/164
f 24/24/24 206/206/206 25/25/25
f 40/40/40 25/25/25 206/206/206
f 206/206/206 293/293/293 40/40/40
f 209/209/209 40/40/40 18/18/18
f 305/305/305 67/67/67 336/336/336
f 65/65/65 67/67/67 305/305/305
f 67/67/67 317/317/317 336/336/336
f 317/317/317 207/207/207 301/301/301
f 336/336/336 315/315/315 305/305/305
f 301/301/301 336/336/336 317/317/317
f 196/196/196 226/226/226 225/225/225
f 225/225/225 289/289/289 196/196/196
f 266/266/266 199/199/199 295/295/295
f 295/295/295 199/199/199 296/296/296
f 204/204/204 206/206/206 24/24/24
f 303/303/303 204/204/204 24/24/24
f 212/212/212 213/213/213 104/104/104
f 167/167/167 299/299/299 127/127/127
f 169/169/169 299/299/299 167/167/167
f 323/323/323 45/45/45 335/335/335
f 27/27/27 281/281/281 308/308/308
f 121/121/121 161/161/161 160/160/160
f 283/283/283 121/121/121 160/160/160
f 168/168/168 170/170/170 312/312/312
f 35/35/35 38/38/38 37/37/37
f 35/35/35 37/37/37 288/288/288
f 250/250/250 252/252/252 31/31/31
f 29/29/29 31/31/31 252/252/252
f 255/255/255 251/251/251 250/250/250
f 251/251/251 255/255/255 258/258/258
f 97/97/97 314/314/314 221/221/221
f 98/98/98 97/97/97 221/221/221
f 310/310/310 230/230/230 233/233/233
f 229/229/229 233/233/233 230/230/230
f 158/158/158 116/116/116 182/182/182
f 158/158/158 216/216/216 116/116/116
f 335/335/335 318/318/318 323/323/323
f 246/246/246 305/305/305 63/63/63
f 135/135/135 246/246/246 63/63/63
f 320/320/320 87/87/87 125/125/125
f 239/239/239 125/125/125 87/87/87
f 327/327/327 125/125/125 231/231/231
f 327/327/327 231/231/231 124/124/124
f 194/194/194 215/215/215 150/150/150
f 128/128/128 277/277/277 113/113/113
f 115/115/115 128/128/128 113/113/113
f 184/184/184 147/147/147 112/112/112
f 184/184/184 112/112/112 328/328/328
f 290/290/290 38/38/38 291/291/291
f 34/34/34 38/38/38 35/35/35
f 287/287/287 107/107/107 109/109/109
f 150/150/150 287/287/287 109/109/109
f 48/48/48 321/321/321 49/49/49
f 300/300/300 315/315/315 301/301/301
f 301/301/301 315/315/315 336/336/336
f 293/293/293 302/302/302 57/57/57
f 302/302/302 207/207/207 57/57/57
f 182/182/182 172/172/172 181/181/181
f 181/181/181 172/172/172 10/10/10
f 274/274/274 55/55/55 234/234/234
f 274/274/274 53/53/53 55/55/55
f 234/234/234 60/60/60 136/136/136
f 136/136/136 274/274/274 234/234/234
f 18/18/18 293/293/293 57/57/57
f 293/293/293 18/18/18 40/40/40
f 45/45/45 73/73/73 335/335/335
f 318/318/318 73/73/73 105/105/105
f 105/105/105 72/72/72 75/75/75
f 72/72/72 105/105/105 73/73/73
f 86/86/86 278/278/278 279/279/279
f 122/122/122 313/313/313 279/279/279
f 254/254/254 256/256/256 255/255/255
f 137/137/137 260/260/260 334/334/334
f 124/124/124 261/261/261 262/262/262
f 261/261/261 332/332/332 262/262/262
f 84/84/84 100/100/100 85/85/85
f 100/100/100 84/84/84 262/262/262
f 131/131/131 144/144/144 297/297/297
f 79/79/79 131/131/131 297/297/297
f 238/238/238 237/237/237 96/96/96
f 93/93/93 237/237/237 238/238/238
f 224/224/224 223/223/223 5/5/5
f 5/5/5 223/223/223 222/222/222
f 115/115/115 114/114/114 241/241/241
f 114/114/114 88/88/88 241/241/241
f 337/337/337 312/312/312 83/83/83
f 82/82/82 337/337/337 83/83/83
f 67/67/67 66/66/66 316/316/316
f 66/66/66 96/96/96 316/316/316
f 178/178/178 162/162/162 164/164/164
f 164/164/164 162/162/162 166/166/166
f 107/107/107 331/331/331 290/290/290
f 331/331/331 185/185/185 333/333/333
f 245/245/245 111/111/111 110/110/110
f 139/139/139 112/112/112 111/111/111
f 139/139/139 245/245/245 17/17/17
f 245/245/245 139/139/139 111/111/111
f 80/80/80 329/329/329 189/189/189
f 80/80/80 141/141/141 329/329/329
f 54/54/54 79/79/79 81/81/81
f 54/54/54 131/131/131 79/79/79
f 214/214/214 322/322/322 102/102/102
f 318/318/318 102/102/102 322/322/322
f 23/23/23 276/276/276 277/277/277
f 277/277/277 128/128/128 23/23/23
f 236/236/236 235/235/235 227/227/227
f 265/265/265 197/197/197 94/94/94
f 94/94/94 197/197/197 151/151/151
f 121/121/121 183/183/183 161/161/161
f 183/183/183 9/9/9 161/161/161
f 183/183/183 180/180/180 9/9/9
f 9/9/9 180/180/180 10/10/10
f 291/291/291 38/38/38 34/34/34
f 286/286/286 291/291/291 34/34/34
f 177/177/177 219/219/219 48/48/48
f 175/175/175 219/219/219 177/177/177
f 213/213/213 11/11/11 214/214/214
f 194/194/194 150/150/150 32/32/32
f 232/232/232 229/229/229 261/261/261
f 233/233/233 229/229/229 232/232/232
f 112/112/112 42/42/42 328/328/328
f 42/42/42 44/44/44 328/328/328
f 331/331/331 333/333/333 290/290/290
f 333/333/333 38/38/38 290/290/290
f 189/189/189 188/188/188 187/187/187
f 80/80/80 189/189/189 187/187/187
f 43/43/43 28/28/28 196/196/196
f 28/28/28 43/43/43 26/26/26
f 248/248/248 66/66/66 65/65/65
f 238/238/238 66/66/66 248/248/248
f 263/263/263 99/99/99 100/100/100
f 246/246/246 134/134/134 247/247/247
f 133/133/133 247/247/247 134/134/134
f 304/304/304 89/89/89 64/64/64
f 89/89/89 62/62/62 64/64/64
f 314/314/314 95/95/95 222/222/222
f 237/237/237 95/95/95 314/314/314
f 303/303/303 315/315/315 300/300/300
f 303/303/303 300/300/300 204/204/204
f 325/325/325 199/199/199 101/101/101
f 325/325/325 101/101/101 330/330/330
f 197/197/197 267/267/267 273/273/273
f 273/273/273 267/267/267 266/266/266
f 257/257/257 256/256/256 260/260/260
f 254/254/254 260/260/260 256/256/256
f 273/273/273 266/266/266 270/270/270
f 270/270/270 266/266/266 271/271/271
f 254/254/254 334/334/334 260/260/260
f 334/334/334 254/254/254 253/253/253
f 271/271/271 266/266/266 294/294/294
f 313/313/313 86/86/86 279/279/279
f 124/124/124 86/86/86 313/313/313
